G75*
%MOIN*%
%OFA0B0*%
%FSLAX25Y25*%
%IPPOS*%
%LPD*%
%AMOC8*
5,1,8,0,0,1.08239X$1,22.5*
%
%ADD10C,0.00000*%
%ADD11C,0.07400*%
%ADD12C,0.07500*%
%ADD13OC8,0.07500*%
%ADD14OC8,0.05200*%
%ADD15C,0.05937*%
%ADD16C,0.05150*%
%ADD17C,0.06400*%
%ADD18C,0.11220*%
%ADD19C,0.01600*%
%ADD20C,0.03169*%
D10*
X0001800Y0001800D02*
X0001800Y0198650D01*
X0198650Y0198650D01*
X0198650Y0001800D01*
X0001800Y0001800D01*
D11*
X0006800Y0011800D03*
X0006800Y0021800D03*
X0006800Y0031800D03*
X0006800Y0041800D03*
X0006800Y0051800D03*
X0006800Y0066800D03*
X0006800Y0076800D03*
X0006800Y0086800D03*
X0006800Y0096800D03*
X0006800Y0106800D03*
X0006800Y0116800D03*
X0006800Y0126800D03*
X0006800Y0136800D03*
X0066800Y0091800D03*
X0066800Y0081800D03*
X0066800Y0071800D03*
X0056800Y0016800D03*
X0036800Y0016800D03*
X0126800Y0016800D03*
X0146800Y0016800D03*
X0193800Y0066800D03*
X0193800Y0076800D03*
X0193800Y0086800D03*
X0193800Y0096800D03*
X0193800Y0106800D03*
X0193800Y0116800D03*
X0193800Y0126800D03*
X0193800Y0136800D03*
D12*
X0131800Y0086800D03*
X0131800Y0186800D03*
D13*
X0151800Y0186800D03*
X0151800Y0086800D03*
D14*
X0141800Y0071800D03*
X0171800Y0104300D03*
X0141800Y0106800D03*
X0141800Y0116800D03*
X0141800Y0131800D03*
X0141800Y0141800D03*
X0141800Y0156800D03*
X0141800Y0166800D03*
X0166800Y0161800D03*
X0176800Y0161800D03*
X0171800Y0144300D03*
X0116800Y0186800D03*
X0111800Y0194300D03*
X0106800Y0186800D03*
X0086800Y0181800D03*
X0086800Y0191800D03*
X0049300Y0079300D03*
X0031800Y0079300D03*
X0066800Y0051800D03*
X0066800Y0041800D03*
X0049300Y0039300D03*
X0031800Y0039300D03*
X0096800Y0016800D03*
X0106800Y0016800D03*
X0141800Y0031800D03*
D15*
X0052548Y0186800D03*
X0021052Y0186800D03*
D16*
X0028926Y0186800D03*
X0036800Y0186800D03*
X0044674Y0186800D03*
X0161721Y0033099D03*
X0166446Y0029950D03*
X0161721Y0026800D03*
X0166446Y0023650D03*
X0161721Y0020501D03*
D17*
X0116800Y0036800D03*
X0116800Y0046800D03*
X0116800Y0056800D03*
X0116800Y0066800D03*
X0116800Y0076800D03*
X0116800Y0086800D03*
X0116800Y0096800D03*
X0116800Y0106800D03*
X0116800Y0116800D03*
X0116800Y0126800D03*
X0116800Y0136800D03*
X0116800Y0146800D03*
X0116800Y0156800D03*
X0116800Y0166800D03*
X0086800Y0166800D03*
X0086800Y0156800D03*
X0086800Y0146800D03*
X0086800Y0136800D03*
X0086800Y0126800D03*
X0086800Y0116800D03*
X0086800Y0106800D03*
X0086800Y0096800D03*
X0086800Y0086800D03*
X0086800Y0076800D03*
X0086800Y0066800D03*
X0086800Y0056800D03*
X0086800Y0046800D03*
X0086800Y0036800D03*
D18*
X0181800Y0041170D03*
X0181800Y0012430D03*
D19*
X0186359Y0017785D02*
X0196850Y0017785D01*
X0196850Y0016187D02*
X0187832Y0016187D01*
X0187743Y0016401D02*
X0188810Y0013824D01*
X0188810Y0011035D01*
X0187743Y0008459D01*
X0185771Y0006487D01*
X0183194Y0005420D01*
X0180406Y0005420D01*
X0177829Y0006487D01*
X0175857Y0008459D01*
X0174790Y0011035D01*
X0174790Y0013824D01*
X0175857Y0016401D01*
X0177829Y0018373D01*
X0180406Y0019440D01*
X0183194Y0019440D01*
X0185771Y0018373D01*
X0187743Y0016401D01*
X0188494Y0014588D02*
X0196850Y0014588D01*
X0196850Y0012990D02*
X0188810Y0012990D01*
X0188810Y0011391D02*
X0196850Y0011391D01*
X0196850Y0009793D02*
X0188295Y0009793D01*
X0187478Y0008194D02*
X0196850Y0008194D01*
X0196850Y0006596D02*
X0185880Y0006596D01*
X0177720Y0006596D02*
X0003600Y0006596D01*
X0003911Y0007476D02*
X0005786Y0006700D01*
X0007814Y0006700D01*
X0009689Y0007476D01*
X0011124Y0008911D01*
X0011900Y0010786D01*
X0011900Y0012814D01*
X0011124Y0014689D01*
X0009689Y0016124D01*
X0008056Y0016800D01*
X0009689Y0017476D01*
X0011124Y0018911D01*
X0011900Y0020786D01*
X0011900Y0022814D01*
X0011124Y0024689D01*
X0009689Y0026124D01*
X0008563Y0026590D01*
X0008911Y0026703D01*
X0009683Y0027096D01*
X0010383Y0027605D01*
X0010995Y0028217D01*
X0011504Y0028917D01*
X0011897Y0029689D01*
X0012165Y0030512D01*
X0012300Y0031367D01*
X0012300Y0031600D01*
X0007000Y0031600D01*
X0007000Y0032000D01*
X0012300Y0032000D01*
X0012300Y0032233D01*
X0012165Y0033088D01*
X0012051Y0033438D01*
X0019600Y0025889D01*
X0019600Y0025889D01*
X0020889Y0024600D01*
X0029780Y0024600D01*
X0030110Y0024270D01*
X0031206Y0023816D01*
X0032394Y0023816D01*
X0033490Y0024270D01*
X0034330Y0025110D01*
X0034784Y0026206D01*
X0034784Y0027394D01*
X0034330Y0028490D01*
X0033490Y0029330D01*
X0032394Y0029784D01*
X0031206Y0029784D01*
X0030110Y0029330D01*
X0029780Y0029000D01*
X0022711Y0029000D01*
X0014611Y0037100D01*
X0028343Y0037100D01*
X0030143Y0035300D01*
X0033457Y0035300D01*
X0034323Y0036166D01*
X0035089Y0035400D01*
X0051985Y0018503D01*
X0051700Y0017814D01*
X0051700Y0015786D01*
X0052476Y0013911D01*
X0053911Y0012476D01*
X0055786Y0011700D01*
X0057814Y0011700D01*
X0059689Y0012476D01*
X0061124Y0013911D01*
X0061900Y0015786D01*
X0061900Y0017814D01*
X0061124Y0019689D01*
X0059689Y0021124D01*
X0057814Y0021900D01*
X0055786Y0021900D01*
X0055097Y0021615D01*
X0042748Y0033963D01*
X0043490Y0034270D01*
X0043820Y0034600D01*
X0044949Y0034600D01*
X0045360Y0034189D01*
X0045360Y0034189D01*
X0046649Y0032900D01*
X0079223Y0032900D01*
X0080512Y0034189D01*
X0082202Y0035879D01*
X0082900Y0034194D01*
X0084194Y0032900D01*
X0085885Y0032200D01*
X0087715Y0032200D01*
X0089406Y0032900D01*
X0090700Y0034194D01*
X0091398Y0035879D01*
X0092677Y0034600D01*
X0112732Y0034600D01*
X0112900Y0034194D01*
X0114194Y0032900D01*
X0115885Y0032200D01*
X0117715Y0032200D01*
X0118121Y0032368D01*
X0128438Y0022051D01*
X0128088Y0022165D01*
X0127233Y0022300D01*
X0127000Y0022300D01*
X0127000Y0017000D01*
X0126600Y0017000D01*
X0126600Y0022300D01*
X0126367Y0022300D01*
X0125512Y0022165D01*
X0124689Y0021897D01*
X0123917Y0021504D01*
X0123217Y0020995D01*
X0122605Y0020383D01*
X0122096Y0019683D01*
X0121703Y0018911D01*
X0121435Y0018088D01*
X0121393Y0017823D01*
X0111505Y0027711D01*
X0110216Y0029000D01*
X0088820Y0029000D01*
X0088490Y0029330D01*
X0087394Y0029784D01*
X0086206Y0029784D01*
X0085110Y0029330D01*
X0084270Y0028490D01*
X0083816Y0027394D01*
X0083816Y0026206D01*
X0084270Y0025110D01*
X0085110Y0024270D01*
X0086206Y0023816D01*
X0087394Y0023816D01*
X0088490Y0024270D01*
X0088820Y0024600D01*
X0108393Y0024600D01*
X0123693Y0009300D01*
X0161111Y0009300D01*
X0162399Y0010589D01*
X0172820Y0021010D01*
X0172820Y0026291D01*
X0170283Y0028828D01*
X0170420Y0029159D01*
X0170420Y0030740D01*
X0169815Y0032201D01*
X0168697Y0033319D01*
X0167236Y0033924D01*
X0166020Y0033924D01*
X0165988Y0034124D01*
X0165776Y0034779D01*
X0165463Y0035392D01*
X0165058Y0035949D01*
X0164571Y0036436D01*
X0164014Y0036841D01*
X0163401Y0037153D01*
X0162746Y0037366D01*
X0162066Y0037474D01*
X0161721Y0037474D01*
X0161377Y0037474D01*
X0160697Y0037366D01*
X0160042Y0037153D01*
X0159746Y0037003D01*
X0159746Y0039635D01*
X0188549Y0068438D01*
X0188435Y0068088D01*
X0188300Y0067233D01*
X0188300Y0067000D01*
X0193600Y0067000D01*
X0193600Y0066600D01*
X0194000Y0066600D01*
X0194000Y0061300D01*
X0194233Y0061300D01*
X0195088Y0061435D01*
X0195911Y0061703D01*
X0196683Y0062096D01*
X0196850Y0062218D01*
X0196850Y0003600D01*
X0003600Y0003600D01*
X0003600Y0007788D01*
X0003911Y0007476D01*
X0003600Y0004997D02*
X0196850Y0004997D01*
X0196850Y0019384D02*
X0183331Y0019384D01*
X0180269Y0019384D02*
X0171194Y0019384D01*
X0172793Y0020982D02*
X0196850Y0020982D01*
X0196850Y0022581D02*
X0172820Y0022581D01*
X0172820Y0024179D02*
X0196850Y0024179D01*
X0196850Y0025778D02*
X0172820Y0025778D01*
X0171735Y0027376D02*
X0196850Y0027376D01*
X0196850Y0028975D02*
X0170344Y0028975D01*
X0170420Y0030573D02*
X0196850Y0030573D01*
X0196850Y0032172D02*
X0169828Y0032172D01*
X0167609Y0033770D02*
X0196850Y0033770D01*
X0196850Y0035369D02*
X0185913Y0035369D01*
X0185771Y0035227D02*
X0187743Y0037199D01*
X0188810Y0039776D01*
X0188810Y0042564D01*
X0187743Y0045141D01*
X0185771Y0047113D01*
X0183194Y0048180D01*
X0180406Y0048180D01*
X0177829Y0047113D01*
X0175857Y0045141D01*
X0174790Y0042564D01*
X0174790Y0039776D01*
X0175857Y0037199D01*
X0177829Y0035227D01*
X0180406Y0034160D01*
X0183194Y0034160D01*
X0185771Y0035227D01*
X0187511Y0036967D02*
X0196850Y0036967D01*
X0196850Y0038566D02*
X0188309Y0038566D01*
X0188810Y0040164D02*
X0196850Y0040164D01*
X0196850Y0041763D02*
X0188810Y0041763D01*
X0188480Y0043361D02*
X0196850Y0043361D01*
X0196850Y0044960D02*
X0187818Y0044960D01*
X0186326Y0046558D02*
X0196850Y0046558D01*
X0196850Y0048157D02*
X0183251Y0048157D01*
X0180349Y0048157D02*
X0168268Y0048157D01*
X0169867Y0049755D02*
X0196850Y0049755D01*
X0196850Y0051354D02*
X0171465Y0051354D01*
X0173064Y0052952D02*
X0196850Y0052952D01*
X0196850Y0054551D02*
X0174662Y0054551D01*
X0176261Y0056149D02*
X0196850Y0056149D01*
X0196850Y0057748D02*
X0177859Y0057748D01*
X0179458Y0059346D02*
X0196850Y0059346D01*
X0196850Y0060945D02*
X0181056Y0060945D01*
X0182655Y0062543D02*
X0190302Y0062543D01*
X0190217Y0062605D02*
X0190917Y0062096D01*
X0191689Y0061703D01*
X0192512Y0061435D01*
X0193367Y0061300D01*
X0193600Y0061300D01*
X0193600Y0066600D01*
X0188300Y0066600D01*
X0188300Y0066367D01*
X0188435Y0065512D01*
X0188703Y0064689D01*
X0189096Y0063917D01*
X0189605Y0063217D01*
X0190217Y0062605D01*
X0188982Y0064142D02*
X0184253Y0064142D01*
X0185852Y0065740D02*
X0188399Y0065740D01*
X0188317Y0067339D02*
X0187450Y0067339D01*
X0193600Y0065740D02*
X0194000Y0065740D01*
X0194000Y0064142D02*
X0193600Y0064142D01*
X0193600Y0062543D02*
X0194000Y0062543D01*
X0193800Y0076800D02*
X0157546Y0040546D01*
X0157546Y0025071D01*
X0161721Y0020896D01*
X0161721Y0020501D01*
X0150595Y0020501D01*
X0148995Y0022100D01*
X0131500Y0022100D01*
X0116800Y0036800D01*
X0093588Y0036800D01*
X0088788Y0041600D01*
X0084812Y0041600D01*
X0078312Y0035100D01*
X0047560Y0035100D01*
X0045860Y0036800D01*
X0041800Y0036800D01*
X0043820Y0039000D02*
X0043490Y0039330D01*
X0042394Y0039784D01*
X0041206Y0039784D01*
X0040110Y0039330D01*
X0039270Y0038490D01*
X0038963Y0037748D01*
X0038200Y0038511D01*
X0038200Y0041951D01*
X0036911Y0043240D01*
X0035740Y0044411D01*
X0034451Y0045700D01*
X0016011Y0045700D01*
X0011615Y0050097D01*
X0011900Y0050786D01*
X0011900Y0052814D01*
X0011615Y0053503D01*
X0033411Y0075300D01*
X0033457Y0075300D01*
X0035800Y0077643D01*
X0035800Y0080957D01*
X0033457Y0083300D01*
X0030143Y0083300D01*
X0027800Y0080957D01*
X0027800Y0077643D01*
X0028666Y0076777D01*
X0008503Y0056615D01*
X0007814Y0056900D01*
X0005786Y0056900D01*
X0003911Y0056124D01*
X0003600Y0055812D01*
X0003600Y0062327D01*
X0003917Y0062096D01*
X0004689Y0061703D01*
X0005512Y0061435D01*
X0006367Y0061300D01*
X0006600Y0061300D01*
X0006600Y0066600D01*
X0007000Y0066600D01*
X0007000Y0067000D01*
X0012300Y0067000D01*
X0012300Y0067233D01*
X0012165Y0068088D01*
X0011897Y0068911D01*
X0011504Y0069683D01*
X0010995Y0070383D01*
X0010383Y0070995D01*
X0009683Y0071504D01*
X0008911Y0071897D01*
X0008563Y0072010D01*
X0009689Y0072476D01*
X0011124Y0073911D01*
X0011900Y0075786D01*
X0011900Y0077814D01*
X0011124Y0079689D01*
X0009689Y0081124D01*
X0008056Y0081800D01*
X0009689Y0082476D01*
X0011124Y0083911D01*
X0011900Y0085786D01*
X0011900Y0087814D01*
X0011124Y0089689D01*
X0009689Y0091124D01*
X0008056Y0091800D01*
X0009689Y0092476D01*
X0011124Y0093911D01*
X0011900Y0095786D01*
X0011900Y0097814D01*
X0011615Y0098503D01*
X0012711Y0099600D01*
X0045762Y0099600D01*
X0045110Y0099330D01*
X0044780Y0099000D01*
X0035889Y0099000D01*
X0026673Y0089784D01*
X0026206Y0089784D01*
X0025110Y0089330D01*
X0024270Y0088490D01*
X0023816Y0087394D01*
X0023816Y0086206D01*
X0024270Y0085110D01*
X0025110Y0084270D01*
X0026206Y0083816D01*
X0027394Y0083816D01*
X0028490Y0084270D01*
X0029330Y0085110D01*
X0029784Y0086206D01*
X0029784Y0086673D01*
X0037711Y0094600D01*
X0044780Y0094600D01*
X0045110Y0094270D01*
X0046206Y0093816D01*
X0047394Y0093816D01*
X0048490Y0094270D01*
X0049330Y0095110D01*
X0049784Y0096206D01*
X0049784Y0097394D01*
X0049330Y0098490D01*
X0048490Y0099330D01*
X0047838Y0099600D01*
X0069780Y0099600D01*
X0070110Y0099270D01*
X0071206Y0098816D01*
X0072394Y0098816D01*
X0073490Y0099270D01*
X0074330Y0100110D01*
X0074784Y0101206D01*
X0074784Y0102394D01*
X0074330Y0103490D01*
X0073490Y0104330D01*
X0072838Y0104600D01*
X0082732Y0104600D01*
X0082900Y0104194D01*
X0084194Y0102900D01*
X0085885Y0102200D01*
X0087715Y0102200D01*
X0089406Y0102900D01*
X0090700Y0104194D01*
X0091400Y0105885D01*
X0091400Y0107715D01*
X0090700Y0109406D01*
X0089406Y0110700D01*
X0087715Y0111400D01*
X0085885Y0111400D01*
X0084194Y0110700D01*
X0082900Y0109406D01*
X0082732Y0109000D01*
X0011409Y0109000D01*
X0011124Y0109689D01*
X0009689Y0111124D01*
X0008056Y0111800D01*
X0009689Y0112476D01*
X0011124Y0113911D01*
X0011409Y0114600D01*
X0082732Y0114600D01*
X0082900Y0114194D01*
X0084194Y0112900D01*
X0085885Y0112200D01*
X0087715Y0112200D01*
X0089406Y0112900D01*
X0090700Y0114194D01*
X0091400Y0115885D01*
X0091400Y0117715D01*
X0090700Y0119406D01*
X0089406Y0120700D01*
X0087715Y0121400D01*
X0085885Y0121400D01*
X0084194Y0120700D01*
X0082900Y0119406D01*
X0082732Y0119000D01*
X0011409Y0119000D01*
X0011124Y0119689D01*
X0009689Y0121124D01*
X0008056Y0121800D01*
X0009689Y0122476D01*
X0011124Y0123911D01*
X0011409Y0124600D01*
X0067711Y0124600D01*
X0085479Y0142368D01*
X0085885Y0142200D01*
X0087715Y0142200D01*
X0089406Y0142900D01*
X0090700Y0144194D01*
X0091400Y0145885D01*
X0091400Y0147715D01*
X0090700Y0149406D01*
X0090505Y0149600D01*
X0099780Y0149600D01*
X0100110Y0149270D01*
X0101206Y0148816D01*
X0102394Y0148816D01*
X0103490Y0149270D01*
X0104330Y0150110D01*
X0104784Y0151206D01*
X0104784Y0152394D01*
X0104330Y0153490D01*
X0103490Y0154330D01*
X0102394Y0154784D01*
X0101206Y0154784D01*
X0100110Y0154330D01*
X0099780Y0154000D01*
X0090505Y0154000D01*
X0090700Y0154194D01*
X0091400Y0155885D01*
X0091400Y0157715D01*
X0090700Y0159406D01*
X0089406Y0160700D01*
X0087715Y0161400D01*
X0085885Y0161400D01*
X0084194Y0160700D01*
X0082900Y0159406D01*
X0082732Y0159000D01*
X0025889Y0159000D01*
X0008503Y0141615D01*
X0007814Y0141900D01*
X0005786Y0141900D01*
X0003911Y0141124D01*
X0003600Y0140812D01*
X0003600Y0196850D01*
X0108694Y0196850D01*
X0107800Y0195957D01*
X0107800Y0194830D01*
X0104541Y0193200D01*
X0104149Y0193200D01*
X0103757Y0192808D01*
X0103261Y0192560D01*
X0103233Y0192476D01*
X0096281Y0189000D01*
X0089657Y0189000D01*
X0090800Y0190143D01*
X0090800Y0193457D01*
X0088457Y0195800D01*
X0085143Y0195800D01*
X0082800Y0193457D01*
X0082800Y0190143D01*
X0083943Y0189000D01*
X0058098Y0189000D01*
X0056873Y0187775D01*
X0056251Y0189275D01*
X0055023Y0190503D01*
X0053417Y0191168D01*
X0051679Y0191168D01*
X0050073Y0190503D01*
X0048845Y0189275D01*
X0048611Y0188710D01*
X0048416Y0189093D01*
X0048011Y0189650D01*
X0047524Y0190137D01*
X0046967Y0190542D01*
X0046353Y0190854D01*
X0045698Y0191067D01*
X0045018Y0191175D01*
X0044674Y0191175D01*
X0044330Y0191175D01*
X0043650Y0191067D01*
X0042995Y0190854D01*
X0042381Y0190542D01*
X0041824Y0190137D01*
X0041337Y0189650D01*
X0040932Y0189093D01*
X0040620Y0188479D01*
X0040526Y0188191D01*
X0040170Y0189052D01*
X0039052Y0190170D01*
X0037591Y0190775D01*
X0036009Y0190775D01*
X0034548Y0190170D01*
X0033430Y0189052D01*
X0032863Y0187682D01*
X0032296Y0189052D01*
X0031178Y0190170D01*
X0029717Y0190775D01*
X0028135Y0190775D01*
X0026674Y0190170D01*
X0025556Y0189052D01*
X0025202Y0188196D01*
X0024755Y0189275D01*
X0023527Y0190503D01*
X0021921Y0191168D01*
X0020183Y0191168D01*
X0018577Y0190503D01*
X0017349Y0189275D01*
X0016683Y0187669D01*
X0016683Y0185931D01*
X0017349Y0184325D01*
X0018577Y0183097D01*
X0020183Y0182431D01*
X0021921Y0182431D01*
X0023527Y0183097D01*
X0024755Y0184325D01*
X0025202Y0185404D01*
X0025556Y0184548D01*
X0026674Y0183430D01*
X0028135Y0182825D01*
X0029717Y0182825D01*
X0031178Y0183430D01*
X0032296Y0184548D01*
X0032863Y0185918D01*
X0033430Y0184548D01*
X0034548Y0183430D01*
X0036009Y0182825D01*
X0037591Y0182825D01*
X0039035Y0183424D01*
X0041138Y0181320D01*
X0042427Y0180031D01*
X0055352Y0180031D01*
X0056640Y0181320D01*
X0059920Y0184600D01*
X0083377Y0184600D01*
X0082400Y0183623D01*
X0082400Y0181800D01*
X0086800Y0181800D01*
X0091200Y0181800D01*
X0091200Y0183623D01*
X0090223Y0184600D01*
X0096443Y0184600D01*
X0096969Y0184425D01*
X0097319Y0184600D01*
X0097711Y0184600D01*
X0098103Y0184992D01*
X0102400Y0187140D01*
X0102400Y0186800D01*
X0106800Y0186800D01*
X0111200Y0186800D01*
X0111200Y0188623D01*
X0109208Y0190614D01*
X0109622Y0190821D01*
X0110143Y0190300D01*
X0113457Y0190300D01*
X0115800Y0192643D01*
X0115800Y0195957D01*
X0114906Y0196850D01*
X0196850Y0196850D01*
X0196850Y0140962D01*
X0196689Y0141124D01*
X0194814Y0141900D01*
X0192786Y0141900D01*
X0192097Y0141615D01*
X0183011Y0150700D01*
X0169149Y0150700D01*
X0167860Y0149411D01*
X0167449Y0149000D01*
X0120868Y0149000D01*
X0120700Y0149406D01*
X0119406Y0150700D01*
X0117715Y0151400D01*
X0115885Y0151400D01*
X0114194Y0150700D01*
X0112900Y0149406D01*
X0112200Y0147715D01*
X0112200Y0145885D01*
X0112900Y0144194D01*
X0114194Y0142900D01*
X0115885Y0142200D01*
X0117715Y0142200D01*
X0119406Y0142900D01*
X0120700Y0144194D01*
X0120868Y0144600D01*
X0138377Y0144600D01*
X0137400Y0143623D01*
X0137400Y0141800D01*
X0141800Y0141800D01*
X0146200Y0141800D01*
X0146200Y0143623D01*
X0145223Y0144600D01*
X0167800Y0144600D01*
X0167800Y0142643D01*
X0170143Y0140300D01*
X0173457Y0140300D01*
X0175800Y0142643D01*
X0175800Y0145957D01*
X0175457Y0146300D01*
X0181189Y0146300D01*
X0188985Y0138503D01*
X0188700Y0137814D01*
X0188700Y0135786D01*
X0189248Y0134464D01*
X0184711Y0139000D01*
X0182889Y0139000D01*
X0145223Y0139000D01*
X0146200Y0139977D01*
X0146200Y0141800D01*
X0141800Y0141800D01*
X0141800Y0141800D01*
X0141800Y0141800D01*
X0137400Y0141800D01*
X0137400Y0139977D01*
X0138377Y0139000D01*
X0120868Y0139000D01*
X0120700Y0139406D01*
X0119406Y0140700D01*
X0117715Y0141400D01*
X0115885Y0141400D01*
X0114194Y0140700D01*
X0112900Y0139406D01*
X0112200Y0137715D01*
X0112200Y0135885D01*
X0112900Y0134194D01*
X0114194Y0132900D01*
X0115885Y0132200D01*
X0117715Y0132200D01*
X0119406Y0132900D01*
X0120700Y0134194D01*
X0120868Y0134600D01*
X0138943Y0134600D01*
X0137800Y0133457D01*
X0137800Y0130143D01*
X0138943Y0129000D01*
X0120868Y0129000D01*
X0120700Y0129406D01*
X0119406Y0130700D01*
X0117715Y0131400D01*
X0115885Y0131400D01*
X0114194Y0130700D01*
X0112900Y0129406D01*
X0112200Y0127715D01*
X0112200Y0125885D01*
X0112900Y0124194D01*
X0114194Y0122900D01*
X0115885Y0122200D01*
X0117715Y0122200D01*
X0119406Y0122900D01*
X0120700Y0124194D01*
X0120868Y0124600D01*
X0182889Y0124600D01*
X0188985Y0118503D01*
X0188700Y0117814D01*
X0188700Y0115786D01*
X0189476Y0113911D01*
X0190911Y0112476D01*
X0192544Y0111800D01*
X0190911Y0111124D01*
X0189476Y0109689D01*
X0188700Y0107814D01*
X0188700Y0105786D01*
X0188985Y0105097D01*
X0152889Y0069000D01*
X0145223Y0069000D01*
X0146200Y0069977D01*
X0146200Y0071800D01*
X0146200Y0073623D01*
X0143623Y0076200D01*
X0141800Y0076200D01*
X0141800Y0071800D01*
X0141800Y0071800D01*
X0146200Y0071800D01*
X0141800Y0071800D01*
X0141800Y0071800D01*
X0141800Y0071800D01*
X0137400Y0071800D01*
X0137400Y0073623D01*
X0139977Y0076200D01*
X0141800Y0076200D01*
X0141800Y0071800D01*
X0137400Y0071800D01*
X0137400Y0069977D01*
X0138377Y0069000D01*
X0120868Y0069000D01*
X0120700Y0069406D01*
X0119406Y0070700D01*
X0117715Y0071400D01*
X0115885Y0071400D01*
X0114194Y0070700D01*
X0112900Y0069406D01*
X0112200Y0067715D01*
X0112200Y0065885D01*
X0112900Y0064194D01*
X0114194Y0062900D01*
X0115885Y0062200D01*
X0117715Y0062200D01*
X0119406Y0062900D01*
X0120700Y0064194D01*
X0120868Y0064600D01*
X0154711Y0064600D01*
X0189248Y0099136D01*
X0188700Y0097814D01*
X0188700Y0095786D01*
X0188985Y0095097D01*
X0152889Y0059000D01*
X0120868Y0059000D01*
X0120700Y0059406D01*
X0119406Y0060700D01*
X0117715Y0061400D01*
X0115885Y0061400D01*
X0114194Y0060700D01*
X0112900Y0059406D01*
X0112200Y0057715D01*
X0112200Y0055885D01*
X0112900Y0054194D01*
X0114194Y0052900D01*
X0115885Y0052200D01*
X0117715Y0052200D01*
X0119406Y0052900D01*
X0120700Y0054194D01*
X0120868Y0054600D01*
X0154711Y0054600D01*
X0156000Y0055889D01*
X0189248Y0089136D01*
X0188700Y0087814D01*
X0188700Y0085786D01*
X0188985Y0085097D01*
X0152889Y0049000D01*
X0120868Y0049000D01*
X0120700Y0049406D01*
X0119406Y0050700D01*
X0117715Y0051400D01*
X0115885Y0051400D01*
X0114194Y0050700D01*
X0112900Y0049406D01*
X0112202Y0047721D01*
X0090923Y0069000D01*
X0090868Y0069000D01*
X0090700Y0069406D01*
X0089406Y0070700D01*
X0087715Y0071400D01*
X0085885Y0071400D01*
X0084194Y0070700D01*
X0082900Y0069406D01*
X0082200Y0067715D01*
X0082200Y0065885D01*
X0082368Y0065479D01*
X0075089Y0058200D01*
X0064149Y0058200D01*
X0056160Y0050211D01*
X0056160Y0049272D01*
X0050189Y0043300D01*
X0047643Y0043300D01*
X0045300Y0040957D01*
X0045300Y0039000D01*
X0043820Y0039000D01*
X0045300Y0040164D02*
X0038200Y0040164D01*
X0038200Y0038566D02*
X0039345Y0038566D01*
X0038200Y0041763D02*
X0046106Y0041763D01*
X0049300Y0039300D02*
X0058360Y0048360D01*
X0058360Y0049300D01*
X0065060Y0056000D01*
X0076000Y0056000D01*
X0086800Y0066800D01*
X0090012Y0066800D01*
X0114812Y0042000D01*
X0121600Y0042000D01*
X0131800Y0031800D01*
X0130398Y0028416D02*
X0127014Y0031800D01*
X0126800Y0031800D01*
X0130398Y0028416D02*
X0133202Y0028416D01*
X0136586Y0031800D01*
X0141800Y0031800D01*
X0142688Y0019900D02*
X0131346Y0019900D01*
X0131504Y0019683D01*
X0131897Y0018911D01*
X0132165Y0018088D01*
X0132300Y0017233D01*
X0132300Y0017000D01*
X0127000Y0017000D01*
X0127000Y0016600D01*
X0132300Y0016600D01*
X0132300Y0016367D01*
X0132165Y0015512D01*
X0131897Y0014689D01*
X0131504Y0013917D01*
X0131346Y0013700D01*
X0142688Y0013700D01*
X0142476Y0013911D01*
X0141700Y0015786D01*
X0141700Y0017814D01*
X0142476Y0019689D01*
X0142688Y0019900D01*
X0142350Y0019384D02*
X0131656Y0019384D01*
X0132213Y0017785D02*
X0141700Y0017785D01*
X0141700Y0016187D02*
X0132271Y0016187D01*
X0131846Y0014588D02*
X0142196Y0014588D01*
X0127000Y0017785D02*
X0126600Y0017785D01*
X0126600Y0019384D02*
X0127000Y0019384D01*
X0127000Y0020982D02*
X0126600Y0020982D01*
X0127908Y0022581D02*
X0116635Y0022581D01*
X0115037Y0024179D02*
X0126310Y0024179D01*
X0124711Y0025778D02*
X0113438Y0025778D01*
X0111840Y0027376D02*
X0123113Y0027376D01*
X0121514Y0028975D02*
X0110241Y0028975D01*
X0109305Y0026800D02*
X0086800Y0026800D01*
X0084754Y0028975D02*
X0047737Y0028975D01*
X0049335Y0027376D02*
X0083816Y0027376D01*
X0083993Y0025778D02*
X0050934Y0025778D01*
X0052532Y0024179D02*
X0085329Y0024179D01*
X0088271Y0024179D02*
X0108814Y0024179D01*
X0110413Y0022581D02*
X0054131Y0022581D01*
X0051105Y0019384D02*
X0041656Y0019384D01*
X0041504Y0019683D02*
X0040995Y0020383D01*
X0040383Y0020995D01*
X0039683Y0021504D01*
X0038911Y0021897D01*
X0038088Y0022165D01*
X0037233Y0022300D01*
X0037000Y0022300D01*
X0037000Y0017000D01*
X0036600Y0017000D01*
X0036600Y0022300D01*
X0036367Y0022300D01*
X0035512Y0022165D01*
X0034689Y0021897D01*
X0033917Y0021504D01*
X0033217Y0020995D01*
X0032605Y0020383D01*
X0032096Y0019683D01*
X0031703Y0018911D01*
X0031435Y0018088D01*
X0031300Y0017233D01*
X0031300Y0017000D01*
X0036600Y0017000D01*
X0036600Y0016600D01*
X0031300Y0016600D01*
X0031300Y0016367D01*
X0031435Y0015512D01*
X0031703Y0014689D01*
X0032096Y0013917D01*
X0032605Y0013217D01*
X0033217Y0012605D01*
X0033917Y0012096D01*
X0034689Y0011703D01*
X0035512Y0011435D01*
X0036367Y0011300D01*
X0036600Y0011300D01*
X0036600Y0016600D01*
X0037000Y0016600D01*
X0037000Y0017000D01*
X0042300Y0017000D01*
X0042300Y0017233D01*
X0042165Y0018088D01*
X0041897Y0018911D01*
X0041504Y0019683D01*
X0040396Y0020982D02*
X0049507Y0020982D01*
X0047908Y0022581D02*
X0011900Y0022581D01*
X0011900Y0020982D02*
X0033204Y0020982D01*
X0031944Y0019384D02*
X0011319Y0019384D01*
X0009998Y0017785D02*
X0031387Y0017785D01*
X0031329Y0016187D02*
X0009537Y0016187D01*
X0011165Y0014588D02*
X0031754Y0014588D01*
X0032832Y0012990D02*
X0011827Y0012990D01*
X0011900Y0011391D02*
X0035792Y0011391D01*
X0036600Y0011391D02*
X0037000Y0011391D01*
X0037000Y0011300D02*
X0037233Y0011300D01*
X0038088Y0011435D01*
X0038911Y0011703D01*
X0039683Y0012096D01*
X0040383Y0012605D01*
X0040995Y0013217D01*
X0041504Y0013917D01*
X0041897Y0014689D01*
X0042165Y0015512D01*
X0042300Y0016367D01*
X0042300Y0016600D01*
X0037000Y0016600D01*
X0037000Y0011300D01*
X0037808Y0011391D02*
X0121602Y0011391D01*
X0120004Y0012990D02*
X0108646Y0012990D01*
X0108457Y0012800D02*
X0110800Y0015143D01*
X0110800Y0018457D01*
X0108457Y0020800D01*
X0105143Y0020800D01*
X0103343Y0019000D01*
X0100257Y0019000D01*
X0098457Y0020800D01*
X0095143Y0020800D01*
X0092800Y0018457D01*
X0092800Y0015143D01*
X0095143Y0012800D01*
X0098457Y0012800D01*
X0100257Y0014600D01*
X0103343Y0014600D01*
X0105143Y0012800D01*
X0108457Y0012800D01*
X0110245Y0014588D02*
X0118405Y0014588D01*
X0116807Y0016187D02*
X0110800Y0016187D01*
X0110800Y0017785D02*
X0115208Y0017785D01*
X0113610Y0019384D02*
X0109873Y0019384D01*
X0112011Y0020982D02*
X0059830Y0020982D01*
X0061250Y0019384D02*
X0093727Y0019384D01*
X0092800Y0017785D02*
X0061900Y0017785D01*
X0061900Y0016187D02*
X0092800Y0016187D01*
X0093355Y0014588D02*
X0061404Y0014588D01*
X0060202Y0012990D02*
X0094954Y0012990D01*
X0098646Y0012990D02*
X0104954Y0012990D01*
X0103355Y0014588D02*
X0100245Y0014588D01*
X0102800Y0016800D02*
X0096800Y0016800D01*
X0099873Y0019384D02*
X0103727Y0019384D01*
X0109305Y0026800D02*
X0124605Y0011500D01*
X0160199Y0011500D01*
X0170620Y0021921D01*
X0170620Y0025380D01*
X0166446Y0029554D01*
X0166446Y0029950D01*
X0161721Y0033099D02*
X0161721Y0033099D01*
X0161721Y0037474D01*
X0161721Y0033099D01*
X0161721Y0033770D02*
X0161721Y0033770D01*
X0161721Y0035369D02*
X0161721Y0035369D01*
X0161721Y0036967D02*
X0161721Y0036967D01*
X0163766Y0036967D02*
X0176089Y0036967D01*
X0175291Y0038566D02*
X0159746Y0038566D01*
X0160276Y0040164D02*
X0174790Y0040164D01*
X0174790Y0041763D02*
X0161874Y0041763D01*
X0163473Y0043361D02*
X0175120Y0043361D01*
X0175782Y0044960D02*
X0165071Y0044960D01*
X0166670Y0046558D02*
X0177274Y0046558D01*
X0177687Y0035369D02*
X0165475Y0035369D01*
X0153800Y0046800D02*
X0193800Y0086800D01*
X0188700Y0086521D02*
X0186632Y0086521D01*
X0185034Y0084923D02*
X0188811Y0084923D01*
X0187213Y0083324D02*
X0183435Y0083324D01*
X0181837Y0081726D02*
X0185614Y0081726D01*
X0184016Y0080127D02*
X0180238Y0080127D01*
X0178640Y0078529D02*
X0182417Y0078529D01*
X0180819Y0076930D02*
X0177041Y0076930D01*
X0175443Y0075332D02*
X0179220Y0075332D01*
X0177622Y0073733D02*
X0173844Y0073733D01*
X0172246Y0072134D02*
X0176023Y0072134D01*
X0174425Y0070536D02*
X0170647Y0070536D01*
X0169049Y0068937D02*
X0172826Y0068937D01*
X0171228Y0067339D02*
X0167450Y0067339D01*
X0165852Y0065740D02*
X0169629Y0065740D01*
X0168031Y0064142D02*
X0164253Y0064142D01*
X0162655Y0062543D02*
X0166432Y0062543D01*
X0164834Y0060945D02*
X0161056Y0060945D01*
X0159458Y0059346D02*
X0163235Y0059346D01*
X0161637Y0057748D02*
X0157859Y0057748D01*
X0156261Y0056149D02*
X0160038Y0056149D01*
X0158440Y0054551D02*
X0120847Y0054551D01*
X0119458Y0052952D02*
X0156841Y0052952D01*
X0155243Y0051354D02*
X0117826Y0051354D01*
X0115774Y0051354D02*
X0108569Y0051354D01*
X0106971Y0052952D02*
X0114142Y0052952D01*
X0112753Y0054551D02*
X0105372Y0054551D01*
X0103774Y0056149D02*
X0112200Y0056149D01*
X0112214Y0057748D02*
X0102175Y0057748D01*
X0100577Y0059346D02*
X0112876Y0059346D01*
X0114786Y0060945D02*
X0098978Y0060945D01*
X0097380Y0062543D02*
X0115056Y0062543D01*
X0112953Y0064142D02*
X0095781Y0064142D01*
X0094183Y0065740D02*
X0112260Y0065740D01*
X0112200Y0067339D02*
X0092584Y0067339D01*
X0090986Y0068937D02*
X0112706Y0068937D01*
X0114031Y0070536D02*
X0089569Y0070536D01*
X0089406Y0072900D02*
X0087715Y0072200D01*
X0085885Y0072200D01*
X0085479Y0072368D01*
X0082711Y0069600D01*
X0071409Y0069600D01*
X0071124Y0068911D01*
X0069689Y0067476D01*
X0067814Y0066700D01*
X0065786Y0066700D01*
X0063911Y0067476D01*
X0062476Y0068911D01*
X0061700Y0070786D01*
X0061700Y0072814D01*
X0062476Y0074689D01*
X0063911Y0076124D01*
X0065037Y0076590D01*
X0064689Y0076703D01*
X0063917Y0077096D01*
X0063217Y0077605D01*
X0062605Y0078217D01*
X0062096Y0078917D01*
X0061703Y0079689D01*
X0061435Y0080512D01*
X0061300Y0081367D01*
X0061300Y0081600D01*
X0066600Y0081600D01*
X0066600Y0082000D01*
X0061300Y0082000D01*
X0061300Y0082233D01*
X0061435Y0083088D01*
X0061703Y0083911D01*
X0062096Y0084683D01*
X0062605Y0085383D01*
X0063217Y0085995D01*
X0063917Y0086504D01*
X0064689Y0086897D01*
X0065037Y0087010D01*
X0063911Y0087476D01*
X0062476Y0088911D01*
X0061700Y0090786D01*
X0061700Y0092814D01*
X0062476Y0094689D01*
X0063911Y0096124D01*
X0065786Y0096900D01*
X0067814Y0096900D01*
X0069689Y0096124D01*
X0071124Y0094689D01*
X0071900Y0092814D01*
X0071900Y0090786D01*
X0071615Y0090097D01*
X0072711Y0089000D01*
X0082732Y0089000D01*
X0082900Y0089406D01*
X0084194Y0090700D01*
X0085885Y0091400D01*
X0087715Y0091400D01*
X0089406Y0090700D01*
X0090700Y0089406D01*
X0091400Y0087715D01*
X0091400Y0085885D01*
X0090700Y0084194D01*
X0089406Y0082900D01*
X0087715Y0082200D01*
X0085885Y0082200D01*
X0084194Y0082900D01*
X0082900Y0084194D01*
X0082732Y0084600D01*
X0071546Y0084600D01*
X0071897Y0083911D01*
X0072165Y0083088D01*
X0072300Y0082233D01*
X0072300Y0082000D01*
X0067000Y0082000D01*
X0067000Y0081600D01*
X0072300Y0081600D01*
X0072300Y0081367D01*
X0072165Y0080512D01*
X0071897Y0079689D01*
X0071504Y0078917D01*
X0070995Y0078217D01*
X0070383Y0077605D01*
X0069683Y0077096D01*
X0068911Y0076703D01*
X0068563Y0076590D01*
X0069689Y0076124D01*
X0071124Y0074689D01*
X0071409Y0074000D01*
X0080889Y0074000D01*
X0082368Y0075479D01*
X0082200Y0075885D01*
X0082200Y0077715D01*
X0082900Y0079406D01*
X0084194Y0080700D01*
X0085885Y0081400D01*
X0087715Y0081400D01*
X0089406Y0080700D01*
X0090700Y0079406D01*
X0091400Y0077715D01*
X0091400Y0075885D01*
X0090700Y0074194D01*
X0089406Y0072900D01*
X0090238Y0073733D02*
X0112848Y0073733D01*
X0112986Y0073543D02*
X0113543Y0072986D01*
X0114179Y0072524D01*
X0114881Y0072166D01*
X0115629Y0071923D01*
X0116406Y0071800D01*
X0116800Y0071800D01*
X0117194Y0071800D01*
X0117971Y0071923D01*
X0118719Y0072166D01*
X0119421Y0072524D01*
X0120057Y0072986D01*
X0120614Y0073543D01*
X0121076Y0074179D01*
X0121434Y0074881D01*
X0121677Y0075629D01*
X0121800Y0076406D01*
X0121800Y0076800D01*
X0121800Y0077194D01*
X0121677Y0077971D01*
X0121434Y0078719D01*
X0121076Y0079421D01*
X0120614Y0080057D01*
X0120057Y0080614D01*
X0119421Y0081076D01*
X0118719Y0081434D01*
X0117971Y0081677D01*
X0117194Y0081800D01*
X0116800Y0081800D01*
X0116800Y0076800D01*
X0121800Y0076800D01*
X0116800Y0076800D01*
X0116800Y0076800D01*
X0116800Y0076800D01*
X0116800Y0071800D01*
X0116800Y0076800D01*
X0116800Y0076800D01*
X0116800Y0076800D01*
X0111800Y0076800D01*
X0111800Y0077194D01*
X0111923Y0077971D01*
X0112166Y0078719D01*
X0112524Y0079421D01*
X0112986Y0080057D01*
X0113543Y0080614D01*
X0114179Y0081076D01*
X0114881Y0081434D01*
X0115629Y0081677D01*
X0116406Y0081800D01*
X0116800Y0081800D01*
X0116800Y0076800D01*
X0111800Y0076800D01*
X0111800Y0076406D01*
X0111923Y0075629D01*
X0112166Y0074881D01*
X0112524Y0074179D01*
X0112986Y0073543D01*
X0112020Y0075332D02*
X0091171Y0075332D01*
X0091400Y0076930D02*
X0111800Y0076930D01*
X0112104Y0078529D02*
X0091063Y0078529D01*
X0089978Y0080127D02*
X0113056Y0080127D01*
X0114194Y0082900D02*
X0115885Y0082200D01*
X0117715Y0082200D01*
X0119406Y0082900D01*
X0120700Y0084194D01*
X0120868Y0084600D01*
X0127137Y0084600D01*
X0127434Y0083883D01*
X0128883Y0082434D01*
X0130776Y0081650D01*
X0132824Y0081650D01*
X0134717Y0082434D01*
X0136166Y0083883D01*
X0136950Y0085776D01*
X0136950Y0087824D01*
X0136166Y0089717D01*
X0134717Y0091166D01*
X0132824Y0091950D01*
X0130776Y0091950D01*
X0128883Y0091166D01*
X0127434Y0089717D01*
X0127137Y0089000D01*
X0120868Y0089000D01*
X0120700Y0089406D01*
X0119406Y0090700D01*
X0117715Y0091400D01*
X0115885Y0091400D01*
X0114194Y0090700D01*
X0112900Y0089406D01*
X0112200Y0087715D01*
X0112200Y0085885D01*
X0112900Y0084194D01*
X0114194Y0082900D01*
X0113771Y0083324D02*
X0089829Y0083324D01*
X0091001Y0084923D02*
X0112599Y0084923D01*
X0112200Y0086521D02*
X0091400Y0086521D01*
X0091232Y0088120D02*
X0112368Y0088120D01*
X0113213Y0089718D02*
X0090387Y0089718D01*
X0087916Y0091317D02*
X0115684Y0091317D01*
X0115885Y0092200D02*
X0114194Y0092900D01*
X0112900Y0094194D01*
X0112200Y0095885D01*
X0112200Y0097715D01*
X0112900Y0099406D01*
X0114194Y0100700D01*
X0115885Y0101400D01*
X0117715Y0101400D01*
X0119406Y0100700D01*
X0120700Y0099406D01*
X0121400Y0097715D01*
X0121400Y0095885D01*
X0120700Y0094194D01*
X0119406Y0092900D01*
X0117715Y0092200D01*
X0115885Y0092200D01*
X0114179Y0092915D02*
X0089959Y0092915D01*
X0090057Y0092986D02*
X0090614Y0093543D01*
X0091076Y0094179D01*
X0091434Y0094881D01*
X0091677Y0095629D01*
X0091800Y0096406D01*
X0091800Y0096800D01*
X0091800Y0097194D01*
X0091677Y0097971D01*
X0091434Y0098719D01*
X0091076Y0099421D01*
X0090614Y0100057D01*
X0090057Y0100614D01*
X0089421Y0101076D01*
X0088719Y0101434D01*
X0087971Y0101677D01*
X0087194Y0101800D01*
X0086800Y0101800D01*
X0086800Y0096800D01*
X0091800Y0096800D01*
X0086800Y0096800D01*
X0086800Y0096800D01*
X0086800Y0096800D01*
X0086800Y0091800D01*
X0087194Y0091800D01*
X0087971Y0091923D01*
X0088719Y0092166D01*
X0089421Y0092524D01*
X0090057Y0092986D01*
X0091247Y0094514D02*
X0112768Y0094514D01*
X0112200Y0096112D02*
X0091753Y0096112D01*
X0091718Y0097711D02*
X0112200Y0097711D01*
X0112860Y0099309D02*
X0091133Y0099309D01*
X0089653Y0100908D02*
X0114697Y0100908D01*
X0115146Y0102506D02*
X0088454Y0102506D01*
X0086800Y0101800D02*
X0086406Y0101800D01*
X0085629Y0101677D01*
X0084881Y0101434D01*
X0084179Y0101076D01*
X0083543Y0100614D01*
X0082986Y0100057D01*
X0082524Y0099421D01*
X0082166Y0098719D01*
X0081923Y0097971D01*
X0081800Y0097194D01*
X0081800Y0096800D01*
X0086800Y0096800D01*
X0086800Y0096800D01*
X0086800Y0096800D01*
X0086800Y0101800D01*
X0086800Y0100908D02*
X0086800Y0100908D01*
X0086800Y0099309D02*
X0086800Y0099309D01*
X0086800Y0097711D02*
X0086800Y0097711D01*
X0086800Y0096800D02*
X0081800Y0096800D01*
X0081800Y0096406D01*
X0081923Y0095629D01*
X0082166Y0094881D01*
X0082524Y0094179D01*
X0082986Y0093543D01*
X0083543Y0092986D01*
X0084179Y0092524D01*
X0084881Y0092166D01*
X0085629Y0091923D01*
X0086406Y0091800D01*
X0086800Y0091800D01*
X0086800Y0096800D01*
X0086800Y0096112D02*
X0086800Y0096112D01*
X0086800Y0094514D02*
X0086800Y0094514D01*
X0086800Y0092915D02*
X0086800Y0092915D01*
X0085684Y0091317D02*
X0071900Y0091317D01*
X0071858Y0092915D02*
X0083641Y0092915D01*
X0082353Y0094514D02*
X0071196Y0094514D01*
X0069700Y0096112D02*
X0081847Y0096112D01*
X0081882Y0097711D02*
X0049653Y0097711D01*
X0049745Y0096112D02*
X0063900Y0096112D01*
X0062404Y0094514D02*
X0048734Y0094514D01*
X0046800Y0096800D02*
X0036800Y0096800D01*
X0026800Y0086800D01*
X0029784Y0086521D02*
X0043816Y0086521D01*
X0043816Y0086206D02*
X0044270Y0085110D01*
X0044600Y0084780D01*
X0044600Y0083651D01*
X0044189Y0083240D01*
X0042900Y0081951D01*
X0042900Y0081011D01*
X0036673Y0074784D01*
X0036206Y0074784D01*
X0035110Y0074330D01*
X0034270Y0073490D01*
X0033816Y0072394D01*
X0033816Y0071206D01*
X0034270Y0070110D01*
X0035110Y0069270D01*
X0036206Y0068816D01*
X0037394Y0068816D01*
X0038490Y0069270D01*
X0039330Y0070110D01*
X0039784Y0071206D01*
X0039784Y0071673D01*
X0045527Y0077416D01*
X0047643Y0075300D01*
X0050957Y0075300D01*
X0053300Y0077643D01*
X0053300Y0080957D01*
X0050957Y0083300D01*
X0049000Y0083300D01*
X0049000Y0084780D01*
X0049330Y0085110D01*
X0049784Y0086206D01*
X0049784Y0087394D01*
X0049330Y0088490D01*
X0048490Y0089330D01*
X0047394Y0089784D01*
X0046206Y0089784D01*
X0045110Y0089330D01*
X0044270Y0088490D01*
X0043816Y0087394D01*
X0043816Y0086206D01*
X0044457Y0084923D02*
X0029143Y0084923D01*
X0028569Y0081726D02*
X0008236Y0081726D01*
X0010537Y0083324D02*
X0044273Y0083324D01*
X0042900Y0081726D02*
X0035031Y0081726D01*
X0035800Y0080127D02*
X0042016Y0080127D01*
X0040417Y0078529D02*
X0035800Y0078529D01*
X0035087Y0076930D02*
X0038819Y0076930D01*
X0037220Y0075332D02*
X0033488Y0075332D01*
X0034513Y0073733D02*
X0031844Y0073733D01*
X0030246Y0072134D02*
X0033816Y0072134D01*
X0034093Y0070536D02*
X0028647Y0070536D01*
X0027049Y0068937D02*
X0035913Y0068937D01*
X0037687Y0068937D02*
X0062465Y0068937D01*
X0061803Y0070536D02*
X0039507Y0070536D01*
X0040246Y0072134D02*
X0061700Y0072134D01*
X0062080Y0073733D02*
X0041844Y0073733D01*
X0043443Y0075332D02*
X0047612Y0075332D01*
X0046013Y0076930D02*
X0045041Y0076930D01*
X0045100Y0080100D02*
X0036800Y0071800D01*
X0031800Y0076800D02*
X0031800Y0079300D01*
X0031800Y0076800D02*
X0006800Y0051800D01*
X0015100Y0043500D01*
X0033540Y0043500D01*
X0036000Y0041040D01*
X0036000Y0037600D01*
X0056800Y0016800D01*
X0053398Y0012990D02*
X0040768Y0012990D01*
X0041846Y0014588D02*
X0052196Y0014588D01*
X0051700Y0016187D02*
X0042271Y0016187D01*
X0042213Y0017785D02*
X0051700Y0017785D01*
X0046310Y0024179D02*
X0033271Y0024179D01*
X0034607Y0025778D02*
X0044711Y0025778D01*
X0043113Y0027376D02*
X0034784Y0027376D01*
X0033846Y0028975D02*
X0041514Y0028975D01*
X0039916Y0030573D02*
X0021138Y0030573D01*
X0019540Y0032172D02*
X0038317Y0032172D01*
X0036718Y0033770D02*
X0017941Y0033770D01*
X0016343Y0035369D02*
X0030074Y0035369D01*
X0028476Y0036967D02*
X0014744Y0036967D01*
X0013317Y0032172D02*
X0012300Y0032172D01*
X0012174Y0030573D02*
X0014916Y0030573D01*
X0016514Y0028975D02*
X0011533Y0028975D01*
X0010068Y0027376D02*
X0018113Y0027376D01*
X0019711Y0025778D02*
X0010035Y0025778D01*
X0011335Y0024179D02*
X0030329Y0024179D01*
X0031800Y0026800D02*
X0021800Y0026800D01*
X0006800Y0041800D01*
X0009300Y0039300D01*
X0031800Y0039300D01*
X0033526Y0035369D02*
X0035120Y0035369D01*
X0042941Y0033770D02*
X0045779Y0033770D01*
X0044540Y0032172D02*
X0118317Y0032172D01*
X0119916Y0030573D02*
X0046138Y0030573D01*
X0052957Y0037300D02*
X0053300Y0037643D01*
X0053300Y0040189D01*
X0059272Y0046160D01*
X0060560Y0047449D01*
X0060560Y0048389D01*
X0062800Y0050628D01*
X0062800Y0050143D01*
X0065143Y0047800D01*
X0067689Y0047800D01*
X0070889Y0044600D01*
X0082732Y0044600D01*
X0082900Y0044194D01*
X0083598Y0043497D01*
X0077400Y0037300D01*
X0052957Y0037300D01*
X0053300Y0038566D02*
X0063812Y0038566D01*
X0064977Y0037400D02*
X0062400Y0039977D01*
X0062400Y0041800D01*
X0066800Y0041800D01*
X0066800Y0041800D01*
X0066800Y0046200D01*
X0068623Y0046200D01*
X0071200Y0043623D01*
X0071200Y0041800D01*
X0066800Y0041800D01*
X0066800Y0041800D01*
X0066800Y0041800D01*
X0066800Y0046200D01*
X0064977Y0046200D01*
X0062400Y0043623D01*
X0062400Y0041800D01*
X0066800Y0041800D01*
X0071200Y0041800D01*
X0071200Y0039977D01*
X0068623Y0037400D01*
X0066800Y0037400D01*
X0066800Y0041800D01*
X0066800Y0041800D01*
X0066800Y0037400D01*
X0064977Y0037400D01*
X0066800Y0038566D02*
X0066800Y0038566D01*
X0066800Y0040164D02*
X0066800Y0040164D01*
X0066800Y0041763D02*
X0066800Y0041763D01*
X0066800Y0043361D02*
X0066800Y0043361D01*
X0066800Y0044960D02*
X0066800Y0044960D01*
X0068930Y0046558D02*
X0059670Y0046558D01*
X0060560Y0048157D02*
X0064786Y0048157D01*
X0063188Y0049755D02*
X0061927Y0049755D01*
X0058901Y0052952D02*
X0011843Y0052952D01*
X0011900Y0051354D02*
X0057303Y0051354D01*
X0056160Y0049755D02*
X0011956Y0049755D01*
X0013554Y0048157D02*
X0055046Y0048157D01*
X0053447Y0046558D02*
X0015153Y0046558D01*
X0012662Y0054551D02*
X0060500Y0054551D01*
X0062098Y0056149D02*
X0014261Y0056149D01*
X0015859Y0057748D02*
X0063697Y0057748D01*
X0066800Y0051800D02*
X0071800Y0046800D01*
X0086800Y0046800D01*
X0083462Y0043361D02*
X0071200Y0043361D01*
X0071200Y0041763D02*
X0081863Y0041763D01*
X0080265Y0040164D02*
X0071200Y0040164D01*
X0069788Y0038566D02*
X0078666Y0038566D01*
X0081692Y0035369D02*
X0082414Y0035369D01*
X0083324Y0033770D02*
X0080093Y0033770D01*
X0090276Y0033770D02*
X0113324Y0033770D01*
X0116800Y0046800D02*
X0153800Y0046800D01*
X0153644Y0049755D02*
X0120350Y0049755D01*
X0113250Y0049755D02*
X0110168Y0049755D01*
X0111766Y0048157D02*
X0112383Y0048157D01*
X0116800Y0056800D02*
X0153800Y0056800D01*
X0193800Y0096800D01*
X0188700Y0096112D02*
X0186223Y0096112D01*
X0184625Y0094514D02*
X0188402Y0094514D01*
X0186804Y0092915D02*
X0183026Y0092915D01*
X0181428Y0091317D02*
X0185205Y0091317D01*
X0183607Y0089718D02*
X0179829Y0089718D01*
X0178231Y0088120D02*
X0182008Y0088120D01*
X0180410Y0086521D02*
X0176632Y0086521D01*
X0175034Y0084923D02*
X0178811Y0084923D01*
X0177213Y0083324D02*
X0173435Y0083324D01*
X0171837Y0081726D02*
X0175614Y0081726D01*
X0174016Y0080127D02*
X0170238Y0080127D01*
X0168640Y0078529D02*
X0172417Y0078529D01*
X0170819Y0076930D02*
X0167041Y0076930D01*
X0165443Y0075332D02*
X0169220Y0075332D01*
X0167622Y0073733D02*
X0163844Y0073733D01*
X0162246Y0072134D02*
X0166023Y0072134D01*
X0164425Y0070536D02*
X0160647Y0070536D01*
X0159049Y0068937D02*
X0162826Y0068937D01*
X0161228Y0067339D02*
X0157450Y0067339D01*
X0155852Y0065740D02*
X0159629Y0065740D01*
X0158031Y0064142D02*
X0120647Y0064142D01*
X0118544Y0062543D02*
X0156432Y0062543D01*
X0154834Y0060945D02*
X0118814Y0060945D01*
X0120724Y0059346D02*
X0153235Y0059346D01*
X0156000Y0055889D02*
X0156000Y0055889D01*
X0153800Y0066800D02*
X0193800Y0106800D01*
X0190286Y0110499D02*
X0143758Y0110499D01*
X0143457Y0110800D02*
X0140911Y0110800D01*
X0132711Y0119000D01*
X0120868Y0119000D01*
X0120700Y0119406D01*
X0119406Y0120700D01*
X0117715Y0121400D01*
X0115885Y0121400D01*
X0114194Y0120700D01*
X0112900Y0119406D01*
X0112200Y0117715D01*
X0112200Y0115885D01*
X0112900Y0114194D01*
X0114194Y0112900D01*
X0115885Y0112200D01*
X0117715Y0112200D01*
X0119406Y0112900D01*
X0120700Y0114194D01*
X0120868Y0114600D01*
X0130889Y0114600D01*
X0137800Y0107689D01*
X0137800Y0105143D01*
X0140143Y0102800D01*
X0143457Y0102800D01*
X0145800Y0105143D01*
X0145800Y0108457D01*
X0143457Y0110800D01*
X0143623Y0112400D02*
X0141800Y0112400D01*
X0141800Y0116800D01*
X0141800Y0116800D01*
X0141800Y0121200D01*
X0143623Y0121200D01*
X0146200Y0118623D01*
X0146200Y0116800D01*
X0141800Y0116800D01*
X0141800Y0116800D01*
X0141800Y0116800D01*
X0137400Y0116800D01*
X0137400Y0118623D01*
X0139977Y0121200D01*
X0141800Y0121200D01*
X0141800Y0116800D01*
X0146200Y0116800D01*
X0146200Y0114977D01*
X0143623Y0112400D01*
X0141800Y0112400D02*
X0141800Y0116800D01*
X0141800Y0116800D01*
X0137400Y0116800D01*
X0137400Y0114977D01*
X0139977Y0112400D01*
X0141800Y0112400D01*
X0141800Y0113696D02*
X0141800Y0113696D01*
X0141800Y0115294D02*
X0141800Y0115294D01*
X0141800Y0116893D02*
X0141800Y0116893D01*
X0141800Y0118491D02*
X0141800Y0118491D01*
X0141800Y0120090D02*
X0141800Y0120090D01*
X0144733Y0120090D02*
X0187399Y0120090D01*
X0188980Y0118491D02*
X0146200Y0118491D01*
X0146200Y0116893D02*
X0188700Y0116893D01*
X0188903Y0115294D02*
X0146200Y0115294D01*
X0144918Y0113696D02*
X0189692Y0113696D01*
X0191826Y0112097D02*
X0139614Y0112097D01*
X0138682Y0113696D02*
X0138015Y0113696D01*
X0137400Y0115294D02*
X0136417Y0115294D01*
X0137400Y0116893D02*
X0134818Y0116893D01*
X0133220Y0118491D02*
X0137400Y0118491D01*
X0138867Y0120090D02*
X0120016Y0120090D01*
X0116800Y0116800D02*
X0131800Y0116800D01*
X0141800Y0106800D01*
X0138838Y0104105D02*
X0120610Y0104105D01*
X0120700Y0104194D02*
X0119406Y0102900D01*
X0117715Y0102200D01*
X0115885Y0102200D01*
X0114194Y0102900D01*
X0112900Y0104194D01*
X0112200Y0105885D01*
X0112200Y0107715D01*
X0112900Y0109406D01*
X0114194Y0110700D01*
X0115885Y0111400D01*
X0117715Y0111400D01*
X0119406Y0110700D01*
X0120700Y0109406D01*
X0121400Y0107715D01*
X0121400Y0105885D01*
X0120700Y0104194D01*
X0121325Y0105703D02*
X0137800Y0105703D01*
X0137800Y0107302D02*
X0121400Y0107302D01*
X0120909Y0108900D02*
X0136588Y0108900D01*
X0134990Y0110499D02*
X0119607Y0110499D01*
X0120201Y0113696D02*
X0131793Y0113696D01*
X0133391Y0112097D02*
X0008774Y0112097D01*
X0010314Y0110499D02*
X0083993Y0110499D01*
X0083399Y0113696D02*
X0010908Y0113696D01*
X0006800Y0116800D02*
X0086800Y0116800D01*
X0090016Y0120090D02*
X0113584Y0120090D01*
X0112522Y0118491D02*
X0091078Y0118491D01*
X0091400Y0116893D02*
X0112200Y0116893D01*
X0112445Y0115294D02*
X0091155Y0115294D01*
X0090201Y0113696D02*
X0113399Y0113696D01*
X0113993Y0110499D02*
X0089607Y0110499D01*
X0090909Y0108900D02*
X0112691Y0108900D01*
X0112200Y0107302D02*
X0091400Y0107302D01*
X0091325Y0105703D02*
X0112275Y0105703D01*
X0112990Y0104105D02*
X0090610Y0104105D01*
X0086800Y0106800D02*
X0006800Y0106800D01*
X0011800Y0101800D02*
X0006800Y0096800D01*
X0011373Y0094514D02*
X0031402Y0094514D01*
X0029804Y0092915D02*
X0010128Y0092915D01*
X0009223Y0091317D02*
X0028205Y0091317D01*
X0031231Y0088120D02*
X0044116Y0088120D01*
X0046047Y0089718D02*
X0032829Y0089718D01*
X0034428Y0091317D02*
X0061700Y0091317D01*
X0061742Y0092915D02*
X0036026Y0092915D01*
X0037625Y0094514D02*
X0044866Y0094514D01*
X0045089Y0099309D02*
X0012420Y0099309D01*
X0011900Y0097711D02*
X0034599Y0097711D01*
X0033001Y0096112D02*
X0011900Y0096112D01*
X0011800Y0101800D02*
X0071800Y0101800D01*
X0073716Y0104105D02*
X0082990Y0104105D01*
X0085146Y0102506D02*
X0074738Y0102506D01*
X0074661Y0100908D02*
X0083947Y0100908D01*
X0082467Y0099309D02*
X0073530Y0099309D01*
X0070070Y0099309D02*
X0048511Y0099309D01*
X0047553Y0089718D02*
X0062142Y0089718D01*
X0063268Y0088120D02*
X0049484Y0088120D01*
X0049784Y0086521D02*
X0063951Y0086521D01*
X0062270Y0084923D02*
X0049143Y0084923D01*
X0049000Y0083324D02*
X0061512Y0083324D01*
X0061561Y0080127D02*
X0053300Y0080127D01*
X0053300Y0078529D02*
X0062378Y0078529D01*
X0064243Y0076930D02*
X0052587Y0076930D01*
X0050988Y0075332D02*
X0063119Y0075332D01*
X0066800Y0071800D02*
X0081800Y0071800D01*
X0086800Y0076800D01*
X0082537Y0078529D02*
X0071222Y0078529D01*
X0072039Y0080127D02*
X0083622Y0080127D01*
X0083771Y0083324D02*
X0072088Y0083324D01*
X0071800Y0086800D02*
X0066800Y0091800D01*
X0071993Y0089718D02*
X0083213Y0089718D01*
X0086800Y0086800D02*
X0071800Y0086800D01*
X0067000Y0081726D02*
X0115937Y0081726D01*
X0116800Y0081726D02*
X0116800Y0081726D01*
X0117663Y0081726D02*
X0130593Y0081726D01*
X0127993Y0083324D02*
X0119829Y0083324D01*
X0120544Y0080127D02*
X0164016Y0080127D01*
X0165614Y0081726D02*
X0154574Y0081726D01*
X0154099Y0081250D02*
X0151800Y0081250D01*
X0151800Y0086800D01*
X0157350Y0086800D01*
X0157350Y0089099D01*
X0154099Y0092350D01*
X0151800Y0092350D01*
X0151800Y0086800D01*
X0151800Y0086800D01*
X0151800Y0086800D01*
X0157350Y0086800D01*
X0157350Y0084501D01*
X0154099Y0081250D01*
X0151800Y0081250D02*
X0151800Y0086800D01*
X0151800Y0086800D01*
X0151800Y0086800D01*
X0146250Y0086800D01*
X0146250Y0089099D01*
X0149501Y0092350D01*
X0151800Y0092350D01*
X0151800Y0086800D01*
X0146250Y0086800D01*
X0146250Y0084501D01*
X0149501Y0081250D01*
X0151800Y0081250D01*
X0151800Y0081726D02*
X0151800Y0081726D01*
X0151800Y0083324D02*
X0151800Y0083324D01*
X0151800Y0084923D02*
X0151800Y0084923D01*
X0151800Y0086521D02*
X0151800Y0086521D01*
X0151800Y0088120D02*
X0151800Y0088120D01*
X0151800Y0089718D02*
X0151800Y0089718D01*
X0151800Y0091317D02*
X0151800Y0091317D01*
X0155132Y0091317D02*
X0175205Y0091317D01*
X0176804Y0092915D02*
X0119421Y0092915D01*
X0120832Y0094514D02*
X0178402Y0094514D01*
X0180001Y0096112D02*
X0121400Y0096112D01*
X0121400Y0097711D02*
X0181599Y0097711D01*
X0183198Y0099309D02*
X0120740Y0099309D01*
X0118903Y0100908D02*
X0168970Y0100908D01*
X0169977Y0099900D02*
X0167400Y0102477D01*
X0167400Y0104300D01*
X0171800Y0104300D01*
X0171800Y0104300D01*
X0171800Y0108700D01*
X0173623Y0108700D01*
X0176200Y0106123D01*
X0176200Y0104300D01*
X0171800Y0104300D01*
X0171800Y0104300D01*
X0171800Y0104300D01*
X0171800Y0108700D01*
X0169977Y0108700D01*
X0167400Y0106123D01*
X0167400Y0104300D01*
X0171800Y0104300D01*
X0176200Y0104300D01*
X0176200Y0102477D01*
X0173623Y0099900D01*
X0171800Y0099900D01*
X0171800Y0104300D01*
X0171800Y0104300D01*
X0171800Y0099900D01*
X0169977Y0099900D01*
X0171800Y0100908D02*
X0171800Y0100908D01*
X0171800Y0102506D02*
X0171800Y0102506D01*
X0171800Y0104105D02*
X0171800Y0104105D01*
X0171800Y0105703D02*
X0171800Y0105703D01*
X0171800Y0107302D02*
X0171800Y0107302D01*
X0175021Y0107302D02*
X0188700Y0107302D01*
X0188734Y0105703D02*
X0176200Y0105703D01*
X0176200Y0104105D02*
X0187993Y0104105D01*
X0186395Y0102506D02*
X0176200Y0102506D01*
X0174630Y0100908D02*
X0184796Y0100908D01*
X0187822Y0097711D02*
X0188700Y0097711D01*
X0188826Y0088120D02*
X0188231Y0088120D01*
X0173607Y0089718D02*
X0156731Y0089718D01*
X0157350Y0088120D02*
X0172008Y0088120D01*
X0170410Y0086521D02*
X0157350Y0086521D01*
X0157350Y0084923D02*
X0168811Y0084923D01*
X0167213Y0083324D02*
X0156173Y0083324D01*
X0149026Y0081726D02*
X0133007Y0081726D01*
X0135607Y0083324D02*
X0147427Y0083324D01*
X0146250Y0084923D02*
X0136597Y0084923D01*
X0136950Y0086521D02*
X0146250Y0086521D01*
X0146250Y0088120D02*
X0136828Y0088120D01*
X0136165Y0089718D02*
X0146869Y0089718D01*
X0148468Y0091317D02*
X0134353Y0091317D01*
X0129247Y0091317D02*
X0117916Y0091317D01*
X0120387Y0089718D02*
X0127435Y0089718D01*
X0131800Y0086800D02*
X0116800Y0086800D01*
X0116800Y0080127D02*
X0116800Y0080127D01*
X0116800Y0078529D02*
X0116800Y0078529D01*
X0116800Y0076930D02*
X0116800Y0076930D01*
X0116800Y0075332D02*
X0116800Y0075332D01*
X0116800Y0073733D02*
X0116800Y0073733D01*
X0116800Y0072134D02*
X0116800Y0072134D01*
X0118621Y0072134D02*
X0137400Y0072134D01*
X0137400Y0070536D02*
X0119569Y0070536D01*
X0120752Y0073733D02*
X0137510Y0073733D01*
X0139109Y0075332D02*
X0121580Y0075332D01*
X0121800Y0076930D02*
X0160819Y0076930D01*
X0162417Y0078529D02*
X0121496Y0078529D01*
X0114979Y0072134D02*
X0085246Y0072134D01*
X0084031Y0070536D02*
X0083647Y0070536D01*
X0082706Y0068937D02*
X0071134Y0068937D01*
X0069357Y0067339D02*
X0082200Y0067339D01*
X0082260Y0065740D02*
X0023852Y0065740D01*
X0022253Y0064142D02*
X0081031Y0064142D01*
X0079432Y0062543D02*
X0020655Y0062543D01*
X0019056Y0060945D02*
X0077834Y0060945D01*
X0076235Y0059346D02*
X0017458Y0059346D01*
X0014432Y0062543D02*
X0010298Y0062543D01*
X0010383Y0062605D02*
X0010995Y0063217D01*
X0011504Y0063917D01*
X0011897Y0064689D01*
X0012165Y0065512D01*
X0012300Y0066367D01*
X0012300Y0066600D01*
X0007000Y0066600D01*
X0007000Y0061300D01*
X0007233Y0061300D01*
X0008088Y0061435D01*
X0008911Y0061703D01*
X0009683Y0062096D01*
X0010383Y0062605D01*
X0011618Y0064142D02*
X0016031Y0064142D01*
X0017629Y0065740D02*
X0012201Y0065740D01*
X0012283Y0067339D02*
X0019228Y0067339D01*
X0020826Y0068937D02*
X0011884Y0068937D01*
X0010842Y0070536D02*
X0022425Y0070536D01*
X0024023Y0072134D02*
X0008863Y0072134D01*
X0010945Y0073733D02*
X0025622Y0073733D01*
X0027220Y0075332D02*
X0011712Y0075332D01*
X0011900Y0076930D02*
X0028513Y0076930D01*
X0027800Y0078529D02*
X0011604Y0078529D01*
X0010685Y0080127D02*
X0027800Y0080127D01*
X0024457Y0084923D02*
X0011543Y0084923D01*
X0011900Y0086521D02*
X0023816Y0086521D01*
X0024116Y0088120D02*
X0011774Y0088120D01*
X0011094Y0089718D02*
X0026047Y0089718D01*
X0045100Y0081040D02*
X0045100Y0080100D01*
X0045100Y0081040D02*
X0046800Y0082740D01*
X0046800Y0086800D01*
X0052531Y0081726D02*
X0066600Y0081726D01*
X0069357Y0076930D02*
X0082200Y0076930D01*
X0082220Y0075332D02*
X0070481Y0075332D01*
X0064243Y0067339D02*
X0025450Y0067339D01*
X0012834Y0060945D02*
X0003600Y0060945D01*
X0003600Y0059346D02*
X0011235Y0059346D01*
X0009637Y0057748D02*
X0003600Y0057748D01*
X0003600Y0056149D02*
X0003973Y0056149D01*
X0006600Y0062543D02*
X0007000Y0062543D01*
X0007000Y0064142D02*
X0006600Y0064142D01*
X0006600Y0065740D02*
X0007000Y0065740D01*
X0035191Y0044960D02*
X0051849Y0044960D01*
X0050250Y0043361D02*
X0036790Y0043361D01*
X0036911Y0043240D02*
X0036911Y0043240D01*
X0053300Y0040164D02*
X0062400Y0040164D01*
X0062400Y0041763D02*
X0054874Y0041763D01*
X0056473Y0043361D02*
X0062400Y0043361D01*
X0063737Y0044960D02*
X0058071Y0044960D01*
X0069863Y0044960D02*
X0070529Y0044960D01*
X0086800Y0056800D02*
X0091800Y0056800D01*
X0101800Y0046800D01*
X0091908Y0035369D02*
X0091186Y0035369D01*
X0118234Y0020982D02*
X0123204Y0020982D01*
X0121944Y0019384D02*
X0119832Y0019384D01*
X0123201Y0009793D02*
X0011489Y0009793D01*
X0010407Y0008194D02*
X0176122Y0008194D01*
X0175305Y0009793D02*
X0161603Y0009793D01*
X0163202Y0011391D02*
X0174790Y0011391D01*
X0174790Y0012990D02*
X0164800Y0012990D01*
X0166399Y0014588D02*
X0175106Y0014588D01*
X0175768Y0016187D02*
X0167997Y0016187D01*
X0169596Y0017785D02*
X0177241Y0017785D01*
X0153800Y0066800D02*
X0116800Y0066800D01*
X0141800Y0072134D02*
X0141800Y0072134D01*
X0141800Y0073733D02*
X0141800Y0073733D01*
X0141800Y0075332D02*
X0141800Y0075332D01*
X0144491Y0075332D02*
X0159220Y0075332D01*
X0157622Y0073733D02*
X0146090Y0073733D01*
X0146200Y0072134D02*
X0156023Y0072134D01*
X0154425Y0070536D02*
X0146200Y0070536D01*
X0167400Y0102506D02*
X0118454Y0102506D01*
X0119792Y0123287D02*
X0184202Y0123287D01*
X0185800Y0121688D02*
X0008325Y0121688D01*
X0010499Y0123287D02*
X0083808Y0123287D01*
X0084194Y0122900D02*
X0085885Y0122200D01*
X0087715Y0122200D01*
X0089406Y0122900D01*
X0090700Y0124194D01*
X0091400Y0125885D01*
X0091400Y0127715D01*
X0090700Y0129406D01*
X0089406Y0130700D01*
X0087715Y0131400D01*
X0085885Y0131400D01*
X0084194Y0130700D01*
X0082900Y0129406D01*
X0082200Y0127715D01*
X0082200Y0125885D01*
X0082900Y0124194D01*
X0084194Y0122900D01*
X0082614Y0124885D02*
X0067997Y0124885D01*
X0066800Y0126800D02*
X0086800Y0146800D01*
X0090924Y0148863D02*
X0101092Y0148863D01*
X0102508Y0148863D02*
X0112676Y0148863D01*
X0112200Y0147265D02*
X0091400Y0147265D01*
X0091309Y0145666D02*
X0112291Y0145666D01*
X0113027Y0144068D02*
X0090573Y0144068D01*
X0089406Y0140700D02*
X0087715Y0141400D01*
X0085885Y0141400D01*
X0084194Y0140700D01*
X0082900Y0139406D01*
X0082200Y0137715D01*
X0082200Y0135885D01*
X0082900Y0134194D01*
X0084194Y0132900D01*
X0085885Y0132200D01*
X0087715Y0132200D01*
X0089406Y0132900D01*
X0090700Y0134194D01*
X0091400Y0135885D01*
X0091400Y0137715D01*
X0090700Y0139406D01*
X0089406Y0140700D01*
X0088993Y0140870D02*
X0114607Y0140870D01*
X0115236Y0142469D02*
X0088364Y0142469D01*
X0084607Y0140870D02*
X0083982Y0140870D01*
X0082845Y0139272D02*
X0082383Y0139272D01*
X0082200Y0137673D02*
X0080785Y0137673D01*
X0082200Y0136075D02*
X0079186Y0136075D01*
X0077588Y0134476D02*
X0082783Y0134476D01*
X0084248Y0132878D02*
X0075989Y0132878D01*
X0074391Y0131279D02*
X0085594Y0131279D01*
X0088006Y0131279D02*
X0115594Y0131279D01*
X0114248Y0132878D02*
X0089352Y0132878D01*
X0090817Y0134476D02*
X0112783Y0134476D01*
X0112200Y0136075D02*
X0091400Y0136075D01*
X0091400Y0137673D02*
X0112200Y0137673D01*
X0112845Y0139272D02*
X0090755Y0139272D01*
X0090424Y0129681D02*
X0113176Y0129681D01*
X0112352Y0128082D02*
X0091248Y0128082D01*
X0091400Y0126484D02*
X0112200Y0126484D01*
X0112614Y0124885D02*
X0090986Y0124885D01*
X0089792Y0123287D02*
X0113808Y0123287D01*
X0116800Y0126800D02*
X0183800Y0126800D01*
X0193800Y0116800D01*
X0189150Y0108900D02*
X0145357Y0108900D01*
X0145800Y0107302D02*
X0168579Y0107302D01*
X0167400Y0105703D02*
X0145800Y0105703D01*
X0144762Y0104105D02*
X0167400Y0104105D01*
X0193800Y0126800D02*
X0183800Y0136800D01*
X0116800Y0136800D01*
X0118993Y0140870D02*
X0137400Y0140870D01*
X0137400Y0142469D02*
X0118364Y0142469D01*
X0120573Y0144068D02*
X0137845Y0144068D01*
X0138105Y0139272D02*
X0120755Y0139272D01*
X0120817Y0134476D02*
X0138820Y0134476D01*
X0137800Y0132878D02*
X0119352Y0132878D01*
X0118006Y0131279D02*
X0137800Y0131279D01*
X0138262Y0129681D02*
X0120424Y0129681D01*
X0116800Y0146800D02*
X0168360Y0146800D01*
X0170060Y0148500D01*
X0182100Y0148500D01*
X0193800Y0136800D01*
X0189242Y0134476D02*
X0189235Y0134476D01*
X0188700Y0136075D02*
X0187636Y0136075D01*
X0188700Y0137673D02*
X0186038Y0137673D01*
X0188217Y0139272D02*
X0145494Y0139272D01*
X0146200Y0140870D02*
X0169573Y0140870D01*
X0167974Y0142469D02*
X0146200Y0142469D01*
X0145755Y0144068D02*
X0167800Y0144068D01*
X0168911Y0150462D02*
X0119644Y0150462D01*
X0118719Y0152166D02*
X0117971Y0151923D01*
X0117194Y0151800D01*
X0116800Y0151800D01*
X0116800Y0156800D01*
X0121800Y0156800D01*
X0121800Y0157194D01*
X0121677Y0157971D01*
X0121434Y0158719D01*
X0121076Y0159421D01*
X0120614Y0160057D01*
X0120057Y0160614D01*
X0119421Y0161076D01*
X0118719Y0161434D01*
X0117971Y0161677D01*
X0117194Y0161800D01*
X0116800Y0161800D01*
X0116800Y0156800D01*
X0116800Y0156800D01*
X0116800Y0156800D01*
X0121800Y0156800D01*
X0121800Y0156406D01*
X0121677Y0155629D01*
X0121434Y0154881D01*
X0121076Y0154179D01*
X0120614Y0153543D01*
X0120057Y0152986D01*
X0119421Y0152524D01*
X0118719Y0152166D01*
X0118392Y0152060D02*
X0196850Y0152060D01*
X0196850Y0150462D02*
X0183250Y0150462D01*
X0184848Y0148863D02*
X0196850Y0148863D01*
X0196850Y0147265D02*
X0186447Y0147265D01*
X0188045Y0145666D02*
X0196850Y0145666D01*
X0196850Y0144068D02*
X0189644Y0144068D01*
X0191242Y0142469D02*
X0196850Y0142469D01*
X0186618Y0140870D02*
X0174027Y0140870D01*
X0175626Y0142469D02*
X0185020Y0142469D01*
X0183421Y0144068D02*
X0175800Y0144068D01*
X0175800Y0145666D02*
X0181823Y0145666D01*
X0178457Y0157800D02*
X0175143Y0157800D01*
X0172800Y0160143D01*
X0172800Y0163457D01*
X0175143Y0165800D01*
X0178457Y0165800D01*
X0180800Y0163457D01*
X0180800Y0160143D01*
X0178457Y0157800D01*
X0179111Y0158454D02*
X0196850Y0158454D01*
X0196850Y0156856D02*
X0164967Y0156856D01*
X0165911Y0157800D02*
X0168457Y0157800D01*
X0170800Y0160143D01*
X0170800Y0163457D01*
X0168457Y0165800D01*
X0165143Y0165800D01*
X0162800Y0163457D01*
X0162800Y0160911D01*
X0160889Y0159000D01*
X0145257Y0159000D01*
X0143457Y0160800D01*
X0140911Y0160800D01*
X0132711Y0169000D01*
X0120868Y0169000D01*
X0120700Y0169406D01*
X0119406Y0170700D01*
X0117715Y0171400D01*
X0115885Y0171400D01*
X0114194Y0170700D01*
X0112900Y0169406D01*
X0112200Y0167715D01*
X0112200Y0165885D01*
X0112900Y0164194D01*
X0114194Y0162900D01*
X0115885Y0162200D01*
X0117715Y0162200D01*
X0119406Y0162900D01*
X0120700Y0164194D01*
X0120868Y0164600D01*
X0130889Y0164600D01*
X0137800Y0157689D01*
X0137800Y0155143D01*
X0140143Y0152800D01*
X0143457Y0152800D01*
X0145257Y0154600D01*
X0162711Y0154600D01*
X0165911Y0157800D01*
X0163368Y0155257D02*
X0196850Y0155257D01*
X0196850Y0153659D02*
X0144315Y0153659D01*
X0141800Y0156800D02*
X0161800Y0156800D01*
X0166800Y0161800D01*
X0164191Y0164848D02*
X0146071Y0164848D01*
X0146200Y0164977D02*
X0143623Y0162400D01*
X0141800Y0162400D01*
X0141800Y0166800D01*
X0141800Y0166800D01*
X0141800Y0171200D01*
X0143623Y0171200D01*
X0146200Y0168623D01*
X0146200Y0166800D01*
X0141800Y0166800D01*
X0141800Y0166800D01*
X0141800Y0166800D01*
X0137400Y0166800D01*
X0137400Y0168623D01*
X0139977Y0171200D01*
X0141800Y0171200D01*
X0141800Y0166800D01*
X0146200Y0166800D01*
X0146200Y0164977D01*
X0146200Y0166447D02*
X0196850Y0166447D01*
X0196850Y0168045D02*
X0146200Y0168045D01*
X0145179Y0169644D02*
X0196850Y0169644D01*
X0196850Y0171242D02*
X0118096Y0171242D01*
X0115504Y0171242D02*
X0094784Y0171242D01*
X0094784Y0171206D02*
X0094784Y0172394D01*
X0094330Y0173490D01*
X0093490Y0174330D01*
X0092394Y0174784D01*
X0091206Y0174784D01*
X0090110Y0174330D01*
X0089780Y0174000D01*
X0025889Y0174000D01*
X0021673Y0169784D01*
X0021206Y0169784D01*
X0020110Y0169330D01*
X0019270Y0168490D01*
X0018816Y0167394D01*
X0018816Y0166206D01*
X0019270Y0165110D01*
X0020110Y0164270D01*
X0021206Y0163816D01*
X0022394Y0163816D01*
X0023490Y0164270D01*
X0024330Y0165110D01*
X0024784Y0166206D01*
X0024784Y0166673D01*
X0027711Y0169600D01*
X0083095Y0169600D01*
X0082900Y0169406D01*
X0082200Y0167715D01*
X0082200Y0165885D01*
X0082900Y0164194D01*
X0084194Y0162900D01*
X0085885Y0162200D01*
X0087715Y0162200D01*
X0089406Y0162900D01*
X0090700Y0164194D01*
X0091400Y0165885D01*
X0091400Y0167715D01*
X0090890Y0168947D01*
X0091206Y0168816D01*
X0092394Y0168816D01*
X0093490Y0169270D01*
X0094330Y0170110D01*
X0094784Y0171206D01*
X0094599Y0172841D02*
X0196850Y0172841D01*
X0196850Y0174439D02*
X0093227Y0174439D01*
X0091800Y0171800D02*
X0026800Y0171800D01*
X0021800Y0166800D01*
X0019086Y0168045D02*
X0003600Y0168045D01*
X0003600Y0166447D02*
X0018816Y0166447D01*
X0019531Y0164848D02*
X0003600Y0164848D01*
X0003600Y0163250D02*
X0083845Y0163250D01*
X0082629Y0164848D02*
X0024069Y0164848D01*
X0024784Y0166447D02*
X0082200Y0166447D01*
X0082337Y0168045D02*
X0026156Y0168045D01*
X0023131Y0171242D02*
X0003600Y0171242D01*
X0003600Y0169644D02*
X0020867Y0169644D01*
X0024729Y0172841D02*
X0003600Y0172841D01*
X0003600Y0174439D02*
X0090373Y0174439D01*
X0088623Y0177400D02*
X0086800Y0177400D01*
X0086800Y0181800D01*
X0086800Y0181800D01*
X0091200Y0181800D01*
X0091200Y0179977D01*
X0088623Y0177400D01*
X0088859Y0177636D02*
X0196850Y0177636D01*
X0196850Y0176038D02*
X0003600Y0176038D01*
X0003600Y0177636D02*
X0084741Y0177636D01*
X0084977Y0177400D02*
X0086800Y0177400D01*
X0086800Y0181800D01*
X0086800Y0181800D01*
X0086800Y0181800D01*
X0082400Y0181800D01*
X0082400Y0179977D01*
X0084977Y0177400D01*
X0086800Y0177636D02*
X0086800Y0177636D01*
X0086800Y0179235D02*
X0086800Y0179235D01*
X0086800Y0180833D02*
X0086800Y0180833D01*
X0090457Y0179235D02*
X0196850Y0179235D01*
X0196850Y0180833D02*
X0091200Y0180833D01*
X0091200Y0182432D02*
X0104946Y0182432D01*
X0104977Y0182400D02*
X0106800Y0182400D01*
X0108623Y0182400D01*
X0111200Y0184977D01*
X0111200Y0186800D01*
X0106800Y0186800D01*
X0106800Y0186800D01*
X0106800Y0182400D01*
X0106800Y0186800D01*
X0106800Y0186800D01*
X0106800Y0186800D01*
X0102400Y0186800D01*
X0102400Y0184977D01*
X0104977Y0182400D01*
X0106800Y0182432D02*
X0106800Y0182432D01*
X0106800Y0184030D02*
X0106800Y0184030D01*
X0106800Y0185629D02*
X0106800Y0185629D01*
X0110253Y0184030D02*
X0113913Y0184030D01*
X0112800Y0185143D02*
X0115143Y0182800D01*
X0118457Y0182800D01*
X0120257Y0184600D01*
X0127137Y0184600D01*
X0127434Y0183883D01*
X0128883Y0182434D01*
X0130776Y0181650D01*
X0132824Y0181650D01*
X0134717Y0182434D01*
X0136166Y0183883D01*
X0136950Y0185776D01*
X0136950Y0187824D01*
X0136166Y0189717D01*
X0134717Y0191166D01*
X0132824Y0191950D01*
X0130776Y0191950D01*
X0128883Y0191166D01*
X0127434Y0189717D01*
X0127137Y0189000D01*
X0120257Y0189000D01*
X0118457Y0190800D01*
X0115143Y0190800D01*
X0112800Y0188457D01*
X0112800Y0185143D01*
X0112800Y0185629D02*
X0111200Y0185629D01*
X0111200Y0187227D02*
X0112800Y0187227D01*
X0113169Y0188826D02*
X0110997Y0188826D01*
X0110019Y0190424D02*
X0109398Y0190424D01*
X0110761Y0193850D02*
X0111800Y0193850D01*
X0110761Y0193850D02*
X0105060Y0191000D01*
X0104921Y0190860D01*
X0096800Y0186800D01*
X0086800Y0186800D01*
X0086800Y0191800D01*
X0089037Y0195220D02*
X0107800Y0195220D01*
X0108662Y0196818D02*
X0003600Y0196818D01*
X0003600Y0195220D02*
X0084563Y0195220D01*
X0082965Y0193621D02*
X0003600Y0193621D01*
X0003600Y0192023D02*
X0082800Y0192023D01*
X0082800Y0190424D02*
X0055102Y0190424D01*
X0056437Y0188826D02*
X0057923Y0188826D01*
X0059009Y0186800D02*
X0054440Y0182231D01*
X0043338Y0182231D01*
X0038770Y0186800D01*
X0036800Y0186800D01*
X0033948Y0184030D02*
X0031777Y0184030D01*
X0032743Y0185629D02*
X0032983Y0185629D01*
X0033337Y0188826D02*
X0032389Y0188826D01*
X0030563Y0190424D02*
X0035163Y0190424D01*
X0038437Y0190424D02*
X0042220Y0190424D01*
X0040796Y0188826D02*
X0040263Y0188826D01*
X0044674Y0188826D02*
X0044674Y0188826D01*
X0044674Y0190424D02*
X0044674Y0190424D01*
X0044674Y0191175D02*
X0044674Y0186800D01*
X0044674Y0186800D01*
X0044674Y0191175D01*
X0047128Y0190424D02*
X0049994Y0190424D01*
X0048659Y0188826D02*
X0048552Y0188826D01*
X0044674Y0187227D02*
X0044674Y0187227D01*
X0040027Y0182432D02*
X0021922Y0182432D01*
X0020182Y0182432D02*
X0003600Y0182432D01*
X0003600Y0184030D02*
X0017644Y0184030D01*
X0016809Y0185629D02*
X0003600Y0185629D01*
X0003600Y0187227D02*
X0016683Y0187227D01*
X0017163Y0188826D02*
X0003600Y0188826D01*
X0003600Y0190424D02*
X0018498Y0190424D01*
X0023606Y0190424D02*
X0027289Y0190424D01*
X0025463Y0188826D02*
X0024941Y0188826D01*
X0024460Y0184030D02*
X0026074Y0184030D01*
X0041625Y0180833D02*
X0003600Y0180833D01*
X0003600Y0179235D02*
X0083143Y0179235D01*
X0082400Y0180833D02*
X0056153Y0180833D01*
X0057752Y0182432D02*
X0082400Y0182432D01*
X0082808Y0184030D02*
X0059350Y0184030D01*
X0059009Y0186800D02*
X0086800Y0186800D01*
X0090792Y0184030D02*
X0103347Y0184030D01*
X0102400Y0185629D02*
X0099377Y0185629D01*
X0099129Y0190424D02*
X0090800Y0190424D01*
X0090800Y0192023D02*
X0102326Y0192023D01*
X0105384Y0193621D02*
X0090635Y0193621D01*
X0108654Y0182432D02*
X0128888Y0182432D01*
X0127373Y0184030D02*
X0119687Y0184030D01*
X0116800Y0186800D02*
X0131800Y0186800D01*
X0135459Y0190424D02*
X0147575Y0190424D01*
X0146250Y0189099D02*
X0146250Y0186800D01*
X0151800Y0186800D01*
X0157350Y0186800D01*
X0157350Y0189099D01*
X0154099Y0192350D01*
X0151800Y0192350D01*
X0151800Y0186800D01*
X0151800Y0186800D01*
X0151800Y0186800D01*
X0157350Y0186800D01*
X0157350Y0184501D01*
X0154099Y0181250D01*
X0151800Y0181250D01*
X0151800Y0186800D01*
X0151800Y0186800D01*
X0151800Y0186800D01*
X0151800Y0192350D01*
X0149501Y0192350D01*
X0146250Y0189099D01*
X0146250Y0188826D02*
X0136535Y0188826D01*
X0136950Y0187227D02*
X0146250Y0187227D01*
X0146250Y0186800D02*
X0146250Y0184501D01*
X0149501Y0181250D01*
X0151800Y0181250D01*
X0151800Y0186800D01*
X0146250Y0186800D01*
X0146250Y0185629D02*
X0136889Y0185629D01*
X0136227Y0184030D02*
X0146721Y0184030D01*
X0148319Y0182432D02*
X0134712Y0182432D01*
X0128141Y0190424D02*
X0118832Y0190424D01*
X0115180Y0192023D02*
X0149174Y0192023D01*
X0151800Y0192023D02*
X0151800Y0192023D01*
X0151800Y0190424D02*
X0151800Y0190424D01*
X0151800Y0188826D02*
X0151800Y0188826D01*
X0151800Y0187227D02*
X0151800Y0187227D01*
X0151800Y0185629D02*
X0151800Y0185629D01*
X0151800Y0184030D02*
X0151800Y0184030D01*
X0151800Y0182432D02*
X0151800Y0182432D01*
X0155281Y0182432D02*
X0196850Y0182432D01*
X0196850Y0184030D02*
X0156879Y0184030D01*
X0157350Y0185629D02*
X0196850Y0185629D01*
X0196850Y0187227D02*
X0157350Y0187227D01*
X0157350Y0188826D02*
X0196850Y0188826D01*
X0196850Y0190424D02*
X0156025Y0190424D01*
X0154426Y0192023D02*
X0196850Y0192023D01*
X0196850Y0193621D02*
X0115800Y0193621D01*
X0115800Y0195220D02*
X0196850Y0195220D01*
X0196850Y0196818D02*
X0114938Y0196818D01*
X0114767Y0190424D02*
X0113581Y0190424D01*
X0113138Y0169644D02*
X0093864Y0169644D01*
X0091263Y0168045D02*
X0112337Y0168045D01*
X0112200Y0166447D02*
X0091400Y0166447D01*
X0090971Y0164848D02*
X0112629Y0164848D01*
X0113845Y0163250D02*
X0089755Y0163250D01*
X0090053Y0160053D02*
X0112983Y0160053D01*
X0112986Y0160057D02*
X0112524Y0159421D01*
X0112166Y0158719D01*
X0111923Y0157971D01*
X0111800Y0157194D01*
X0111800Y0156800D01*
X0116800Y0156800D01*
X0116800Y0156800D01*
X0116800Y0156800D01*
X0116800Y0161800D01*
X0116406Y0161800D01*
X0115629Y0161677D01*
X0114881Y0161434D01*
X0114179Y0161076D01*
X0113543Y0160614D01*
X0112986Y0160057D01*
X0112080Y0158454D02*
X0091094Y0158454D01*
X0091400Y0156856D02*
X0111800Y0156856D01*
X0111800Y0156800D02*
X0111800Y0156406D01*
X0111923Y0155629D01*
X0112166Y0154881D01*
X0112524Y0154179D01*
X0112986Y0153543D01*
X0113543Y0152986D01*
X0114179Y0152524D01*
X0114881Y0152166D01*
X0115629Y0151923D01*
X0116406Y0151800D01*
X0116800Y0151800D01*
X0116800Y0156800D01*
X0111800Y0156800D01*
X0112044Y0155257D02*
X0091140Y0155257D01*
X0086800Y0156800D02*
X0026800Y0156800D01*
X0006800Y0136800D01*
X0003658Y0140870D02*
X0003600Y0140870D01*
X0003600Y0142469D02*
X0009358Y0142469D01*
X0010956Y0144068D02*
X0003600Y0144068D01*
X0003600Y0145666D02*
X0012555Y0145666D01*
X0014153Y0147265D02*
X0003600Y0147265D01*
X0003600Y0148863D02*
X0015752Y0148863D01*
X0017350Y0150462D02*
X0003600Y0150462D01*
X0003600Y0152060D02*
X0018949Y0152060D01*
X0020547Y0153659D02*
X0003600Y0153659D01*
X0003600Y0155257D02*
X0022146Y0155257D01*
X0023744Y0156856D02*
X0003600Y0156856D01*
X0003600Y0158454D02*
X0025343Y0158454D01*
X0031800Y0151800D02*
X0101800Y0151800D01*
X0104476Y0150462D02*
X0113956Y0150462D01*
X0115208Y0152060D02*
X0104784Y0152060D01*
X0104162Y0153659D02*
X0112902Y0153659D01*
X0116800Y0153659D02*
X0116800Y0153659D01*
X0116800Y0155257D02*
X0116800Y0155257D01*
X0116800Y0156856D02*
X0116800Y0156856D01*
X0116800Y0158454D02*
X0116800Y0158454D01*
X0116800Y0160053D02*
X0116800Y0160053D01*
X0116800Y0161651D02*
X0116800Y0161651D01*
X0118050Y0161651D02*
X0133838Y0161651D01*
X0135436Y0160053D02*
X0120617Y0160053D01*
X0121520Y0158454D02*
X0137035Y0158454D01*
X0137800Y0156856D02*
X0121800Y0156856D01*
X0121556Y0155257D02*
X0137800Y0155257D01*
X0139285Y0153659D02*
X0120698Y0153659D01*
X0116800Y0152060D02*
X0116800Y0152060D01*
X0115550Y0161651D02*
X0003600Y0161651D01*
X0003600Y0160053D02*
X0083547Y0160053D01*
X0083176Y0129681D02*
X0072792Y0129681D01*
X0071194Y0128082D02*
X0082352Y0128082D01*
X0082200Y0126484D02*
X0069595Y0126484D01*
X0066800Y0126800D02*
X0006800Y0126800D01*
X0010723Y0120090D02*
X0083584Y0120090D01*
X0051800Y0131800D02*
X0031800Y0131800D01*
X0116800Y0166800D02*
X0131800Y0166800D01*
X0141800Y0156800D01*
X0144204Y0160053D02*
X0161941Y0160053D01*
X0162800Y0161651D02*
X0140060Y0161651D01*
X0139977Y0162400D02*
X0137400Y0164977D01*
X0137400Y0166800D01*
X0141800Y0166800D01*
X0141800Y0166800D01*
X0141800Y0162400D01*
X0139977Y0162400D01*
X0139128Y0163250D02*
X0138462Y0163250D01*
X0137529Y0164848D02*
X0136863Y0164848D01*
X0137400Y0166447D02*
X0135265Y0166447D01*
X0133666Y0168045D02*
X0137400Y0168045D01*
X0138421Y0169644D02*
X0120462Y0169644D01*
X0119755Y0163250D02*
X0132239Y0163250D01*
X0141800Y0163250D02*
X0141800Y0163250D01*
X0141800Y0164848D02*
X0141800Y0164848D01*
X0141800Y0166447D02*
X0141800Y0166447D01*
X0141800Y0168045D02*
X0141800Y0168045D01*
X0141800Y0169644D02*
X0141800Y0169644D01*
X0144472Y0163250D02*
X0162800Y0163250D01*
X0169409Y0164848D02*
X0174191Y0164848D01*
X0172800Y0163250D02*
X0170800Y0163250D01*
X0170800Y0161651D02*
X0172800Y0161651D01*
X0172891Y0160053D02*
X0170709Y0160053D01*
X0169111Y0158454D02*
X0174489Y0158454D01*
X0180709Y0160053D02*
X0196850Y0160053D01*
X0196850Y0161651D02*
X0180800Y0161651D01*
X0180800Y0163250D02*
X0196850Y0163250D01*
X0196850Y0164848D02*
X0179409Y0164848D01*
X0037000Y0020982D02*
X0036600Y0020982D01*
X0036600Y0019384D02*
X0037000Y0019384D01*
X0037000Y0017785D02*
X0036600Y0017785D01*
X0036600Y0016187D02*
X0037000Y0016187D01*
X0037000Y0014588D02*
X0036600Y0014588D01*
X0036600Y0012990D02*
X0037000Y0012990D01*
D20*
X0031800Y0026800D03*
X0041800Y0036800D03*
X0036800Y0071800D03*
X0026800Y0086800D03*
X0046800Y0086800D03*
X0046800Y0096800D03*
X0071800Y0101800D03*
X0051800Y0131800D03*
X0031800Y0131800D03*
X0031800Y0151800D03*
X0021800Y0166800D03*
X0091800Y0171800D03*
X0101800Y0151800D03*
X0101800Y0046800D03*
X0086800Y0026800D03*
X0126800Y0031800D03*
X0131800Y0031800D03*
M02*
