%
M48
M72
T01C0.01969
T02C0.03150
T03C0.03200
T04C0.03937
T05C0.04000
T06C0.07480
%
T01
X31800Y26800
X41800Y36800
X36800Y71800
X26800Y86800
X46800Y86800
X46800Y96800
X71800Y101800
X51800Y131800
X31800Y131800
X31800Y151800
X21800Y166800
X91800Y171800
X101800Y151800
X101800Y46800
X86800Y26800
X126800Y31800
X131800Y31800
T02
X161721Y20501
X166446Y23650
X161721Y26800
X166446Y29950
X161721Y33099
X44674Y186800
X36800Y186800
X28926Y186800
T03
X86800Y191800
X86800Y181800
X86800Y166800
X86800Y156800
X86800Y146800
X86800Y136800
X86800Y126800
X86800Y116800
X86800Y106800
X86800Y96800
X86800Y86800
X86800Y76800
X86800Y66800
X86800Y56800
X86800Y46800
X86800Y36800
X66800Y41800
X66800Y51800
X49300Y39300
X31800Y39300
X31800Y79300
X49300Y79300
X96800Y16800
X106800Y16800
X116800Y36800
X116800Y46800
X116800Y56800
X116800Y66800
X116800Y76800
X116800Y86800
X116800Y96800
X116800Y106800
X116800Y116800
X116800Y126800
X116800Y136800
X116800Y146800
X116800Y156800
X116800Y166800
X116800Y186800
X111800Y194300
X106800Y186800
X131800Y186800
X151800Y186800
X141800Y166800
X141800Y156800
X141800Y141800
X141800Y131800
X141800Y116800
X141800Y106800
X131800Y86800
X141800Y71800
X151800Y86800
X171800Y104300
X171800Y144300
X166800Y161800
X176800Y161800
X141800Y31800
T04
X21052Y186800
X52548Y186800
T05
X6800Y136800
X6800Y126800
X6800Y116800
X6800Y106800
X6800Y96800
X6800Y86800
X6800Y76800
X6800Y66800
X6800Y51800
X6800Y41800
X6800Y31800
X6800Y21800
X6800Y11800
X36800Y16800
X56800Y16800
X66800Y71800
X66800Y81800
X66800Y91800
X126800Y16800
X146800Y16800
X193800Y66800
X193800Y76800
X193800Y86800
X193800Y96800
X193800Y106800
X193800Y116800
X193800Y126800
X193800Y136800
T06
X181800Y41170
X181800Y12430
M30
