G75*
%MOIN*%
%OFA0B0*%
%FSLAX25Y25*%
%IPPOS*%
%LPD*%
%AMOC8*
5,1,8,0,0,1.08239X$1,22.5*
%
%ADD10C,0.00000*%
%ADD11C,0.07400*%
%ADD12C,0.07500*%
%ADD13OC8,0.07500*%
%ADD14OC8,0.05200*%
%ADD15C,0.05937*%
%ADD16C,0.05150*%
%ADD17C,0.06400*%
%ADD18C,0.11220*%
%ADD19C,0.03169*%
%ADD20C,0.01600*%
D10*
X0001800Y0001800D02*
X0001800Y0198650D01*
X0198650Y0198650D01*
X0198650Y0001800D01*
X0001800Y0001800D01*
D11*
X0006800Y0011800D03*
X0006800Y0021800D03*
X0006800Y0031800D03*
X0006800Y0041800D03*
X0006800Y0051800D03*
X0006800Y0066800D03*
X0006800Y0076800D03*
X0006800Y0086800D03*
X0006800Y0096800D03*
X0006800Y0106800D03*
X0006800Y0116800D03*
X0006800Y0126800D03*
X0006800Y0136800D03*
X0066800Y0091800D03*
X0066800Y0081800D03*
X0066800Y0071800D03*
X0056800Y0016800D03*
X0036800Y0016800D03*
X0126800Y0016800D03*
X0146800Y0016800D03*
X0193800Y0066800D03*
X0193800Y0076800D03*
X0193800Y0086800D03*
X0193800Y0096800D03*
X0193800Y0106800D03*
X0193800Y0116800D03*
X0193800Y0126800D03*
X0193800Y0136800D03*
D12*
X0131800Y0086800D03*
X0131800Y0186800D03*
D13*
X0151800Y0186800D03*
X0151800Y0086800D03*
D14*
X0141800Y0071800D03*
X0171800Y0104300D03*
X0141800Y0106800D03*
X0141800Y0116800D03*
X0141800Y0131800D03*
X0141800Y0141800D03*
X0141800Y0156800D03*
X0141800Y0166800D03*
X0166800Y0161800D03*
X0176800Y0161800D03*
X0171800Y0144300D03*
X0116800Y0186800D03*
X0111800Y0194300D03*
X0106800Y0186800D03*
X0086800Y0181800D03*
X0086800Y0191800D03*
X0049300Y0079300D03*
X0031800Y0079300D03*
X0066800Y0051800D03*
X0066800Y0041800D03*
X0049300Y0039300D03*
X0031800Y0039300D03*
X0096800Y0016800D03*
X0106800Y0016800D03*
X0141800Y0031800D03*
D15*
X0052548Y0186800D03*
X0021052Y0186800D03*
D16*
X0028926Y0186800D03*
X0036800Y0186800D03*
X0044674Y0186800D03*
X0161721Y0033099D03*
X0166446Y0029950D03*
X0161721Y0026800D03*
X0166446Y0023650D03*
X0161721Y0020501D03*
D17*
X0116800Y0036800D03*
X0116800Y0046800D03*
X0116800Y0056800D03*
X0116800Y0066800D03*
X0116800Y0076800D03*
X0116800Y0086800D03*
X0116800Y0096800D03*
X0116800Y0106800D03*
X0116800Y0116800D03*
X0116800Y0126800D03*
X0116800Y0136800D03*
X0116800Y0146800D03*
X0116800Y0156800D03*
X0116800Y0166800D03*
X0086800Y0166800D03*
X0086800Y0156800D03*
X0086800Y0146800D03*
X0086800Y0136800D03*
X0086800Y0126800D03*
X0086800Y0116800D03*
X0086800Y0106800D03*
X0086800Y0096800D03*
X0086800Y0086800D03*
X0086800Y0076800D03*
X0086800Y0066800D03*
X0086800Y0056800D03*
X0086800Y0046800D03*
X0086800Y0036800D03*
D18*
X0181800Y0041170D03*
X0181800Y0012430D03*
D19*
X0131800Y0031800D03*
X0126800Y0031800D03*
X0101800Y0046800D03*
X0086800Y0026800D03*
X0041800Y0036800D03*
X0031800Y0026800D03*
X0036800Y0071800D03*
X0026800Y0086800D03*
X0046800Y0086800D03*
X0046800Y0096800D03*
X0071800Y0101800D03*
X0051800Y0131800D03*
X0031800Y0131800D03*
X0031800Y0151800D03*
X0021800Y0166800D03*
X0091800Y0171800D03*
X0101800Y0151800D03*
D20*
X0101800Y0131800D01*
X0116800Y0116800D01*
X0116800Y0106800D02*
X0116800Y0103588D01*
X0121600Y0098788D01*
X0121600Y0080699D01*
X0170620Y0031679D01*
X0170620Y0028220D01*
X0166446Y0024046D01*
X0166446Y0023650D01*
X0161721Y0026800D02*
X0121600Y0066921D01*
X0121600Y0068788D01*
X0118788Y0071600D01*
X0115212Y0071600D01*
X0112000Y0074812D01*
X0112000Y0088788D01*
X0116800Y0093588D01*
X0116800Y0096800D01*
X0094000Y0086388D02*
X0091800Y0088588D01*
X0091800Y0171800D01*
X0086800Y0166800D02*
X0051800Y0131800D01*
X0031800Y0131800D02*
X0031800Y0079300D01*
X0036800Y0071800D02*
X0036800Y0038360D01*
X0033540Y0035100D01*
X0030100Y0035100D01*
X0006800Y0011800D01*
X0006800Y0021800D02*
X0026800Y0041800D01*
X0026800Y0086800D01*
X0028816Y0098816D02*
X0028816Y0133036D01*
X0031800Y0136020D01*
X0031800Y0151800D01*
X0021800Y0166800D02*
X0021800Y0101800D01*
X0006800Y0086800D01*
X0006800Y0076800D02*
X0028816Y0098816D01*
X0046800Y0096800D02*
X0086800Y0136800D01*
X0086800Y0126800D02*
X0046800Y0086800D01*
X0049300Y0079300D02*
X0066800Y0061800D01*
X0066800Y0051800D01*
X0051143Y0046800D02*
X0044784Y0040441D01*
X0044784Y0035564D01*
X0043036Y0033816D01*
X0038816Y0033816D01*
X0031800Y0026800D01*
X0041800Y0036800D02*
X0041800Y0173926D01*
X0028926Y0186800D01*
X0101800Y0151800D02*
X0116800Y0166800D01*
X0116800Y0186800D01*
X0131800Y0186800D02*
X0131800Y0141800D01*
X0141800Y0131800D01*
X0171800Y0144300D02*
X0176800Y0149300D01*
X0176800Y0161800D01*
X0101800Y0131800D02*
X0101800Y0061800D01*
X0086800Y0046800D01*
X0051143Y0046800D01*
X0086800Y0036800D02*
X0086800Y0026800D01*
X0096800Y0016800D02*
X0101800Y0021800D01*
X0101800Y0046800D01*
X0086800Y0056800D02*
X0086800Y0060012D01*
X0094000Y0067212D01*
X0094000Y0086388D01*
X0088388Y0082000D02*
X0084812Y0082000D01*
X0082000Y0084812D01*
X0082000Y0091600D01*
X0071800Y0101800D01*
X0088388Y0082000D02*
X0091600Y0078788D01*
X0091600Y0074812D01*
X0086800Y0070012D01*
X0086800Y0066800D01*
X0126800Y0031800D02*
X0111800Y0016800D01*
X0106800Y0016800D01*
X0131800Y0031800D02*
X0146800Y0016800D01*
M02*
