G75*
%MOIN*%
%OFA0B0*%
%FSLAX25Y25*%
%IPPOS*%
%LPD*%
%AMOC8*
5,1,8,0,0,1.08239X$1,22.5*
%
%ADD10C,0.00000*%
%ADD11C,0.00300*%
%ADD12R,0.01680X0.00040*%
%ADD13R,0.01720X0.00040*%
%ADD14R,0.01760X0.00040*%
%ADD15R,0.01800X0.00040*%
%ADD16R,0.08640X0.00040*%
%ADD17R,0.08640X0.00040*%
%ADD18R,0.01840X0.00040*%
%ADD19R,0.01880X0.00040*%
%ADD20R,0.01920X0.00040*%
%ADD21R,0.01960X0.00040*%
%ADD22R,0.02000X0.00040*%
%ADD23R,0.02000X0.00040*%
%ADD24R,0.02040X0.00040*%
%ADD25R,0.02080X0.00040*%
%ADD26R,0.02120X0.00040*%
%ADD27R,0.02160X0.00040*%
%ADD28R,0.02200X0.00040*%
%ADD29R,0.02240X0.00040*%
%ADD30R,0.02280X0.00040*%
%ADD31R,0.02320X0.00040*%
%ADD32R,0.02360X0.00040*%
%ADD33R,0.02400X0.00040*%
%ADD34R,0.02440X0.00040*%
%ADD35R,0.02480X0.00040*%
%ADD36R,0.02520X0.00040*%
%ADD37R,0.02560X0.00040*%
%ADD38R,0.02600X0.00040*%
%ADD39R,0.02640X0.00040*%
%ADD40R,0.02680X0.00040*%
%ADD41R,0.02720X0.00040*%
%ADD42R,0.02760X0.00040*%
%ADD43R,0.02800X0.00040*%
%ADD44R,0.02840X0.00040*%
%ADD45R,0.02880X0.00040*%
%ADD46R,0.02880X0.00040*%
%ADD47R,0.02920X0.00040*%
%ADD48R,0.02960X0.00040*%
%ADD49R,0.03000X0.00040*%
%ADD50R,0.03040X0.00040*%
%ADD51R,0.08360X0.00040*%
%ADD52R,0.03080X0.00040*%
%ADD53R,0.08080X0.00040*%
%ADD54R,0.07760X0.00040*%
%ADD55R,0.03120X0.00040*%
%ADD56R,0.07520X0.00040*%
%ADD57R,0.03160X0.00040*%
%ADD58R,0.07200X0.00040*%
%ADD59R,0.03200X0.00040*%
%ADD60R,0.06880X0.00040*%
%ADD61R,0.03240X0.00040*%
%ADD62R,0.06600X0.00040*%
%ADD63R,0.03280X0.00040*%
%ADD64R,0.06280X0.00040*%
%ADD65R,0.06040X0.00040*%
%ADD66R,0.03320X0.00040*%
%ADD67R,0.05720X0.00040*%
%ADD68R,0.03360X0.00040*%
%ADD69R,0.05400X0.00040*%
%ADD70R,0.03400X0.00040*%
%ADD71R,0.05120X0.00040*%
%ADD72R,0.03440X0.00040*%
%ADD73R,0.04840X0.00040*%
%ADD74R,0.03480X0.00040*%
%ADD75R,0.04560X0.00040*%
%ADD76R,0.04240X0.00040*%
%ADD77R,0.03520X0.00040*%
%ADD78R,0.03960X0.00040*%
%ADD79R,0.03560X0.00040*%
%ADD80R,0.03640X0.00040*%
%ADD81R,0.03600X0.00040*%
%ADD82R,0.03360X0.00040*%
%ADD83R,0.03200X0.00040*%
%ADD84R,0.03680X0.00040*%
%ADD85R,0.03720X0.00040*%
%ADD86R,0.03720X0.00040*%
%ADD87R,0.02840X0.00040*%
%ADD88R,0.03760X0.00040*%
%ADD89R,0.03800X0.00040*%
%ADD90R,0.03840X0.00040*%
%ADD91R,0.02760X0.00040*%
%ADD92R,0.03880X0.00040*%
%ADD93R,0.02720X0.00040*%
%ADD94R,0.03920X0.00040*%
%ADD95R,0.02680X0.00040*%
%ADD96R,0.02640X0.00040*%
%ADD97R,0.01400X0.00040*%
%ADD98R,0.02600X0.00040*%
%ADD99R,0.04040X0.00040*%
%ADD100R,0.04080X0.00040*%
%ADD101R,0.02520X0.00040*%
%ADD102R,0.04120X0.00040*%
%ADD103R,0.02440X0.00040*%
%ADD104R,0.04160X0.00040*%
%ADD105R,0.02440X0.00040*%
%ADD106R,0.04200X0.00040*%
%ADD107R,0.04240X0.00040*%
%ADD108R,0.04280X0.00040*%
%ADD109R,0.04320X0.00040*%
%ADD110R,0.04360X0.00040*%
%ADD111R,0.04400X0.00040*%
%ADD112R,0.04440X0.00040*%
%ADD113R,0.04480X0.00040*%
%ADD114R,0.04520X0.00040*%
%ADD115R,0.04560X0.00040*%
%ADD116R,0.04600X0.00040*%
%ADD117R,0.04640X0.00040*%
%ADD118R,0.04680X0.00040*%
%ADD119R,0.04720X0.00040*%
%ADD120R,0.04760X0.00040*%
%ADD121R,0.00240X0.00040*%
%ADD122R,0.04800X0.00040*%
%ADD123R,0.04880X0.00040*%
%ADD124R,0.04920X0.00040*%
%ADD125R,0.04960X0.00040*%
%ADD126R,0.05000X0.00040*%
%ADD127R,0.05040X0.00040*%
%ADD128R,0.05080X0.00040*%
%ADD129R,0.05120X0.00040*%
%ADD130R,0.05160X0.00040*%
%ADD131R,0.05200X0.00040*%
%ADD132R,0.05200X0.00040*%
%ADD133R,0.05240X0.00040*%
%ADD134R,0.05280X0.00040*%
%ADD135R,0.05320X0.00040*%
%ADD136R,0.05360X0.00040*%
%ADD137R,0.05400X0.00040*%
%ADD138R,0.05440X0.00040*%
%ADD139R,0.05480X0.00040*%
%ADD140R,0.05520X0.00040*%
%ADD141R,0.05560X0.00040*%
%ADD142R,0.05600X0.00040*%
%ADD143R,0.05640X0.00040*%
%ADD144R,0.05680X0.00040*%
%ADD145R,0.05760X0.00040*%
%ADD146R,0.05800X0.00040*%
%ADD147R,0.05840X0.00040*%
%ADD148R,0.05880X0.00040*%
%ADD149R,0.05920X0.00040*%
%ADD150R,0.05960X0.00040*%
%ADD151R,0.06000X0.00040*%
%ADD152R,0.06040X0.00040*%
%ADD153R,0.06080X0.00040*%
%ADD154R,0.06120X0.00040*%
%ADD155R,0.06160X0.00040*%
%ADD156R,0.01440X0.00040*%
%ADD157R,0.04720X0.00040*%
%ADD158R,0.06240X0.00040*%
%ADD159R,0.06240X0.00040*%
%ADD160R,0.06320X0.00040*%
%ADD161R,0.06360X0.00040*%
%ADD162R,0.06400X0.00040*%
%ADD163R,0.06440X0.00040*%
%ADD164R,0.06480X0.00040*%
%ADD165R,0.06520X0.00040*%
%ADD166R,0.06560X0.00040*%
%ADD167R,0.03520X0.00040*%
%ADD168R,0.03040X0.00040*%
%ADD169R,0.06640X0.00040*%
%ADD170R,0.06680X0.00040*%
%ADD171R,0.06720X0.00040*%
%ADD172R,0.06760X0.00040*%
%ADD173R,0.06800X0.00040*%
%ADD174R,0.06840X0.00040*%
%ADD175R,0.06880X0.00040*%
%ADD176R,0.06920X0.00040*%
%ADD177R,0.06960X0.00040*%
%ADD178R,0.07000X0.00040*%
%ADD179R,0.07040X0.00040*%
%ADD180R,0.07080X0.00040*%
%ADD181R,0.07080X0.00040*%
%ADD182R,0.07120X0.00040*%
%ADD183R,0.07160X0.00040*%
%ADD184R,0.07200X0.00040*%
%ADD185R,0.07240X0.00040*%
%ADD186R,0.07280X0.00040*%
%ADD187R,0.07320X0.00040*%
%ADD188R,0.07360X0.00040*%
%ADD189R,0.07400X0.00040*%
%ADD190R,0.07440X0.00040*%
%ADD191R,0.07480X0.00040*%
%ADD192R,0.07520X0.00040*%
%ADD193R,0.02520X0.00040*%
%ADD194R,0.05000X0.00040*%
%ADD195R,0.04960X0.00040*%
%ADD196R,0.01720X0.00040*%
%ADD197R,0.00960X0.00040*%
%ADD198R,0.04920X0.00040*%
%ADD199R,0.04920X0.00040*%
%ADD200R,0.04920X0.00040*%
%ADD201R,0.01520X0.00040*%
%ADD202R,0.00880X0.00040*%
%ADD203R,0.00360X0.00040*%
%ADD204R,0.07320X0.00040*%
%ADD205R,0.07320X0.00040*%
%ADD206R,0.07240X0.00040*%
%ADD207R,0.02520X0.00040*%
%ADD208R,0.07120X0.00040*%
%ADD209R,0.07040X0.00040*%
%ADD210R,0.06960X0.00040*%
%ADD211R,0.06920X0.00040*%
%ADD212R,0.06840X0.00040*%
%ADD213R,0.06800X0.00040*%
%ADD214R,0.06720X0.00040*%
%ADD215R,0.06640X0.00040*%
%ADD216R,0.06560X0.00040*%
%ADD217R,0.06520X0.00040*%
%ADD218R,0.06440X0.00040*%
%ADD219R,0.06440X0.00040*%
%ADD220R,0.06400X0.00040*%
%ADD221R,0.06320X0.00040*%
%ADD222R,0.06280X0.00040*%
%ADD223R,0.06240X0.00040*%
%ADD224R,0.06200X0.00040*%
%ADD225R,0.06120X0.00040*%
%ADD226R,0.06040X0.00040*%
%ADD227R,0.05960X0.00040*%
%ADD228R,0.05920X0.00040*%
%ADD229R,0.05880X0.00040*%
%ADD230R,0.05840X0.00040*%
%ADD231R,0.05800X0.00040*%
%ADD232R,0.00640X0.00040*%
%ADD233R,0.05040X0.00040*%
%ADD234R,0.05640X0.00040*%
%ADD235R,0.05600X0.00040*%
%ADD236R,0.05560X0.00040*%
%ADD237R,0.05520X0.00040*%
%ADD238R,0.05440X0.00040*%
%ADD239R,0.05320X0.00040*%
%ADD240R,0.05280X0.00040*%
%ADD241R,0.05240X0.00040*%
%ADD242R,0.05120X0.00040*%
%ADD243R,0.05040X0.00040*%
%ADD244R,0.05040X0.00040*%
%ADD245R,0.03720X0.00040*%
%ADD246R,0.01280X0.00040*%
%ADD247R,0.02920X0.00040*%
%ADD248R,0.03320X0.00040*%
%ADD249R,0.05080X0.00040*%
%ADD250R,0.03600X0.00040*%
%ADD251R,0.04200X0.00040*%
%ADD252R,0.07400X0.00040*%
%ADD253R,0.07720X0.00040*%
%ADD254R,0.08000X0.00040*%
%ADD255R,0.08280X0.00040*%
%ADD256R,0.08440X0.00040*%
%ADD257R,0.08560X0.00040*%
%ADD258R,0.08680X0.00040*%
%ADD259R,0.08760X0.00040*%
%ADD260R,0.08760X0.00040*%
%ADD261R,0.04880X0.00040*%
%ADD262R,0.04800X0.00040*%
%ADD263R,0.04720X0.00040*%
%ADD264R,0.04640X0.00040*%
%ADD265R,0.04520X0.00040*%
%ADD266R,0.04480X0.00040*%
%ADD267R,0.04360X0.00040*%
%ADD268R,0.04320X0.00040*%
%ADD269R,0.03240X0.00040*%
%ADD270R,0.01040X0.00040*%
%ADD271R,0.04120X0.00040*%
%ADD272C,0.00800*%
%ADD273C,0.00500*%
%ADD274C,0.00600*%
%ADD275R,0.02000X0.08000*%
%ADD276C,0.01000*%
%ADD277R,0.02400X0.03400*%
%ADD278C,0.01600*%
D10*
X0001800Y0001800D02*
X0001800Y0198650D01*
X0198650Y0198650D01*
X0198650Y0001800D01*
X0001800Y0001800D01*
D11*
X0034450Y0024450D02*
X0034450Y0028153D01*
X0036302Y0028153D01*
X0036919Y0027536D01*
X0036919Y0026302D01*
X0036302Y0025684D01*
X0034450Y0025684D01*
X0038133Y0024450D02*
X0039368Y0024450D01*
X0038750Y0024450D02*
X0038750Y0028153D01*
X0038133Y0028153D02*
X0039368Y0028153D01*
X0040589Y0027536D02*
X0040589Y0025067D01*
X0041206Y0024450D01*
X0042440Y0024450D01*
X0043057Y0025067D01*
X0043057Y0027536D02*
X0042440Y0028153D01*
X0041206Y0028153D01*
X0040589Y0027536D01*
X0047955Y0028153D02*
X0047955Y0024450D01*
X0047955Y0025684D02*
X0049806Y0025684D01*
X0050424Y0026302D01*
X0050424Y0027536D01*
X0049806Y0028153D01*
X0047955Y0028153D01*
X0049189Y0025684D02*
X0050424Y0024450D01*
X0051638Y0024450D02*
X0054107Y0024450D01*
X0055321Y0025067D02*
X0055938Y0024450D01*
X0057173Y0024450D01*
X0057790Y0025067D01*
X0057790Y0025684D01*
X0057173Y0026302D01*
X0055938Y0026302D01*
X0055321Y0026919D01*
X0055321Y0027536D01*
X0055938Y0028153D01*
X0057173Y0028153D01*
X0057790Y0027536D01*
X0059004Y0028153D02*
X0059004Y0024450D01*
X0061473Y0024450D01*
X0060239Y0026302D02*
X0059004Y0026302D01*
X0059004Y0028153D02*
X0061473Y0028153D01*
X0062687Y0028153D02*
X0065156Y0028153D01*
X0065379Y0027950D02*
X0066614Y0027950D01*
X0067231Y0028567D01*
X0067231Y0031653D01*
X0068445Y0031036D02*
X0068445Y0030419D01*
X0069062Y0029802D01*
X0070297Y0029802D01*
X0070914Y0029184D01*
X0070914Y0028567D01*
X0070297Y0027950D01*
X0069062Y0027950D01*
X0068445Y0028567D01*
X0068445Y0031036D02*
X0069062Y0031653D01*
X0070297Y0031653D01*
X0070914Y0031036D01*
X0072128Y0031653D02*
X0073980Y0031653D01*
X0074597Y0031036D01*
X0074597Y0030419D01*
X0073980Y0029802D01*
X0072128Y0029802D01*
X0072128Y0031653D02*
X0072128Y0027950D01*
X0073980Y0027950D01*
X0074597Y0028567D01*
X0074597Y0029184D01*
X0073980Y0029802D01*
X0075811Y0031653D02*
X0077046Y0031653D01*
X0076429Y0031653D02*
X0076429Y0027950D01*
X0077046Y0027950D02*
X0075811Y0027950D01*
X0078267Y0027950D02*
X0080118Y0027950D01*
X0080736Y0028567D01*
X0080736Y0031036D01*
X0080118Y0031653D01*
X0078267Y0031653D01*
X0078267Y0027950D01*
X0065379Y0027950D02*
X0064762Y0028567D01*
X0064762Y0031653D01*
X0063922Y0028153D02*
X0063922Y0024450D01*
X0054107Y0028153D02*
X0051638Y0028153D01*
X0051638Y0024450D01*
X0051638Y0026302D02*
X0052872Y0026302D01*
X0074584Y0055450D02*
X0074584Y0057919D01*
X0075818Y0059153D01*
X0077052Y0057919D01*
X0077052Y0055450D01*
X0077052Y0057302D02*
X0074584Y0057302D01*
X0078267Y0057302D02*
X0080736Y0057302D01*
X0080118Y0059153D02*
X0080118Y0055450D01*
X0078267Y0057302D02*
X0080118Y0059153D01*
X0080118Y0065450D02*
X0080118Y0069153D01*
X0078267Y0067302D01*
X0080736Y0067302D01*
X0077052Y0067919D02*
X0076435Y0067302D01*
X0074584Y0067302D01*
X0074584Y0069153D02*
X0076435Y0069153D01*
X0077052Y0068536D01*
X0077052Y0067919D01*
X0076435Y0067302D02*
X0077052Y0066684D01*
X0077052Y0066067D01*
X0076435Y0065450D01*
X0074584Y0065450D01*
X0074584Y0069153D01*
X0070468Y0065036D02*
X0069851Y0065653D01*
X0068617Y0065653D01*
X0067999Y0065036D01*
X0066785Y0065036D02*
X0066168Y0065653D01*
X0064933Y0065653D01*
X0064316Y0065036D01*
X0064316Y0062567D01*
X0064933Y0061950D01*
X0066168Y0061950D01*
X0066785Y0062567D01*
X0067999Y0061950D02*
X0070468Y0064419D01*
X0070468Y0065036D01*
X0070468Y0061950D02*
X0067999Y0061950D01*
X0063102Y0062567D02*
X0062485Y0061950D01*
X0061250Y0061950D01*
X0060633Y0062567D01*
X0059419Y0062567D02*
X0059419Y0065036D01*
X0058802Y0065653D01*
X0057567Y0065653D01*
X0056950Y0065036D01*
X0056950Y0062567D01*
X0057567Y0061950D01*
X0058802Y0061950D01*
X0059419Y0062567D01*
X0061250Y0063802D02*
X0062485Y0063802D01*
X0063102Y0063184D01*
X0063102Y0062567D01*
X0061250Y0063802D02*
X0060633Y0064419D01*
X0060633Y0065036D01*
X0061250Y0065653D01*
X0062485Y0065653D01*
X0063102Y0065036D01*
X0062485Y0099450D02*
X0061250Y0099450D01*
X0060633Y0100067D01*
X0059419Y0100067D02*
X0058802Y0099450D01*
X0057567Y0099450D01*
X0056950Y0100067D01*
X0056950Y0102536D01*
X0057567Y0103153D01*
X0058802Y0103153D01*
X0059419Y0102536D01*
X0059419Y0100067D01*
X0061250Y0101302D02*
X0060633Y0101919D01*
X0060633Y0102536D01*
X0061250Y0103153D01*
X0062485Y0103153D01*
X0063102Y0102536D01*
X0064316Y0102536D02*
X0064316Y0100067D01*
X0064933Y0099450D01*
X0066168Y0099450D01*
X0066785Y0100067D01*
X0067999Y0099450D02*
X0070468Y0099450D01*
X0069234Y0099450D02*
X0069234Y0103153D01*
X0067999Y0101919D01*
X0066785Y0102536D02*
X0066168Y0103153D01*
X0064933Y0103153D01*
X0064316Y0102536D01*
X0062485Y0101302D02*
X0061250Y0101302D01*
X0062485Y0101302D02*
X0063102Y0100684D01*
X0063102Y0100067D01*
X0062485Y0099450D01*
X0074584Y0105450D02*
X0076435Y0105450D01*
X0077052Y0106067D01*
X0077052Y0106684D01*
X0076435Y0107302D01*
X0074584Y0107302D01*
X0074584Y0109153D02*
X0074584Y0105450D01*
X0076435Y0107302D02*
X0077052Y0107919D01*
X0077052Y0108536D01*
X0076435Y0109153D01*
X0074584Y0109153D01*
X0078267Y0108536D02*
X0078884Y0109153D01*
X0080118Y0109153D01*
X0080736Y0108536D01*
X0080736Y0107919D01*
X0080118Y0107302D01*
X0080736Y0106684D01*
X0080736Y0106067D01*
X0080118Y0105450D01*
X0078884Y0105450D01*
X0078267Y0106067D01*
X0079501Y0107302D02*
X0080118Y0107302D01*
X0080736Y0115450D02*
X0078267Y0115450D01*
X0080736Y0117919D01*
X0080736Y0118536D01*
X0080118Y0119153D01*
X0078884Y0119153D01*
X0078267Y0118536D01*
X0077052Y0118536D02*
X0077052Y0117919D01*
X0076435Y0117302D01*
X0074584Y0117302D01*
X0074584Y0119153D02*
X0074584Y0115450D01*
X0076435Y0115450D01*
X0077052Y0116067D01*
X0077052Y0116684D01*
X0076435Y0117302D01*
X0077052Y0118536D02*
X0076435Y0119153D01*
X0074584Y0119153D01*
X0075201Y0125450D02*
X0076435Y0125450D01*
X0077052Y0126067D01*
X0078267Y0125450D02*
X0080736Y0125450D01*
X0079501Y0125450D02*
X0079501Y0129153D01*
X0078267Y0127919D01*
X0077052Y0128536D02*
X0076435Y0129153D01*
X0075201Y0129153D01*
X0074584Y0128536D01*
X0074584Y0126067D01*
X0075201Y0125450D01*
X0073369Y0125450D02*
X0070901Y0125450D01*
X0070901Y0129153D01*
X0073369Y0129153D01*
X0072135Y0127302D02*
X0070901Y0127302D01*
X0069686Y0127302D02*
X0069686Y0126067D01*
X0069069Y0125450D01*
X0067835Y0125450D01*
X0067217Y0126067D01*
X0067217Y0128536D01*
X0067835Y0129153D01*
X0069069Y0129153D01*
X0069686Y0128536D01*
X0069686Y0127302D02*
X0068452Y0127302D01*
X0066003Y0127302D02*
X0065386Y0126684D01*
X0063534Y0126684D01*
X0063534Y0125450D02*
X0063534Y0129153D01*
X0065386Y0129153D01*
X0066003Y0128536D01*
X0066003Y0127302D01*
X0067835Y0135450D02*
X0069069Y0135450D01*
X0069686Y0136067D01*
X0069686Y0137302D01*
X0068452Y0137302D01*
X0069686Y0138536D02*
X0069069Y0139153D01*
X0067835Y0139153D01*
X0067217Y0138536D01*
X0067217Y0136067D01*
X0067835Y0135450D01*
X0066003Y0137302D02*
X0065386Y0136684D01*
X0063534Y0136684D01*
X0063534Y0135450D02*
X0063534Y0139153D01*
X0065386Y0139153D01*
X0066003Y0138536D01*
X0066003Y0137302D01*
X0070901Y0137302D02*
X0072135Y0137302D01*
X0073369Y0139153D02*
X0070901Y0139153D01*
X0070901Y0135450D01*
X0073369Y0135450D01*
X0074584Y0135450D02*
X0076435Y0135450D01*
X0077052Y0136067D01*
X0077052Y0138536D01*
X0076435Y0139153D01*
X0074584Y0139153D01*
X0074584Y0135450D01*
X0078267Y0135450D02*
X0080736Y0135450D01*
X0079501Y0135450D02*
X0079501Y0139153D01*
X0078267Y0137919D01*
X0078267Y0145450D02*
X0080736Y0145450D01*
X0079501Y0145450D02*
X0079501Y0149153D01*
X0078267Y0147919D01*
X0077052Y0147919D02*
X0077052Y0145450D01*
X0077052Y0147302D02*
X0074584Y0147302D01*
X0074584Y0147919D02*
X0075818Y0149153D01*
X0077052Y0147919D01*
X0074584Y0147919D02*
X0074584Y0145450D01*
X0074584Y0155450D02*
X0074584Y0157919D01*
X0075818Y0159153D01*
X0077052Y0157919D01*
X0077052Y0155450D01*
X0078267Y0156067D02*
X0080736Y0158536D01*
X0080736Y0156067D01*
X0080118Y0155450D01*
X0078884Y0155450D01*
X0078267Y0156067D01*
X0078267Y0158536D01*
X0078884Y0159153D01*
X0080118Y0159153D01*
X0080736Y0158536D01*
X0077052Y0157302D02*
X0074584Y0157302D01*
X0074584Y0165450D02*
X0077052Y0165450D01*
X0078267Y0165450D02*
X0078267Y0169153D01*
X0080118Y0169153D01*
X0080736Y0168536D01*
X0080736Y0167302D01*
X0080118Y0166684D01*
X0078267Y0166684D01*
X0079501Y0166684D02*
X0080736Y0165450D01*
X0074584Y0165450D02*
X0074584Y0169153D01*
X0073369Y0168536D02*
X0072752Y0169153D01*
X0071518Y0169153D01*
X0070901Y0168536D01*
X0070901Y0166067D01*
X0071518Y0165450D01*
X0072752Y0165450D01*
X0073369Y0166067D01*
X0069686Y0165450D02*
X0069686Y0169153D01*
X0068452Y0167919D01*
X0067217Y0169153D01*
X0067217Y0165450D01*
X0049285Y0175653D02*
X0046816Y0175653D01*
X0046816Y0171950D01*
X0046816Y0173802D02*
X0048051Y0173802D01*
X0045602Y0175653D02*
X0043133Y0175653D01*
X0043133Y0171950D01*
X0041919Y0172567D02*
X0041919Y0175036D01*
X0041302Y0175653D01*
X0040067Y0175653D01*
X0039450Y0175036D01*
X0039450Y0172567D01*
X0040067Y0171950D01*
X0041302Y0171950D01*
X0041919Y0172567D01*
X0043133Y0173802D02*
X0044368Y0173802D01*
X0030602Y0175653D02*
X0030602Y0171950D01*
X0028133Y0175653D01*
X0028133Y0171950D01*
X0026919Y0172567D02*
X0026919Y0175036D01*
X0026302Y0175653D01*
X0025067Y0175653D01*
X0024450Y0175036D01*
X0024450Y0172567D01*
X0025067Y0171950D01*
X0026302Y0171950D01*
X0026919Y0172567D01*
X0017485Y0138153D02*
X0018102Y0137536D01*
X0015633Y0135067D01*
X0016250Y0134450D01*
X0017485Y0134450D01*
X0018102Y0135067D01*
X0018102Y0137536D01*
X0017485Y0138153D02*
X0016250Y0138153D01*
X0015633Y0137536D01*
X0015633Y0135067D01*
X0014419Y0134450D02*
X0014419Y0136919D01*
X0013184Y0138153D01*
X0011950Y0136919D01*
X0011950Y0134450D01*
X0011950Y0136302D02*
X0014419Y0136302D01*
X0013184Y0128153D02*
X0011950Y0126919D01*
X0011950Y0124450D01*
X0011950Y0126302D02*
X0014419Y0126302D01*
X0014419Y0126919D02*
X0014419Y0124450D01*
X0015633Y0124450D02*
X0018102Y0124450D01*
X0016868Y0124450D02*
X0016868Y0128153D01*
X0015633Y0126919D01*
X0014419Y0126919D02*
X0013184Y0128153D01*
X0013802Y0118153D02*
X0011950Y0118153D01*
X0011950Y0114450D01*
X0013802Y0114450D01*
X0014419Y0115067D01*
X0014419Y0115684D01*
X0013802Y0116302D01*
X0011950Y0116302D01*
X0013802Y0116302D02*
X0014419Y0116919D01*
X0014419Y0117536D01*
X0013802Y0118153D01*
X0015633Y0117536D02*
X0016250Y0118153D01*
X0017485Y0118153D01*
X0018102Y0117536D01*
X0018102Y0116919D01*
X0015633Y0114450D01*
X0018102Y0114450D01*
X0017485Y0108153D02*
X0018102Y0107536D01*
X0018102Y0106919D01*
X0017485Y0106302D01*
X0018102Y0105684D01*
X0018102Y0105067D01*
X0017485Y0104450D01*
X0016250Y0104450D01*
X0015633Y0105067D01*
X0014419Y0105067D02*
X0013802Y0104450D01*
X0011950Y0104450D01*
X0011950Y0108153D01*
X0013802Y0108153D01*
X0014419Y0107536D01*
X0014419Y0106919D01*
X0013802Y0106302D01*
X0011950Y0106302D01*
X0013802Y0106302D02*
X0014419Y0105684D01*
X0014419Y0105067D01*
X0016868Y0106302D02*
X0017485Y0106302D01*
X0017485Y0108153D02*
X0016250Y0108153D01*
X0015633Y0107536D01*
X0013802Y0098153D02*
X0011950Y0098153D01*
X0011950Y0094450D01*
X0013802Y0094450D01*
X0014419Y0095067D01*
X0014419Y0095684D01*
X0013802Y0096302D01*
X0011950Y0096302D01*
X0013802Y0096302D02*
X0014419Y0096919D01*
X0014419Y0097536D01*
X0013802Y0098153D01*
X0015633Y0096302D02*
X0018102Y0096302D01*
X0017485Y0098153D02*
X0017485Y0094450D01*
X0015633Y0096302D02*
X0017485Y0098153D01*
X0017485Y0088153D02*
X0015633Y0086302D01*
X0018102Y0086302D01*
X0017485Y0088153D02*
X0017485Y0084450D01*
X0014419Y0084450D02*
X0014419Y0086919D01*
X0013184Y0088153D01*
X0011950Y0086919D01*
X0011950Y0084450D01*
X0011950Y0086302D02*
X0014419Y0086302D01*
X0016250Y0078153D02*
X0015633Y0077536D01*
X0016250Y0078153D02*
X0017485Y0078153D01*
X0018102Y0077536D01*
X0018102Y0076919D01*
X0017485Y0076302D01*
X0018102Y0075684D01*
X0018102Y0075067D01*
X0017485Y0074450D01*
X0016250Y0074450D01*
X0015633Y0075067D01*
X0014419Y0076302D02*
X0011950Y0076302D01*
X0013184Y0077536D02*
X0013184Y0075067D01*
X0016868Y0076302D02*
X0017485Y0076302D01*
X0019316Y0075684D02*
X0019316Y0078153D01*
X0019316Y0075684D02*
X0020551Y0074450D01*
X0021785Y0075684D01*
X0021785Y0078153D01*
X0022999Y0077536D02*
X0023617Y0078153D01*
X0024851Y0078153D01*
X0025468Y0077536D01*
X0025468Y0076919D01*
X0024851Y0076302D01*
X0025468Y0075684D01*
X0025468Y0075067D01*
X0024851Y0074450D01*
X0023617Y0074450D01*
X0022999Y0075067D01*
X0024234Y0076302D02*
X0024851Y0076302D01*
X0021168Y0068153D02*
X0019316Y0068153D01*
X0019316Y0064450D01*
X0021168Y0064450D01*
X0021785Y0065067D01*
X0021785Y0067536D01*
X0021168Y0068153D01*
X0018102Y0068153D02*
X0018102Y0064450D01*
X0015633Y0068153D01*
X0015633Y0064450D01*
X0014419Y0065067D02*
X0014419Y0066302D01*
X0013184Y0066302D01*
X0011950Y0067536D02*
X0011950Y0065067D01*
X0012567Y0064450D01*
X0013802Y0064450D01*
X0014419Y0065067D01*
X0014419Y0067536D02*
X0013802Y0068153D01*
X0012567Y0068153D01*
X0011950Y0067536D01*
X0121950Y0068153D02*
X0121950Y0064450D01*
X0123802Y0064450D01*
X0124419Y0065067D01*
X0124419Y0065684D01*
X0123802Y0066302D01*
X0121950Y0066302D01*
X0121950Y0068153D02*
X0123802Y0068153D01*
X0124419Y0067536D01*
X0124419Y0066919D01*
X0123802Y0066302D01*
X0125633Y0066919D02*
X0125633Y0067536D01*
X0126250Y0068153D01*
X0127485Y0068153D01*
X0128102Y0067536D01*
X0128102Y0065067D01*
X0127485Y0064450D01*
X0126250Y0064450D01*
X0125633Y0065067D01*
X0126250Y0066302D02*
X0128102Y0066302D01*
X0126250Y0066302D02*
X0125633Y0066919D01*
X0126250Y0058153D02*
X0127485Y0058153D01*
X0128102Y0057536D01*
X0128102Y0056919D01*
X0127485Y0056302D01*
X0126250Y0056302D01*
X0125633Y0056919D01*
X0125633Y0057536D01*
X0126250Y0058153D01*
X0126250Y0056302D02*
X0125633Y0055684D01*
X0125633Y0055067D01*
X0126250Y0054450D01*
X0127485Y0054450D01*
X0128102Y0055067D01*
X0128102Y0055684D01*
X0127485Y0056302D01*
X0124419Y0056919D02*
X0123802Y0056302D01*
X0121950Y0056302D01*
X0121950Y0058153D02*
X0121950Y0054450D01*
X0123802Y0054450D01*
X0124419Y0055067D01*
X0124419Y0055684D01*
X0123802Y0056302D01*
X0124419Y0056919D02*
X0124419Y0057536D01*
X0123802Y0058153D01*
X0121950Y0058153D01*
X0121950Y0048153D02*
X0123802Y0048153D01*
X0124419Y0047536D01*
X0124419Y0046919D01*
X0123802Y0046302D01*
X0121950Y0046302D01*
X0121950Y0048153D02*
X0121950Y0044450D01*
X0123802Y0044450D01*
X0124419Y0045067D01*
X0124419Y0045684D01*
X0123802Y0046302D01*
X0125633Y0045067D02*
X0125633Y0044450D01*
X0125633Y0045067D02*
X0128102Y0047536D01*
X0128102Y0048153D01*
X0125633Y0048153D01*
X0126250Y0028153D02*
X0125633Y0027536D01*
X0125633Y0026919D01*
X0126250Y0026302D01*
X0127485Y0026302D01*
X0128102Y0025684D01*
X0128102Y0025067D01*
X0127485Y0024450D01*
X0126250Y0024450D01*
X0125633Y0025067D01*
X0124419Y0025067D02*
X0124419Y0028153D01*
X0126250Y0028153D02*
X0127485Y0028153D01*
X0128102Y0027536D01*
X0129316Y0028153D02*
X0129316Y0024450D01*
X0131785Y0024450D01*
X0132999Y0024450D02*
X0132999Y0028153D01*
X0134851Y0028153D01*
X0135468Y0027536D01*
X0135468Y0026302D01*
X0134851Y0025684D01*
X0132999Y0025684D01*
X0134234Y0025684D02*
X0135468Y0024450D01*
X0140366Y0024450D02*
X0140366Y0028153D01*
X0142217Y0028153D01*
X0142834Y0027536D01*
X0142834Y0026302D01*
X0142217Y0025684D01*
X0140366Y0025684D01*
X0141600Y0025684D02*
X0142834Y0024450D01*
X0144049Y0024450D02*
X0146518Y0024450D01*
X0147732Y0025067D02*
X0148349Y0024450D01*
X0149584Y0024450D01*
X0150201Y0025067D01*
X0150201Y0025684D01*
X0149584Y0026302D01*
X0148349Y0026302D01*
X0147732Y0026919D01*
X0147732Y0027536D01*
X0148349Y0028153D01*
X0149584Y0028153D01*
X0150201Y0027536D01*
X0151415Y0028153D02*
X0151415Y0024450D01*
X0153884Y0024450D01*
X0152650Y0026302D02*
X0151415Y0026302D01*
X0151415Y0028153D02*
X0153884Y0028153D01*
X0155098Y0028153D02*
X0157567Y0028153D01*
X0156333Y0028153D02*
X0156333Y0024450D01*
X0146518Y0028153D02*
X0144049Y0028153D01*
X0144049Y0024450D01*
X0144049Y0026302D02*
X0145283Y0026302D01*
X0131785Y0028153D02*
X0129316Y0028153D01*
X0129316Y0026302D02*
X0130551Y0026302D01*
X0124419Y0025067D02*
X0123802Y0024450D01*
X0122567Y0024450D01*
X0121950Y0025067D01*
X0121950Y0028153D01*
X0158184Y0084450D02*
X0159419Y0085684D01*
X0159419Y0088153D01*
X0160633Y0087536D02*
X0160633Y0085067D01*
X0161250Y0084450D01*
X0162485Y0084450D01*
X0163102Y0085067D01*
X0164316Y0084450D02*
X0164316Y0086919D01*
X0165551Y0088153D01*
X0166785Y0086919D01*
X0166785Y0084450D01*
X0167999Y0084450D02*
X0167999Y0088153D01*
X0169851Y0088153D01*
X0170468Y0087536D01*
X0170468Y0086302D01*
X0169851Y0085684D01*
X0167999Y0085684D01*
X0166785Y0086302D02*
X0164316Y0086302D01*
X0163102Y0087536D02*
X0162485Y0088153D01*
X0161250Y0088153D01*
X0160633Y0087536D01*
X0156950Y0088153D02*
X0156950Y0085684D01*
X0158184Y0084450D01*
X0178401Y0077302D02*
X0180869Y0077302D01*
X0182084Y0077302D02*
X0182084Y0079153D01*
X0184552Y0079153D01*
X0185767Y0079153D02*
X0185767Y0076684D01*
X0187001Y0075450D01*
X0188236Y0076684D01*
X0188236Y0079153D01*
X0184552Y0077302D02*
X0184552Y0076067D01*
X0183935Y0075450D01*
X0182701Y0075450D01*
X0182084Y0076067D01*
X0182084Y0077302D02*
X0183318Y0077919D01*
X0183935Y0077919D01*
X0184552Y0077302D01*
X0179635Y0078536D02*
X0179635Y0076067D01*
X0180252Y0069153D02*
X0179018Y0069153D01*
X0178401Y0068536D01*
X0178401Y0066067D01*
X0179018Y0065450D01*
X0180252Y0065450D01*
X0180869Y0066067D01*
X0180869Y0067302D01*
X0179635Y0067302D01*
X0180869Y0068536D02*
X0180252Y0069153D01*
X0182084Y0069153D02*
X0182084Y0065450D01*
X0184552Y0065450D02*
X0182084Y0069153D01*
X0184552Y0069153D02*
X0184552Y0065450D01*
X0185767Y0065450D02*
X0185767Y0069153D01*
X0187618Y0069153D01*
X0188236Y0068536D01*
X0188236Y0066067D01*
X0187618Y0065450D01*
X0185767Y0065450D01*
X0185767Y0085450D02*
X0185767Y0086067D01*
X0188236Y0088536D01*
X0188236Y0089153D01*
X0185767Y0089153D01*
X0184552Y0088536D02*
X0184552Y0087919D01*
X0183935Y0087302D01*
X0182084Y0087302D01*
X0182084Y0089153D02*
X0182084Y0085450D01*
X0183935Y0085450D01*
X0184552Y0086067D01*
X0184552Y0086684D01*
X0183935Y0087302D01*
X0184552Y0088536D02*
X0183935Y0089153D01*
X0182084Y0089153D01*
X0182084Y0095450D02*
X0183935Y0095450D01*
X0184552Y0096067D01*
X0184552Y0096684D01*
X0183935Y0097302D01*
X0182084Y0097302D01*
X0182084Y0099153D02*
X0182084Y0095450D01*
X0183935Y0097302D02*
X0184552Y0097919D01*
X0184552Y0098536D01*
X0183935Y0099153D01*
X0182084Y0099153D01*
X0185767Y0098536D02*
X0185767Y0097919D01*
X0186384Y0097302D01*
X0187618Y0097302D01*
X0188236Y0096684D01*
X0188236Y0096067D01*
X0187618Y0095450D01*
X0186384Y0095450D01*
X0185767Y0096067D01*
X0185767Y0096684D01*
X0186384Y0097302D01*
X0187618Y0097302D02*
X0188236Y0097919D01*
X0188236Y0098536D01*
X0187618Y0099153D01*
X0186384Y0099153D01*
X0185767Y0098536D01*
X0186384Y0105450D02*
X0187618Y0105450D01*
X0188236Y0106067D01*
X0188236Y0108536D01*
X0187618Y0109153D01*
X0186384Y0109153D01*
X0185767Y0108536D01*
X0185767Y0107919D01*
X0186384Y0107302D01*
X0188236Y0107302D01*
X0186384Y0105450D02*
X0185767Y0106067D01*
X0184552Y0106067D02*
X0183935Y0105450D01*
X0182084Y0105450D01*
X0182084Y0109153D01*
X0183935Y0109153D01*
X0184552Y0108536D01*
X0184552Y0107919D01*
X0183935Y0107302D01*
X0182084Y0107302D01*
X0183935Y0107302D02*
X0184552Y0106684D01*
X0184552Y0106067D01*
X0184552Y0115450D02*
X0182084Y0115450D01*
X0183318Y0115450D02*
X0183318Y0119153D01*
X0182084Y0117919D01*
X0180869Y0117919D02*
X0180869Y0118536D01*
X0180252Y0119153D01*
X0178401Y0119153D01*
X0178401Y0115450D01*
X0180252Y0115450D01*
X0180869Y0116067D01*
X0180869Y0116684D01*
X0180252Y0117302D01*
X0178401Y0117302D01*
X0180252Y0117302D02*
X0180869Y0117919D01*
X0185767Y0118536D02*
X0186384Y0119153D01*
X0187618Y0119153D01*
X0188236Y0118536D01*
X0188236Y0117919D01*
X0187618Y0117302D01*
X0188236Y0116684D01*
X0188236Y0116067D01*
X0187618Y0115450D01*
X0186384Y0115450D01*
X0185767Y0116067D01*
X0187001Y0117302D02*
X0187618Y0117302D01*
X0187618Y0125450D02*
X0187618Y0129153D01*
X0185767Y0127302D01*
X0188236Y0127302D01*
X0184552Y0125450D02*
X0182084Y0125450D01*
X0183318Y0125450D02*
X0183318Y0129153D01*
X0182084Y0127919D01*
X0180869Y0127919D02*
X0180869Y0128536D01*
X0180252Y0129153D01*
X0178401Y0129153D01*
X0178401Y0125450D01*
X0180252Y0125450D01*
X0180869Y0126067D01*
X0180869Y0126684D01*
X0180252Y0127302D01*
X0178401Y0127302D01*
X0180252Y0127302D02*
X0180869Y0127919D01*
X0180252Y0135450D02*
X0178401Y0135450D01*
X0178401Y0139153D01*
X0180252Y0139153D01*
X0180869Y0138536D01*
X0180869Y0137919D01*
X0180252Y0137302D01*
X0178401Y0137302D01*
X0180252Y0137302D02*
X0180869Y0136684D01*
X0180869Y0136067D01*
X0180252Y0135450D01*
X0182084Y0135450D02*
X0184552Y0135450D01*
X0183318Y0135450D02*
X0183318Y0139153D01*
X0182084Y0137919D01*
X0185767Y0137302D02*
X0187001Y0137919D01*
X0187618Y0137919D01*
X0188236Y0137302D01*
X0188236Y0136067D01*
X0187618Y0135450D01*
X0186384Y0135450D01*
X0185767Y0136067D01*
X0185767Y0137302D02*
X0185767Y0139153D01*
X0188236Y0139153D01*
X0131785Y0136302D02*
X0129316Y0136302D01*
X0131168Y0138153D01*
X0131168Y0134450D01*
X0128102Y0134450D02*
X0125633Y0134450D01*
X0126868Y0134450D02*
X0126868Y0138153D01*
X0125633Y0136919D01*
X0124419Y0136919D02*
X0123802Y0136302D01*
X0121950Y0136302D01*
X0121950Y0138153D02*
X0121950Y0134450D01*
X0123802Y0134450D01*
X0124419Y0135067D01*
X0124419Y0135684D01*
X0123802Y0136302D01*
X0124419Y0136919D02*
X0124419Y0137536D01*
X0123802Y0138153D01*
X0121950Y0138153D01*
X0121950Y0144450D02*
X0123802Y0144450D01*
X0124419Y0145067D01*
X0124419Y0145684D01*
X0123802Y0146302D01*
X0121950Y0146302D01*
X0121950Y0148153D02*
X0121950Y0144450D01*
X0123802Y0146302D02*
X0124419Y0146919D01*
X0124419Y0147536D01*
X0123802Y0148153D01*
X0121950Y0148153D01*
X0125633Y0146919D02*
X0126868Y0148153D01*
X0126868Y0144450D01*
X0128102Y0144450D02*
X0125633Y0144450D01*
X0129316Y0145067D02*
X0129933Y0144450D01*
X0131168Y0144450D01*
X0131785Y0145067D01*
X0131785Y0146302D01*
X0131168Y0146919D01*
X0130551Y0146919D01*
X0129316Y0146302D01*
X0129316Y0148153D01*
X0131785Y0148153D01*
X0131168Y0128153D02*
X0129933Y0128153D01*
X0129316Y0127536D01*
X0130551Y0126302D02*
X0131168Y0126302D01*
X0131785Y0125684D01*
X0131785Y0125067D01*
X0131168Y0124450D01*
X0129933Y0124450D01*
X0129316Y0125067D01*
X0128102Y0124450D02*
X0125633Y0124450D01*
X0126868Y0124450D02*
X0126868Y0128153D01*
X0125633Y0126919D01*
X0124419Y0126919D02*
X0123802Y0126302D01*
X0121950Y0126302D01*
X0121950Y0128153D02*
X0123802Y0128153D01*
X0124419Y0127536D01*
X0124419Y0126919D01*
X0123802Y0126302D02*
X0124419Y0125684D01*
X0124419Y0125067D01*
X0123802Y0124450D01*
X0121950Y0124450D01*
X0121950Y0128153D01*
X0131168Y0128153D02*
X0131785Y0127536D01*
X0131785Y0126919D01*
X0131168Y0126302D01*
X0123802Y0108153D02*
X0121950Y0108153D01*
X0121950Y0104450D01*
X0123802Y0104450D01*
X0124419Y0105067D01*
X0124419Y0107536D01*
X0123802Y0108153D01*
X0125633Y0106302D02*
X0128102Y0106302D01*
X0123802Y0098153D02*
X0121950Y0098153D01*
X0121950Y0094450D01*
X0123802Y0094450D01*
X0124419Y0095067D01*
X0124419Y0097536D01*
X0123802Y0098153D01*
X0125633Y0096302D02*
X0128102Y0096302D01*
X0126868Y0097536D02*
X0126868Y0095067D01*
D12*
X0192420Y0172080D03*
D13*
X0192400Y0172120D03*
D14*
X0192380Y0172160D03*
D15*
X0192360Y0172200D03*
X0192360Y0172240D03*
X0188000Y0181200D03*
D16*
X0176580Y0173640D03*
X0176580Y0173600D03*
X0176580Y0173560D03*
X0176580Y0173520D03*
X0176580Y0173440D03*
X0176580Y0173400D03*
X0176580Y0173360D03*
X0176580Y0173320D03*
X0176580Y0173240D03*
X0176580Y0173200D03*
X0176580Y0173160D03*
X0176580Y0173120D03*
X0176580Y0173040D03*
X0176580Y0173000D03*
X0176580Y0172960D03*
X0176580Y0172920D03*
X0176580Y0172840D03*
X0176580Y0172800D03*
X0176580Y0172760D03*
X0176580Y0172720D03*
X0176580Y0172640D03*
X0176580Y0172600D03*
X0176580Y0172560D03*
X0176580Y0172520D03*
X0176580Y0172440D03*
X0176580Y0172400D03*
X0176580Y0172360D03*
X0176580Y0172320D03*
X0176580Y0172240D03*
D17*
X0176580Y0172280D03*
X0176580Y0172480D03*
X0176580Y0172680D03*
X0176580Y0172880D03*
X0176580Y0173080D03*
X0176580Y0173280D03*
X0176580Y0173480D03*
X0176580Y0173680D03*
D18*
X0192340Y0172280D03*
D19*
X0192320Y0172320D03*
D20*
X0192300Y0172360D03*
D21*
X0192280Y0172400D03*
D22*
X0192260Y0172440D03*
D23*
X0192260Y0172480D03*
D24*
X0192240Y0172520D03*
D25*
X0192220Y0172560D03*
D26*
X0192200Y0172600D03*
D27*
X0192180Y0172640D03*
X0176620Y0175760D03*
X0176620Y0178320D03*
D28*
X0192160Y0172680D03*
D29*
X0192140Y0172720D03*
X0192140Y0172760D03*
D30*
X0192120Y0172800D03*
D31*
X0192100Y0172840D03*
D32*
X0192080Y0172880D03*
D33*
X0192060Y0172920D03*
D34*
X0192040Y0172960D03*
X0192040Y0173000D03*
D35*
X0192020Y0173040D03*
X0176500Y0175000D03*
D36*
X0192000Y0173080D03*
X0192000Y0179080D03*
X0192000Y0179280D03*
X0192000Y0179480D03*
X0192000Y0179680D03*
X0192000Y0179880D03*
X0192000Y0180080D03*
X0192000Y0180280D03*
X0192000Y0180480D03*
X0192000Y0180680D03*
X0192000Y0180880D03*
X0192000Y0181080D03*
X0192000Y0181280D03*
X0192000Y0181480D03*
X0192000Y0181680D03*
X0192000Y0181880D03*
X0192000Y0182080D03*
X0192000Y0182280D03*
X0192000Y0182480D03*
X0192000Y0182680D03*
X0192000Y0182880D03*
X0192000Y0183080D03*
X0192000Y0183280D03*
X0192000Y0183480D03*
X0192000Y0183680D03*
X0192000Y0183880D03*
X0192000Y0184080D03*
X0192000Y0184280D03*
X0192000Y0184480D03*
X0192000Y0184680D03*
X0192000Y0184880D03*
X0192000Y0185080D03*
X0192000Y0185280D03*
X0192000Y0185480D03*
X0192000Y0185680D03*
X0192000Y0185880D03*
X0192000Y0186080D03*
X0192000Y0186280D03*
X0192000Y0186480D03*
X0192000Y0186680D03*
X0192000Y0186880D03*
X0192000Y0187080D03*
X0192000Y0187280D03*
X0192000Y0187480D03*
X0192000Y0187680D03*
X0192000Y0187880D03*
X0192000Y0188080D03*
X0192000Y0188280D03*
X0192000Y0188480D03*
X0192000Y0188680D03*
X0192000Y0188880D03*
X0192000Y0189080D03*
X0192000Y0189280D03*
X0192000Y0189480D03*
X0192000Y0189680D03*
X0192000Y0189880D03*
X0192000Y0190080D03*
X0192000Y0190280D03*
X0192000Y0190480D03*
X0192000Y0190680D03*
X0192000Y0190880D03*
X0192000Y0191080D03*
X0192000Y0191280D03*
X0192000Y0191480D03*
X0192000Y0191680D03*
X0192000Y0191880D03*
D37*
X0191980Y0192040D03*
X0190540Y0174840D03*
X0191980Y0173120D03*
X0176540Y0174920D03*
D38*
X0176560Y0174840D03*
X0191960Y0173160D03*
D39*
X0191940Y0173200D03*
X0191940Y0173240D03*
X0191940Y0192120D03*
X0191940Y0192160D03*
D40*
X0191920Y0173280D03*
D41*
X0191900Y0173320D03*
X0191900Y0192240D03*
D42*
X0191880Y0173360D03*
X0176640Y0174640D03*
D43*
X0176660Y0174600D03*
X0191860Y0173400D03*
X0191860Y0192320D03*
X0191860Y0192360D03*
D44*
X0191840Y0192400D03*
X0191840Y0173440D03*
D45*
X0191820Y0173480D03*
D46*
X0191820Y0173520D03*
X0176700Y0174520D03*
X0191820Y0192440D03*
D47*
X0191800Y0173560D03*
D48*
X0191780Y0173600D03*
X0191780Y0192520D03*
X0191780Y0192560D03*
D49*
X0191760Y0173640D03*
D50*
X0191740Y0173680D03*
X0176660Y0174480D03*
D51*
X0176600Y0173720D03*
D52*
X0191720Y0173720D03*
X0191720Y0173760D03*
D53*
X0176580Y0173760D03*
D54*
X0176580Y0173800D03*
D55*
X0191700Y0173800D03*
D56*
X0176580Y0173840D03*
D57*
X0185480Y0181200D03*
X0191680Y0173840D03*
X0191840Y0192600D03*
D58*
X0176580Y0173880D03*
D59*
X0191660Y0173880D03*
D60*
X0189820Y0178240D03*
X0178700Y0189160D03*
X0178700Y0189200D03*
X0176580Y0173920D03*
D61*
X0191640Y0173920D03*
D62*
X0176560Y0173960D03*
X0178560Y0189520D03*
D63*
X0191620Y0174000D03*
X0191620Y0173960D03*
D64*
X0190120Y0177560D03*
X0176560Y0174000D03*
D65*
X0176560Y0174040D03*
X0190240Y0177240D03*
D66*
X0191600Y0174040D03*
D67*
X0190400Y0176880D03*
X0176560Y0174080D03*
D68*
X0191580Y0174080D03*
D69*
X0190560Y0176520D03*
X0176560Y0174120D03*
X0177960Y0190920D03*
D70*
X0191560Y0174120D03*
D71*
X0176540Y0174160D03*
X0177820Y0191240D03*
X0176020Y0193400D03*
X0175980Y0193440D03*
X0175820Y0193640D03*
X0175740Y0193720D03*
X0175580Y0193920D03*
D72*
X0191540Y0174160D03*
D73*
X0190840Y0175840D03*
X0176560Y0174200D03*
X0175440Y0194240D03*
D74*
X0191520Y0174240D03*
X0191520Y0174200D03*
D75*
X0190980Y0175520D03*
X0176540Y0174240D03*
X0175300Y0194560D03*
D76*
X0176540Y0174280D03*
D77*
X0191500Y0174280D03*
D78*
X0191280Y0174800D03*
X0176520Y0174320D03*
D79*
X0191480Y0174320D03*
D80*
X0191440Y0174400D03*
X0176520Y0174360D03*
D81*
X0191460Y0174360D03*
D82*
X0176540Y0174400D03*
D83*
X0176580Y0174440D03*
X0183380Y0183720D03*
D84*
X0191420Y0174440D03*
D85*
X0191400Y0174480D03*
D86*
X0191400Y0174520D03*
D87*
X0176680Y0174560D03*
D88*
X0191380Y0174560D03*
D89*
X0191360Y0174600D03*
D90*
X0191340Y0174640D03*
D91*
X0176640Y0174680D03*
X0191880Y0192280D03*
D92*
X0191320Y0174680D03*
D93*
X0176620Y0174720D03*
D94*
X0191300Y0174720D03*
X0191300Y0174760D03*
X0191860Y0192720D03*
D95*
X0191920Y0192200D03*
X0176600Y0174760D03*
D96*
X0176580Y0174800D03*
D97*
X0192560Y0174840D03*
D98*
X0176560Y0174880D03*
X0191960Y0192080D03*
D99*
X0191240Y0174880D03*
D100*
X0191220Y0174920D03*
X0175060Y0195120D03*
D101*
X0176520Y0174960D03*
D102*
X0191200Y0174960D03*
X0191200Y0175000D03*
D103*
X0176480Y0175040D03*
X0176480Y0175120D03*
X0176480Y0175160D03*
X0176480Y0175200D03*
X0176480Y0175240D03*
X0176480Y0175320D03*
X0176480Y0175360D03*
X0176480Y0175400D03*
X0176480Y0175440D03*
X0176480Y0175520D03*
X0176480Y0175560D03*
X0176480Y0175600D03*
X0176480Y0175640D03*
X0176480Y0175720D03*
X0176480Y0175800D03*
X0176480Y0175840D03*
X0176480Y0175920D03*
X0176480Y0175960D03*
X0176480Y0176000D03*
X0176480Y0176040D03*
X0176480Y0176120D03*
X0176480Y0176160D03*
X0176480Y0176200D03*
X0176480Y0176240D03*
X0176480Y0176320D03*
X0176480Y0176360D03*
X0176480Y0176400D03*
X0176480Y0176440D03*
X0176480Y0176520D03*
X0176480Y0176560D03*
X0176480Y0176600D03*
X0176480Y0176640D03*
X0176480Y0176720D03*
X0176480Y0176760D03*
X0176480Y0176800D03*
X0176480Y0176840D03*
X0176480Y0176920D03*
X0176480Y0176960D03*
X0176480Y0177000D03*
X0176480Y0177040D03*
X0176480Y0177120D03*
X0176480Y0177160D03*
X0176480Y0177200D03*
X0176480Y0177240D03*
X0176480Y0177320D03*
X0176480Y0177360D03*
X0176480Y0177400D03*
X0176480Y0177440D03*
X0176480Y0177520D03*
X0176480Y0177560D03*
X0176480Y0177600D03*
X0176480Y0177640D03*
X0176480Y0177720D03*
X0176480Y0177760D03*
X0176480Y0177800D03*
X0176480Y0177840D03*
X0176480Y0177920D03*
X0176480Y0177960D03*
X0176480Y0178000D03*
X0176480Y0178040D03*
X0176480Y0178120D03*
X0176480Y0178160D03*
X0176480Y0178200D03*
X0176480Y0178240D03*
X0176480Y0178360D03*
X0176480Y0178400D03*
X0176480Y0178440D03*
X0176480Y0178520D03*
X0176480Y0178560D03*
X0176480Y0178600D03*
X0176480Y0178640D03*
X0176480Y0178720D03*
X0176480Y0178760D03*
X0176480Y0178800D03*
X0176480Y0178840D03*
X0176480Y0178920D03*
X0176480Y0178960D03*
X0176480Y0179000D03*
X0176480Y0179040D03*
X0176480Y0179120D03*
X0176480Y0179160D03*
X0176480Y0179200D03*
X0176480Y0179240D03*
X0176480Y0179320D03*
X0176480Y0179360D03*
X0176480Y0179400D03*
X0176480Y0179440D03*
X0176480Y0179520D03*
X0176480Y0179560D03*
X0176480Y0179600D03*
X0176480Y0179640D03*
X0176480Y0179720D03*
X0176480Y0179760D03*
X0176480Y0179800D03*
X0176480Y0179840D03*
X0176480Y0179920D03*
X0176480Y0179960D03*
X0176480Y0180000D03*
X0176480Y0180040D03*
X0176480Y0180120D03*
X0176480Y0180160D03*
X0176480Y0180200D03*
X0176480Y0180240D03*
X0176480Y0180320D03*
X0176480Y0180360D03*
X0176480Y0180400D03*
X0176480Y0180440D03*
X0176480Y0180520D03*
X0176480Y0180560D03*
X0176480Y0180600D03*
X0176480Y0180640D03*
X0176480Y0180720D03*
X0176480Y0180760D03*
X0176480Y0180800D03*
X0176480Y0180840D03*
X0176480Y0180920D03*
X0176480Y0180960D03*
X0176480Y0181000D03*
X0176480Y0181040D03*
X0176480Y0181120D03*
X0176480Y0181160D03*
X0176480Y0181200D03*
X0176480Y0181240D03*
X0176480Y0181320D03*
X0176480Y0181360D03*
X0176480Y0181400D03*
X0176480Y0181440D03*
X0176480Y0181520D03*
X0176480Y0181560D03*
X0176480Y0181600D03*
X0176480Y0181640D03*
X0176480Y0181720D03*
X0176480Y0181760D03*
X0176480Y0181800D03*
X0176480Y0181840D03*
X0176480Y0181920D03*
X0176480Y0181960D03*
X0176480Y0182000D03*
X0176480Y0182040D03*
X0176480Y0182120D03*
X0176480Y0182160D03*
X0176480Y0182200D03*
X0176480Y0182240D03*
X0176480Y0182320D03*
X0176480Y0182360D03*
X0176480Y0182400D03*
X0176480Y0182440D03*
X0176480Y0182520D03*
X0176480Y0182560D03*
X0176480Y0182600D03*
X0176480Y0182640D03*
X0176480Y0182720D03*
X0176480Y0182760D03*
X0176480Y0182800D03*
X0176480Y0182840D03*
X0176480Y0182920D03*
X0176480Y0182960D03*
X0176480Y0183000D03*
X0176480Y0183040D03*
X0176480Y0183120D03*
X0176480Y0183160D03*
X0176480Y0183200D03*
X0176480Y0183240D03*
X0176480Y0183320D03*
X0176480Y0183360D03*
X0176480Y0183400D03*
X0176480Y0183440D03*
X0176480Y0183520D03*
X0176480Y0183560D03*
X0176480Y0183600D03*
X0176480Y0183640D03*
X0176480Y0183720D03*
X0176480Y0183760D03*
X0176480Y0183800D03*
X0176480Y0183840D03*
X0176480Y0183920D03*
X0176480Y0183960D03*
X0176480Y0184000D03*
X0176480Y0184040D03*
X0176480Y0184120D03*
X0176480Y0184160D03*
X0176480Y0184200D03*
X0176480Y0184240D03*
X0176480Y0184320D03*
X0176480Y0184360D03*
X0176480Y0184400D03*
X0176480Y0184440D03*
X0176480Y0184520D03*
X0176480Y0184560D03*
X0176480Y0184600D03*
X0176480Y0184640D03*
X0176480Y0184720D03*
X0176480Y0184760D03*
X0176480Y0184840D03*
X0176480Y0184920D03*
X0176480Y0184960D03*
X0176480Y0185000D03*
X0176480Y0185040D03*
X0176480Y0185120D03*
X0176480Y0185160D03*
X0176480Y0185200D03*
X0176480Y0185240D03*
X0176480Y0185320D03*
X0176480Y0185360D03*
X0176480Y0185400D03*
X0176480Y0185440D03*
X0176480Y0185520D03*
X0176480Y0185560D03*
X0176480Y0185600D03*
X0176480Y0185640D03*
X0176480Y0185720D03*
X0176480Y0185760D03*
X0176480Y0185800D03*
X0176480Y0185840D03*
X0176480Y0185920D03*
X0176480Y0185960D03*
X0176480Y0186000D03*
X0176480Y0186040D03*
X0176480Y0186120D03*
X0176480Y0186160D03*
X0176480Y0186200D03*
X0176480Y0186240D03*
X0176480Y0186320D03*
X0176480Y0186360D03*
X0176480Y0186400D03*
X0176480Y0186440D03*
X0176480Y0186520D03*
X0176480Y0186560D03*
X0176480Y0186600D03*
X0176480Y0186640D03*
X0176480Y0186720D03*
X0176480Y0186760D03*
X0176480Y0186800D03*
X0176480Y0186840D03*
X0176480Y0186920D03*
X0176480Y0186960D03*
X0176480Y0187000D03*
X0176480Y0187040D03*
X0176480Y0187120D03*
X0176480Y0187160D03*
X0176480Y0187200D03*
X0176480Y0187240D03*
X0176480Y0187320D03*
X0176480Y0187360D03*
X0176480Y0187400D03*
X0176480Y0187440D03*
X0176480Y0187520D03*
X0176480Y0187560D03*
X0176480Y0187600D03*
X0176480Y0187640D03*
X0176480Y0187720D03*
X0176480Y0187760D03*
X0176480Y0187800D03*
X0176480Y0187840D03*
X0176480Y0187920D03*
X0176480Y0187960D03*
X0176480Y0188000D03*
X0176480Y0188040D03*
X0176480Y0188120D03*
X0176480Y0188160D03*
X0176480Y0188200D03*
X0176480Y0188240D03*
X0176480Y0188320D03*
X0176480Y0188360D03*
X0176480Y0188400D03*
X0176480Y0188440D03*
X0176480Y0188520D03*
D104*
X0175100Y0195040D03*
X0191180Y0175040D03*
D105*
X0176480Y0175080D03*
X0176480Y0175280D03*
X0176480Y0175480D03*
X0176480Y0175680D03*
X0176480Y0175880D03*
X0176480Y0176080D03*
X0176480Y0176280D03*
X0176480Y0176480D03*
X0176480Y0176680D03*
X0176480Y0176880D03*
X0176480Y0177080D03*
X0176480Y0177280D03*
X0176480Y0177480D03*
X0176480Y0177680D03*
X0176480Y0177880D03*
X0176480Y0178080D03*
X0176480Y0178280D03*
X0176480Y0178480D03*
X0176480Y0178680D03*
X0176480Y0178880D03*
X0176480Y0179080D03*
X0176480Y0179280D03*
X0176480Y0179480D03*
X0176480Y0179680D03*
X0176480Y0179880D03*
X0176480Y0180080D03*
X0176480Y0180280D03*
X0176480Y0180480D03*
X0176480Y0180680D03*
X0176480Y0180880D03*
X0176480Y0181080D03*
X0176480Y0181280D03*
X0176480Y0181480D03*
X0176480Y0181680D03*
X0176480Y0181880D03*
X0176480Y0182080D03*
X0176480Y0182280D03*
X0176480Y0182480D03*
X0176480Y0182680D03*
X0176480Y0182880D03*
X0176480Y0183080D03*
X0176480Y0183280D03*
X0176480Y0183480D03*
X0176480Y0183680D03*
X0176480Y0183880D03*
X0176480Y0184080D03*
X0176480Y0184280D03*
X0176480Y0184480D03*
X0176480Y0184680D03*
X0176480Y0184880D03*
X0176480Y0185080D03*
X0176480Y0185280D03*
X0176480Y0185480D03*
X0176480Y0185680D03*
X0176480Y0185880D03*
X0176480Y0186080D03*
X0176480Y0186280D03*
X0176480Y0186480D03*
X0176480Y0186680D03*
X0176480Y0186880D03*
X0176480Y0187080D03*
X0176480Y0187280D03*
X0176480Y0187480D03*
X0176480Y0187680D03*
X0176480Y0187880D03*
X0176480Y0188080D03*
X0176480Y0188280D03*
X0176480Y0188480D03*
D106*
X0191160Y0175080D03*
D107*
X0191140Y0175120D03*
X0175140Y0194960D03*
D108*
X0175160Y0194920D03*
X0191120Y0175160D03*
D109*
X0191100Y0175200D03*
X0191100Y0175240D03*
D110*
X0191080Y0175280D03*
D111*
X0191060Y0175320D03*
X0175220Y0194760D03*
D112*
X0175240Y0194720D03*
X0191040Y0175360D03*
D113*
X0191020Y0175400D03*
X0191820Y0192800D03*
D114*
X0191000Y0175440D03*
D115*
X0190980Y0175480D03*
X0177540Y0188880D03*
D116*
X0175320Y0194520D03*
X0190960Y0175560D03*
D117*
X0190940Y0175600D03*
D118*
X0190920Y0175640D03*
X0175360Y0194440D03*
D119*
X0190900Y0175680D03*
D120*
X0190880Y0175720D03*
X0190880Y0175760D03*
X0175400Y0194320D03*
X0175400Y0194360D03*
D121*
X0175380Y0178320D03*
X0175380Y0175760D03*
D122*
X0190860Y0175800D03*
X0191820Y0192840D03*
D123*
X0190820Y0175880D03*
D124*
X0190800Y0175920D03*
X0181200Y0187360D03*
X0181000Y0187600D03*
X0180800Y0187840D03*
X0180560Y0188120D03*
X0180400Y0188320D03*
X0180360Y0188360D03*
X0180200Y0188560D03*
D125*
X0180220Y0188520D03*
X0180300Y0188440D03*
X0180340Y0188400D03*
X0180460Y0188240D03*
X0180500Y0188200D03*
X0180540Y0188160D03*
X0180660Y0188000D03*
X0180700Y0187960D03*
X0180740Y0187920D03*
X0180860Y0187760D03*
X0180900Y0187720D03*
X0180980Y0187640D03*
X0181060Y0187520D03*
X0181140Y0187440D03*
X0181180Y0187400D03*
X0181300Y0187240D03*
X0181340Y0187200D03*
X0181380Y0187160D03*
X0181420Y0187120D03*
X0181500Y0187000D03*
X0181540Y0186960D03*
X0181580Y0186920D03*
X0181700Y0186760D03*
X0181740Y0186720D03*
X0181820Y0186640D03*
X0181860Y0186600D03*
X0181900Y0186520D03*
X0181980Y0186440D03*
X0182020Y0186400D03*
X0182060Y0186360D03*
X0182140Y0186240D03*
X0182180Y0186200D03*
X0182220Y0186160D03*
X0182260Y0186120D03*
X0182340Y0186000D03*
X0182380Y0185960D03*
X0182420Y0185920D03*
X0182500Y0185840D03*
X0182540Y0185760D03*
X0182580Y0185720D03*
X0182660Y0185640D03*
X0182700Y0185600D03*
X0182740Y0185560D03*
X0182740Y0185520D03*
X0182820Y0185440D03*
X0182860Y0185400D03*
X0182900Y0185360D03*
X0182940Y0185320D03*
X0182980Y0185240D03*
X0183020Y0185200D03*
X0183060Y0185160D03*
X0183100Y0185120D03*
X0183180Y0185040D03*
X0183180Y0185000D03*
X0183220Y0184960D03*
X0183260Y0184920D03*
X0183340Y0184840D03*
X0183380Y0184800D03*
X0183380Y0184760D03*
X0183420Y0184720D03*
X0183500Y0184640D03*
X0183540Y0184600D03*
X0183580Y0184560D03*
X0183660Y0184440D03*
X0183700Y0184400D03*
X0183740Y0184360D03*
X0183780Y0184320D03*
X0183820Y0184240D03*
X0183860Y0184200D03*
X0183900Y0184160D03*
X0183940Y0184120D03*
X0184020Y0184040D03*
X0184060Y0183960D03*
X0184100Y0183920D03*
X0184180Y0183840D03*
X0184220Y0183800D03*
X0184340Y0183640D03*
X0184380Y0183600D03*
X0184420Y0183560D03*
X0184500Y0183440D03*
X0184540Y0183400D03*
X0184580Y0183360D03*
X0184620Y0183320D03*
X0184700Y0183200D03*
X0184740Y0183160D03*
X0184780Y0183120D03*
X0184860Y0183040D03*
X0184940Y0182920D03*
X0185020Y0182840D03*
X0185060Y0182800D03*
X0185180Y0182640D03*
X0185220Y0182600D03*
X0185260Y0182560D03*
X0185300Y0182520D03*
X0185380Y0182400D03*
X0185420Y0182360D03*
X0185460Y0182320D03*
X0185580Y0182160D03*
X0185620Y0182120D03*
X0185700Y0182040D03*
X0185860Y0181840D03*
X0185900Y0181800D03*
X0186020Y0181640D03*
X0186060Y0181600D03*
X0186100Y0181560D03*
X0186140Y0181520D03*
X0186220Y0181400D03*
X0186260Y0181360D03*
X0186300Y0181320D03*
X0186460Y0181120D03*
X0186540Y0181040D03*
X0186700Y0180840D03*
X0186740Y0180800D03*
X0186900Y0180600D03*
X0186940Y0180560D03*
X0186980Y0180520D03*
X0187100Y0180360D03*
X0187140Y0180320D03*
X0187380Y0180040D03*
X0187540Y0179840D03*
X0187580Y0179800D03*
X0187620Y0179760D03*
X0187780Y0179560D03*
X0187820Y0179520D03*
X0187980Y0179320D03*
X0188220Y0179040D03*
X0190780Y0176000D03*
X0190780Y0175960D03*
X0175500Y0194120D03*
D126*
X0175520Y0194040D03*
X0177240Y0192000D03*
X0177440Y0191760D03*
X0177480Y0191720D03*
X0177560Y0191640D03*
X0177600Y0191600D03*
X0177720Y0191440D03*
X0177760Y0191400D03*
X0183600Y0184520D03*
X0184040Y0184000D03*
X0184240Y0183760D03*
X0184440Y0183520D03*
X0184680Y0183240D03*
X0184880Y0183000D03*
X0184920Y0182960D03*
X0185080Y0182760D03*
X0185120Y0182720D03*
X0185360Y0182440D03*
X0185520Y0182240D03*
X0185560Y0182200D03*
X0185720Y0182000D03*
X0185760Y0181960D03*
X0185800Y0181920D03*
X0185920Y0181760D03*
X0185960Y0181720D03*
X0186200Y0181440D03*
X0186360Y0181240D03*
X0186440Y0181160D03*
X0186560Y0181000D03*
X0186600Y0180960D03*
X0186640Y0180920D03*
X0186760Y0180760D03*
X0186800Y0180720D03*
X0186880Y0180640D03*
X0187040Y0180440D03*
X0187080Y0180400D03*
X0187200Y0180240D03*
X0187240Y0180200D03*
X0187280Y0180160D03*
X0187320Y0180120D03*
X0187400Y0180000D03*
X0187440Y0179960D03*
X0187480Y0179920D03*
X0187640Y0179720D03*
X0187720Y0179640D03*
X0187760Y0179600D03*
X0187880Y0179440D03*
X0187920Y0179400D03*
X0187960Y0179360D03*
X0188040Y0179240D03*
X0188080Y0179200D03*
X0188120Y0179160D03*
X0188160Y0179120D03*
X0190760Y0176040D03*
D127*
X0190740Y0176080D03*
X0176820Y0192480D03*
D128*
X0176760Y0192560D03*
X0176720Y0192600D03*
X0176680Y0192640D03*
X0176520Y0192840D03*
X0176440Y0192920D03*
X0176400Y0192960D03*
X0176360Y0193000D03*
X0176320Y0193040D03*
X0176280Y0193120D03*
X0176240Y0193160D03*
X0176200Y0193200D03*
X0176160Y0193240D03*
X0176080Y0193320D03*
X0175920Y0193520D03*
X0175880Y0193560D03*
X0175560Y0193960D03*
X0176960Y0192320D03*
X0177800Y0191320D03*
X0190720Y0176120D03*
D129*
X0190700Y0176160D03*
X0176060Y0193360D03*
X0175860Y0193600D03*
X0175700Y0193760D03*
X0175660Y0193800D03*
X0175660Y0193840D03*
D130*
X0177840Y0191200D03*
X0190680Y0176200D03*
D131*
X0190660Y0176240D03*
X0177860Y0191160D03*
D132*
X0190660Y0176280D03*
D133*
X0190640Y0176320D03*
D134*
X0190620Y0176360D03*
D135*
X0190600Y0176400D03*
D136*
X0190580Y0176440D03*
X0177940Y0190960D03*
X0177940Y0191000D03*
X0191780Y0192920D03*
D137*
X0190560Y0176480D03*
D138*
X0190540Y0176560D03*
D139*
X0190520Y0176600D03*
X0178000Y0190840D03*
D140*
X0190500Y0176640D03*
D141*
X0190480Y0176680D03*
D142*
X0190460Y0176720D03*
X0190460Y0176760D03*
D143*
X0190440Y0176800D03*
D144*
X0190420Y0176840D03*
X0178100Y0190600D03*
X0191780Y0192960D03*
D145*
X0178140Y0190520D03*
X0190380Y0176920D03*
D146*
X0190360Y0176960D03*
X0190360Y0177000D03*
X0178160Y0190440D03*
D147*
X0190340Y0177040D03*
D148*
X0190320Y0177080D03*
D149*
X0190300Y0177120D03*
D150*
X0190280Y0177160D03*
X0191760Y0193000D03*
D151*
X0178260Y0190240D03*
X0178260Y0190200D03*
X0190260Y0177200D03*
D152*
X0190240Y0177280D03*
D153*
X0190220Y0177320D03*
X0178300Y0190120D03*
D154*
X0190200Y0177360D03*
D155*
X0190180Y0177400D03*
X0178340Y0190040D03*
D156*
X0176980Y0184800D03*
X0187780Y0177440D03*
D157*
X0190900Y0177440D03*
D158*
X0190140Y0177480D03*
D159*
X0190140Y0177520D03*
X0191740Y0193040D03*
D160*
X0190100Y0177600D03*
D161*
X0190080Y0177640D03*
X0178440Y0189800D03*
D162*
X0190060Y0177680D03*
D163*
X0190040Y0177720D03*
X0190040Y0177760D03*
D164*
X0190020Y0177800D03*
X0178500Y0189640D03*
D165*
X0190000Y0177840D03*
D166*
X0189980Y0177880D03*
X0191740Y0193080D03*
D167*
X0188420Y0177920D03*
D168*
X0191740Y0177920D03*
D169*
X0189940Y0177960D03*
X0189940Y0178000D03*
D170*
X0189920Y0178040D03*
X0178600Y0189400D03*
X0178600Y0189440D03*
D171*
X0189900Y0178080D03*
D172*
X0189880Y0178120D03*
X0178640Y0189320D03*
D173*
X0189860Y0178160D03*
D174*
X0189840Y0178200D03*
X0191720Y0193120D03*
D175*
X0189820Y0178280D03*
D176*
X0189800Y0178320D03*
D177*
X0189780Y0178360D03*
X0178740Y0188600D03*
D178*
X0178760Y0189040D03*
X0189760Y0178400D03*
D179*
X0189740Y0178440D03*
D180*
X0189720Y0178480D03*
D181*
X0189720Y0178520D03*
X0178800Y0188960D03*
D182*
X0189700Y0178560D03*
X0191700Y0193160D03*
D183*
X0178840Y0188840D03*
X0189680Y0178600D03*
D184*
X0189660Y0178640D03*
X0178860Y0188800D03*
D185*
X0189640Y0178680D03*
D186*
X0189620Y0178720D03*
X0189620Y0178760D03*
X0178900Y0188720D03*
D187*
X0189600Y0178800D03*
D188*
X0189580Y0178840D03*
D189*
X0189560Y0178880D03*
D190*
X0189540Y0178920D03*
D191*
X0189520Y0178960D03*
D192*
X0189500Y0179000D03*
D193*
X0192000Y0179040D03*
X0192000Y0179120D03*
X0192000Y0179160D03*
X0192000Y0179200D03*
X0192000Y0179240D03*
X0192000Y0179320D03*
X0192000Y0179360D03*
X0192000Y0179400D03*
X0192000Y0179440D03*
X0192000Y0179520D03*
X0192000Y0179560D03*
X0192000Y0179600D03*
X0192000Y0179640D03*
X0192000Y0179720D03*
X0192000Y0179760D03*
X0192000Y0179800D03*
X0192000Y0179840D03*
X0192000Y0179920D03*
X0192000Y0179960D03*
X0192000Y0180000D03*
X0192000Y0180040D03*
X0192000Y0180120D03*
X0192000Y0180160D03*
X0192000Y0180200D03*
X0192000Y0180240D03*
X0192000Y0180320D03*
X0192000Y0180360D03*
X0192000Y0180400D03*
X0192000Y0180440D03*
X0192000Y0180520D03*
X0192000Y0180560D03*
X0192000Y0180600D03*
X0192000Y0180640D03*
X0192000Y0180720D03*
X0192000Y0180760D03*
X0192000Y0180800D03*
X0192000Y0180840D03*
X0192000Y0180920D03*
X0192000Y0180960D03*
X0192000Y0181000D03*
X0192000Y0181040D03*
X0192000Y0181120D03*
X0192000Y0181160D03*
X0192000Y0181200D03*
X0192000Y0181240D03*
X0192000Y0181320D03*
X0192000Y0181360D03*
X0192000Y0181400D03*
X0192000Y0181440D03*
X0192000Y0181520D03*
X0192000Y0181560D03*
X0192000Y0181600D03*
X0192000Y0181640D03*
X0192000Y0181720D03*
X0192000Y0181760D03*
X0192000Y0181800D03*
X0192000Y0181840D03*
X0192000Y0181920D03*
X0192000Y0181960D03*
X0192000Y0182000D03*
X0192000Y0182040D03*
X0192000Y0182120D03*
X0192000Y0182160D03*
X0192000Y0182200D03*
X0192000Y0182240D03*
X0192000Y0182320D03*
X0192000Y0182360D03*
X0192000Y0182400D03*
X0192000Y0182440D03*
X0192000Y0182520D03*
X0192000Y0182560D03*
X0192000Y0182600D03*
X0192000Y0182640D03*
X0192000Y0182720D03*
X0192000Y0182760D03*
X0192000Y0182800D03*
X0192000Y0182840D03*
X0192000Y0182920D03*
X0192000Y0182960D03*
X0192000Y0183000D03*
X0192000Y0183040D03*
X0192000Y0183120D03*
X0192000Y0183160D03*
X0192000Y0183200D03*
X0192000Y0183240D03*
X0192000Y0183320D03*
X0192000Y0183360D03*
X0192000Y0183400D03*
X0192000Y0183440D03*
X0192000Y0183520D03*
X0192000Y0183560D03*
X0192000Y0183600D03*
X0192000Y0183640D03*
X0192000Y0183720D03*
X0192000Y0183760D03*
X0192000Y0183800D03*
X0192000Y0183840D03*
X0192000Y0183920D03*
X0192000Y0183960D03*
X0192000Y0184000D03*
X0192000Y0184040D03*
X0192000Y0184120D03*
X0192000Y0184160D03*
X0192000Y0184200D03*
X0192000Y0184240D03*
X0192000Y0184320D03*
X0192000Y0184360D03*
X0192000Y0184400D03*
X0192000Y0184440D03*
X0192000Y0184520D03*
X0192000Y0184560D03*
X0192000Y0184600D03*
X0192000Y0184640D03*
X0192000Y0184720D03*
X0192000Y0184760D03*
X0192000Y0184800D03*
X0192000Y0184840D03*
X0192000Y0184920D03*
X0192000Y0184960D03*
X0192000Y0185000D03*
X0192000Y0185040D03*
X0192000Y0185120D03*
X0192000Y0185160D03*
X0192000Y0185200D03*
X0192000Y0185240D03*
X0192000Y0185320D03*
X0192000Y0185360D03*
X0192000Y0185400D03*
X0192000Y0185440D03*
X0192000Y0185520D03*
X0192000Y0185560D03*
X0192000Y0185600D03*
X0192000Y0185640D03*
X0192000Y0185720D03*
X0192000Y0185760D03*
X0192000Y0185800D03*
X0192000Y0185840D03*
X0192000Y0185920D03*
X0192000Y0185960D03*
X0192000Y0186000D03*
X0192000Y0186040D03*
X0192000Y0186120D03*
X0192000Y0186160D03*
X0192000Y0186200D03*
X0192000Y0186240D03*
X0192000Y0186320D03*
X0192000Y0186360D03*
X0192000Y0186400D03*
X0192000Y0186440D03*
X0192000Y0186520D03*
X0192000Y0186560D03*
X0192000Y0186600D03*
X0192000Y0186640D03*
X0192000Y0186720D03*
X0192000Y0186760D03*
X0192000Y0186800D03*
X0192000Y0186840D03*
X0192000Y0186920D03*
X0192000Y0186960D03*
X0192000Y0187000D03*
X0192000Y0187040D03*
X0192000Y0187120D03*
X0192000Y0187160D03*
X0192000Y0187200D03*
X0192000Y0187240D03*
X0192000Y0187320D03*
X0192000Y0187360D03*
X0192000Y0187400D03*
X0192000Y0187440D03*
X0192000Y0187520D03*
X0192000Y0187560D03*
X0192000Y0187600D03*
X0192000Y0187640D03*
X0192000Y0187720D03*
X0192000Y0187760D03*
X0192000Y0187800D03*
X0192000Y0187840D03*
X0192000Y0187920D03*
X0192000Y0187960D03*
X0192000Y0188000D03*
X0192000Y0188040D03*
X0192000Y0188120D03*
X0192000Y0188160D03*
X0192000Y0188200D03*
X0192000Y0188240D03*
X0192000Y0188320D03*
X0192000Y0188360D03*
X0192000Y0188400D03*
X0192000Y0188440D03*
X0192000Y0188520D03*
X0192000Y0188560D03*
X0192000Y0188600D03*
X0192000Y0188640D03*
X0192000Y0188720D03*
X0192000Y0188760D03*
X0192000Y0188800D03*
X0192000Y0188840D03*
X0192000Y0188920D03*
X0192000Y0188960D03*
X0192000Y0189000D03*
X0192000Y0189040D03*
X0192000Y0189120D03*
X0192000Y0189160D03*
X0192000Y0189200D03*
X0192000Y0189240D03*
X0192000Y0189320D03*
X0192000Y0189360D03*
X0192000Y0189400D03*
X0192000Y0189440D03*
X0192000Y0189520D03*
X0192000Y0189560D03*
X0192000Y0189600D03*
X0192000Y0189640D03*
X0192000Y0189720D03*
X0192000Y0189760D03*
X0192000Y0189800D03*
X0192000Y0189840D03*
X0192000Y0189920D03*
X0192000Y0189960D03*
X0192000Y0190000D03*
X0192000Y0190040D03*
X0192000Y0190120D03*
X0192000Y0190160D03*
X0192000Y0190200D03*
X0192000Y0190240D03*
X0192000Y0190320D03*
X0192000Y0190360D03*
X0192000Y0190400D03*
X0192000Y0190440D03*
X0192000Y0190520D03*
X0192000Y0190560D03*
X0192000Y0190600D03*
X0192000Y0190640D03*
X0192000Y0190720D03*
X0192000Y0190760D03*
X0192000Y0190800D03*
X0192000Y0190840D03*
X0192000Y0190920D03*
X0192000Y0190960D03*
X0192000Y0191000D03*
X0192000Y0191040D03*
X0192000Y0191120D03*
X0192000Y0191160D03*
X0192000Y0191200D03*
X0192000Y0191240D03*
X0192000Y0191320D03*
X0192000Y0191360D03*
X0192000Y0191400D03*
X0192000Y0191440D03*
X0192000Y0191520D03*
X0192000Y0191560D03*
X0192000Y0191600D03*
X0192000Y0191640D03*
X0192000Y0191720D03*
X0192000Y0191760D03*
X0192000Y0191800D03*
X0192000Y0191840D03*
X0192000Y0191920D03*
X0192000Y0191960D03*
X0192000Y0192000D03*
D194*
X0184480Y0183480D03*
X0185320Y0182480D03*
X0186000Y0181680D03*
X0186160Y0181480D03*
X0186840Y0180680D03*
X0187000Y0180480D03*
X0187520Y0179880D03*
X0187680Y0179680D03*
X0187840Y0179480D03*
X0188200Y0179080D03*
X0177680Y0191480D03*
X0177520Y0191680D03*
X0177360Y0191880D03*
D195*
X0175500Y0194080D03*
X0180260Y0188480D03*
X0180420Y0188280D03*
X0180780Y0187880D03*
X0180940Y0187680D03*
X0181100Y0187480D03*
X0181260Y0187280D03*
X0181620Y0186880D03*
X0181780Y0186680D03*
X0181940Y0186480D03*
X0182100Y0186280D03*
X0182300Y0186080D03*
X0182460Y0185880D03*
X0182620Y0185680D03*
X0182780Y0185480D03*
X0183140Y0185080D03*
X0183300Y0184880D03*
X0183460Y0184680D03*
X0183620Y0184480D03*
X0183820Y0184280D03*
X0183980Y0184080D03*
X0184140Y0183880D03*
X0184300Y0183680D03*
X0184660Y0183280D03*
X0184820Y0183080D03*
X0184980Y0182880D03*
X0185140Y0182680D03*
X0185500Y0182280D03*
X0185660Y0182080D03*
X0185820Y0181880D03*
X0186340Y0181280D03*
X0186500Y0181080D03*
X0186660Y0180880D03*
X0187180Y0180280D03*
X0187340Y0180080D03*
X0188020Y0179280D03*
D196*
X0185880Y0183720D03*
D197*
X0175740Y0184800D03*
D198*
X0180600Y0188080D03*
X0182960Y0185280D03*
D199*
X0182520Y0185800D03*
X0182320Y0186040D03*
X0182080Y0186320D03*
X0181880Y0186560D03*
X0181680Y0186800D03*
X0181640Y0186840D03*
X0181480Y0187040D03*
X0181240Y0187320D03*
X0181040Y0187560D03*
X0180840Y0187800D03*
X0180640Y0188040D03*
X0175480Y0194160D03*
D200*
X0181440Y0187080D03*
D201*
X0176020Y0188560D03*
D202*
X0177260Y0188560D03*
D203*
X0182440Y0188600D03*
D204*
X0178920Y0188640D03*
D205*
X0178920Y0188680D03*
D206*
X0178880Y0188760D03*
D207*
X0181120Y0188880D03*
D208*
X0178820Y0188920D03*
D209*
X0178780Y0189000D03*
D210*
X0178740Y0189080D03*
D211*
X0178720Y0189120D03*
D212*
X0178680Y0189240D03*
D213*
X0178660Y0189280D03*
D214*
X0178620Y0189360D03*
D215*
X0178580Y0189480D03*
D216*
X0178540Y0189560D03*
D217*
X0178520Y0189600D03*
D218*
X0178480Y0189680D03*
D219*
X0178480Y0189720D03*
D220*
X0178460Y0189760D03*
D221*
X0178420Y0189840D03*
D222*
X0178400Y0189880D03*
D223*
X0178380Y0189920D03*
X0178380Y0189960D03*
D224*
X0178360Y0190000D03*
D225*
X0178320Y0190080D03*
D226*
X0178280Y0190160D03*
D227*
X0178240Y0190280D03*
D228*
X0178220Y0190320D03*
D229*
X0178200Y0190360D03*
D230*
X0178180Y0190400D03*
D231*
X0178160Y0190480D03*
D232*
X0175580Y0190560D03*
D233*
X0177260Y0191960D03*
X0177300Y0191920D03*
X0177220Y0192040D03*
X0177140Y0192120D03*
X0177060Y0192200D03*
X0177020Y0192240D03*
X0176940Y0192360D03*
X0176900Y0192400D03*
X0176860Y0192440D03*
X0176620Y0192720D03*
X0176540Y0192800D03*
X0177420Y0191800D03*
X0177620Y0191560D03*
X0177660Y0191520D03*
X0178460Y0190560D03*
X0175540Y0194000D03*
D234*
X0178080Y0190640D03*
D235*
X0178060Y0190680D03*
D236*
X0178040Y0190720D03*
X0178040Y0190760D03*
D237*
X0178020Y0190800D03*
D238*
X0177980Y0190880D03*
D239*
X0177920Y0191040D03*
D240*
X0177900Y0191080D03*
D241*
X0177880Y0191120D03*
D242*
X0177820Y0191280D03*
X0175780Y0193680D03*
X0175620Y0193880D03*
D243*
X0176580Y0192760D03*
X0176780Y0192520D03*
X0177380Y0191840D03*
X0177780Y0191360D03*
D244*
X0177180Y0192080D03*
X0176980Y0192280D03*
D245*
X0176440Y0192160D03*
D246*
X0178980Y0192160D03*
D247*
X0191800Y0192480D03*
D248*
X0191880Y0192640D03*
D249*
X0191800Y0192880D03*
X0176640Y0192680D03*
X0176480Y0192880D03*
X0176320Y0193080D03*
X0176120Y0193280D03*
X0175960Y0193480D03*
D250*
X0191860Y0192680D03*
D251*
X0191840Y0192760D03*
X0175120Y0195000D03*
D252*
X0191680Y0193200D03*
D253*
X0191680Y0193240D03*
D254*
X0191660Y0193280D03*
D255*
X0191640Y0193320D03*
D256*
X0191720Y0193360D03*
D257*
X0191780Y0193400D03*
D258*
X0191840Y0193440D03*
D259*
X0191880Y0193480D03*
X0191880Y0193680D03*
X0191880Y0193880D03*
X0191880Y0194080D03*
X0191880Y0194280D03*
X0191880Y0194480D03*
X0191880Y0194680D03*
X0191880Y0194880D03*
D260*
X0191880Y0194920D03*
X0191880Y0194960D03*
X0191880Y0194840D03*
X0191880Y0194800D03*
X0191880Y0194760D03*
X0191880Y0194720D03*
X0191880Y0194640D03*
X0191880Y0194600D03*
X0191880Y0194560D03*
X0191880Y0194520D03*
X0191880Y0194440D03*
X0191880Y0194400D03*
X0191880Y0194360D03*
X0191880Y0194320D03*
X0191880Y0194240D03*
X0191880Y0194200D03*
X0191880Y0194160D03*
X0191880Y0194120D03*
X0191880Y0194040D03*
X0191880Y0194000D03*
X0191880Y0193960D03*
X0191880Y0193920D03*
X0191880Y0193840D03*
X0191880Y0193800D03*
X0191880Y0193760D03*
X0191880Y0193720D03*
X0191880Y0193640D03*
X0191880Y0193600D03*
X0191880Y0193560D03*
X0191880Y0193520D03*
D261*
X0175460Y0194200D03*
D262*
X0175420Y0194280D03*
D263*
X0175380Y0194400D03*
D264*
X0175340Y0194480D03*
D265*
X0175280Y0194600D03*
X0175280Y0194640D03*
D266*
X0175260Y0194680D03*
D267*
X0175200Y0194800D03*
D268*
X0175180Y0194840D03*
D269*
X0174640Y0194880D03*
D270*
X0176820Y0194880D03*
D271*
X0175080Y0195080D03*
D272*
X0111800Y0171800D02*
X0105800Y0171800D01*
X0105798Y0171674D01*
X0105792Y0171549D01*
X0105782Y0171424D01*
X0105768Y0171299D01*
X0105751Y0171174D01*
X0105729Y0171050D01*
X0105704Y0170927D01*
X0105674Y0170805D01*
X0105641Y0170684D01*
X0105604Y0170564D01*
X0105564Y0170445D01*
X0105519Y0170328D01*
X0105471Y0170211D01*
X0105419Y0170097D01*
X0105364Y0169984D01*
X0105305Y0169873D01*
X0105243Y0169764D01*
X0105177Y0169657D01*
X0105108Y0169552D01*
X0105036Y0169449D01*
X0104961Y0169348D01*
X0104882Y0169250D01*
X0104800Y0169155D01*
X0104716Y0169062D01*
X0104628Y0168972D01*
X0104538Y0168884D01*
X0104445Y0168800D01*
X0104350Y0168718D01*
X0104252Y0168639D01*
X0104151Y0168564D01*
X0104048Y0168492D01*
X0103943Y0168423D01*
X0103836Y0168357D01*
X0103727Y0168295D01*
X0103616Y0168236D01*
X0103503Y0168181D01*
X0103389Y0168129D01*
X0103272Y0168081D01*
X0103155Y0168036D01*
X0103036Y0167996D01*
X0102916Y0167959D01*
X0102795Y0167926D01*
X0102673Y0167896D01*
X0102550Y0167871D01*
X0102426Y0167849D01*
X0102301Y0167832D01*
X0102176Y0167818D01*
X0102051Y0167808D01*
X0101926Y0167802D01*
X0101800Y0167800D01*
X0101674Y0167802D01*
X0101549Y0167808D01*
X0101424Y0167818D01*
X0101299Y0167832D01*
X0101174Y0167849D01*
X0101050Y0167871D01*
X0100927Y0167896D01*
X0100805Y0167926D01*
X0100684Y0167959D01*
X0100564Y0167996D01*
X0100445Y0168036D01*
X0100328Y0168081D01*
X0100211Y0168129D01*
X0100097Y0168181D01*
X0099984Y0168236D01*
X0099873Y0168295D01*
X0099764Y0168357D01*
X0099657Y0168423D01*
X0099552Y0168492D01*
X0099449Y0168564D01*
X0099348Y0168639D01*
X0099250Y0168718D01*
X0099155Y0168800D01*
X0099062Y0168884D01*
X0098972Y0168972D01*
X0098884Y0169062D01*
X0098800Y0169155D01*
X0098718Y0169250D01*
X0098639Y0169348D01*
X0098564Y0169449D01*
X0098492Y0169552D01*
X0098423Y0169657D01*
X0098357Y0169764D01*
X0098295Y0169873D01*
X0098236Y0169984D01*
X0098181Y0170097D01*
X0098129Y0170211D01*
X0098081Y0170328D01*
X0098036Y0170445D01*
X0097996Y0170564D01*
X0097959Y0170684D01*
X0097926Y0170805D01*
X0097896Y0170927D01*
X0097871Y0171050D01*
X0097849Y0171174D01*
X0097832Y0171299D01*
X0097818Y0171424D01*
X0097808Y0171549D01*
X0097802Y0171674D01*
X0097800Y0171800D01*
X0091800Y0171800D01*
X0091800Y0031800D01*
X0111800Y0031800D01*
X0111800Y0171800D01*
X0069300Y0096800D02*
X0064300Y0096800D01*
X0061800Y0094300D01*
X0061800Y0089300D01*
X0064300Y0086800D01*
X0061800Y0084300D01*
X0061800Y0079300D01*
X0064300Y0076800D01*
X0061800Y0074300D01*
X0061800Y0069300D01*
X0064300Y0066800D01*
X0069300Y0066800D01*
X0071800Y0069300D01*
X0071800Y0074300D01*
X0069300Y0076800D01*
X0071800Y0079300D01*
X0071800Y0084300D01*
X0069300Y0086800D01*
X0071800Y0089300D01*
X0071800Y0094300D01*
X0069300Y0096800D01*
X0056800Y0026800D02*
X0036800Y0026800D01*
X0034300Y0021800D01*
X0031800Y0019300D01*
X0031800Y0014300D01*
X0034300Y0011800D01*
X0036800Y0006800D01*
X0056800Y0006800D01*
X0059300Y0011800D01*
X0061800Y0014300D01*
X0061800Y0019300D01*
X0059300Y0021800D01*
X0056800Y0026800D01*
X0121800Y0019300D02*
X0121800Y0014300D01*
X0124300Y0011800D01*
X0126800Y0006800D01*
X0146800Y0006800D01*
X0149300Y0011800D01*
X0151800Y0014300D01*
X0151800Y0019300D01*
X0149300Y0021800D01*
X0146800Y0026800D01*
X0126800Y0026800D01*
X0124300Y0021800D01*
X0121800Y0019300D01*
D273*
X0131800Y0016800D02*
X0134300Y0016800D01*
X0139300Y0014300D01*
X0139300Y0016800D02*
X0141800Y0016800D01*
X0161131Y0011446D02*
X0196564Y0011446D01*
X0196564Y0042154D01*
X0161131Y0042154D01*
X0161131Y0011446D01*
X0174910Y0023847D02*
X0174910Y0029753D01*
X0194595Y0031721D01*
X0194595Y0034674D02*
X0176879Y0032706D01*
X0176879Y0040580D02*
X0194595Y0038611D01*
X0194595Y0034674D01*
X0194595Y0021879D02*
X0174910Y0023847D01*
X0178847Y0020894D02*
X0194595Y0018926D01*
X0194595Y0014989D01*
X0178847Y0013020D01*
X0144050Y0047889D02*
X0143299Y0047138D01*
X0144050Y0047889D02*
X0144050Y0049390D01*
X0143299Y0050141D01*
X0142549Y0050141D01*
X0141798Y0049390D01*
X0141798Y0048639D01*
X0141798Y0049390D02*
X0141047Y0050141D01*
X0140297Y0050141D01*
X0139546Y0049390D01*
X0139546Y0047889D01*
X0140297Y0047138D01*
X0140297Y0051742D02*
X0139546Y0052493D01*
X0139546Y0053994D01*
X0140297Y0054745D01*
X0141047Y0054745D01*
X0141798Y0053994D01*
X0142549Y0054745D01*
X0143299Y0054745D01*
X0144050Y0053994D01*
X0144050Y0052493D01*
X0143299Y0051742D01*
X0141798Y0053243D02*
X0141798Y0053994D01*
X0140297Y0056346D02*
X0139546Y0057097D01*
X0139546Y0058598D01*
X0140297Y0059349D01*
X0143299Y0056346D01*
X0144050Y0057097D01*
X0144050Y0058598D01*
X0143299Y0059349D01*
X0140297Y0059349D01*
X0140297Y0056346D02*
X0143299Y0056346D01*
X0134299Y0044949D02*
X0135050Y0044198D01*
X0135050Y0042697D01*
X0134299Y0041946D01*
X0135050Y0040345D02*
X0133549Y0038843D01*
X0133549Y0039594D02*
X0133549Y0037342D01*
X0135050Y0037342D02*
X0130546Y0037342D01*
X0130546Y0039594D01*
X0131297Y0040345D01*
X0132798Y0040345D01*
X0133549Y0039594D01*
X0131297Y0041946D02*
X0130546Y0042697D01*
X0130546Y0044198D01*
X0131297Y0044949D01*
X0132047Y0044949D01*
X0132798Y0044198D01*
X0133549Y0044949D01*
X0134299Y0044949D01*
X0132798Y0044198D02*
X0132798Y0043447D01*
X0106264Y0028635D02*
X0106264Y0028318D01*
X0104996Y0027050D01*
X0106264Y0027050D01*
X0106264Y0028635D02*
X0105947Y0028952D01*
X0105313Y0028952D01*
X0104996Y0028635D01*
X0104054Y0028635D02*
X0104054Y0028318D01*
X0103737Y0028001D01*
X0104054Y0027684D01*
X0104054Y0027367D01*
X0103737Y0027050D01*
X0103104Y0027050D01*
X0102787Y0027367D01*
X0103420Y0028001D02*
X0103737Y0028001D01*
X0104054Y0028635D02*
X0103737Y0028952D01*
X0103104Y0028952D01*
X0102787Y0028635D01*
X0101844Y0028635D02*
X0101528Y0028952D01*
X0100894Y0028952D01*
X0100577Y0028635D01*
X0100577Y0027367D01*
X0100894Y0027050D01*
X0101528Y0027050D01*
X0101844Y0027367D01*
X0099737Y0027050D02*
X0099103Y0027050D01*
X0099420Y0027050D02*
X0099420Y0028952D01*
X0099103Y0028952D02*
X0099737Y0028952D01*
X0098161Y0028635D02*
X0098161Y0028001D01*
X0097844Y0027684D01*
X0096894Y0027684D01*
X0096894Y0027050D02*
X0096894Y0028952D01*
X0097844Y0028952D01*
X0098161Y0028635D01*
X0093468Y0013054D02*
X0093468Y0008550D01*
X0090466Y0013054D01*
X0090466Y0008550D01*
X0088864Y0008550D02*
X0085862Y0008550D01*
X0085862Y0013054D01*
X0088864Y0013054D01*
X0087363Y0010802D02*
X0085862Y0010802D01*
X0084260Y0013054D02*
X0081258Y0013054D01*
X0081258Y0008550D01*
X0084260Y0008550D01*
X0082759Y0010802D02*
X0081258Y0010802D01*
X0079656Y0010802D02*
X0078906Y0010051D01*
X0076654Y0010051D01*
X0076654Y0008550D02*
X0076654Y0013054D01*
X0078906Y0013054D01*
X0079656Y0012303D01*
X0079656Y0010802D01*
X0078155Y0010051D02*
X0079656Y0008550D01*
X0075053Y0009301D02*
X0075053Y0010802D01*
X0073551Y0010802D01*
X0072050Y0012303D02*
X0072050Y0009301D01*
X0072801Y0008550D01*
X0074302Y0008550D01*
X0075053Y0009301D01*
X0075053Y0012303D02*
X0074302Y0013054D01*
X0072801Y0013054D01*
X0072050Y0012303D01*
X0051800Y0016800D02*
X0049300Y0016800D01*
X0049300Y0014300D02*
X0044300Y0016800D01*
X0041800Y0016800D01*
X0056797Y0038050D02*
X0059799Y0038050D01*
X0060550Y0038801D01*
X0060550Y0040302D01*
X0059799Y0041053D01*
X0058298Y0042654D02*
X0058298Y0045656D01*
X0056046Y0044906D02*
X0058298Y0042654D01*
X0056797Y0041053D02*
X0056046Y0040302D01*
X0056046Y0038801D01*
X0056797Y0038050D01*
X0056046Y0044906D02*
X0060550Y0044906D01*
X0051550Y0054638D02*
X0051550Y0057641D01*
X0051550Y0056139D02*
X0047046Y0056139D01*
X0048547Y0054638D01*
X0047797Y0059242D02*
X0047046Y0059993D01*
X0047046Y0061494D01*
X0047797Y0062245D01*
X0050799Y0059242D01*
X0051550Y0059993D01*
X0051550Y0061494D01*
X0050799Y0062245D01*
X0047797Y0062245D01*
X0047046Y0063846D02*
X0051550Y0063846D01*
X0050049Y0063846D02*
X0047046Y0066849D01*
X0049298Y0064597D02*
X0051550Y0066849D01*
X0050799Y0059242D02*
X0047797Y0059242D01*
X0043050Y0054406D02*
X0038546Y0054406D01*
X0040798Y0052154D01*
X0040798Y0055156D01*
X0040798Y0050553D02*
X0039297Y0050553D01*
X0038546Y0049802D01*
X0038546Y0047550D01*
X0043050Y0047550D01*
X0041549Y0047550D02*
X0041549Y0049802D01*
X0040798Y0050553D01*
X0041549Y0049051D02*
X0043050Y0050553D01*
X0034050Y0054638D02*
X0034050Y0057641D01*
X0034050Y0056139D02*
X0029546Y0056139D01*
X0031047Y0054638D01*
X0030297Y0059242D02*
X0029546Y0059993D01*
X0029546Y0061494D01*
X0030297Y0062245D01*
X0033299Y0059242D01*
X0034050Y0059993D01*
X0034050Y0061494D01*
X0033299Y0062245D01*
X0030297Y0062245D01*
X0029546Y0063846D02*
X0034050Y0063846D01*
X0032549Y0063846D02*
X0029546Y0066849D01*
X0031798Y0064597D02*
X0034050Y0066849D01*
X0033299Y0059242D02*
X0030297Y0059242D01*
X0025550Y0055156D02*
X0025550Y0052154D01*
X0025550Y0053655D02*
X0021046Y0053655D01*
X0022547Y0052154D01*
X0021797Y0050553D02*
X0023298Y0050553D01*
X0024049Y0049802D01*
X0024049Y0047550D01*
X0025550Y0047550D02*
X0021046Y0047550D01*
X0021046Y0049802D01*
X0021797Y0050553D01*
X0024049Y0049051D02*
X0025550Y0050553D01*
X0016800Y0050654D02*
X0012946Y0050654D01*
X0013444Y0050156D02*
X0016800Y0050156D01*
X0016800Y0049657D02*
X0013943Y0049657D01*
X0014441Y0049159D02*
X0016800Y0049159D01*
X0016800Y0048660D02*
X0014940Y0048660D01*
X0015438Y0048162D02*
X0016800Y0048162D01*
X0016800Y0047663D02*
X0015937Y0047663D01*
X0016435Y0047165D02*
X0016800Y0047165D01*
X0016800Y0046800D02*
X0016800Y0056800D01*
X0011800Y0051800D01*
X0016800Y0046800D01*
X0016800Y0051153D02*
X0012447Y0051153D01*
X0011949Y0051651D02*
X0016800Y0051651D01*
X0016800Y0052150D02*
X0012150Y0052150D01*
X0012648Y0052648D02*
X0016800Y0052648D01*
X0016800Y0053147D02*
X0013147Y0053147D01*
X0013645Y0053645D02*
X0016800Y0053645D01*
X0016800Y0054144D02*
X0014144Y0054144D01*
X0014642Y0054642D02*
X0016800Y0054642D01*
X0016800Y0055141D02*
X0015141Y0055141D01*
X0015639Y0055639D02*
X0016800Y0055639D01*
X0016800Y0056138D02*
X0016138Y0056138D01*
X0016636Y0056636D02*
X0016800Y0056636D01*
X0014133Y0036108D02*
X0013816Y0036108D01*
X0013499Y0035791D01*
X0013499Y0035474D01*
X0013499Y0035791D02*
X0013182Y0036108D01*
X0012865Y0036108D01*
X0012548Y0035791D01*
X0012548Y0035157D01*
X0012865Y0034840D01*
X0012548Y0033898D02*
X0012548Y0032630D01*
X0012548Y0033264D02*
X0014450Y0033264D01*
X0014450Y0031791D02*
X0014450Y0031157D01*
X0014450Y0031474D02*
X0012548Y0031474D01*
X0012548Y0031157D02*
X0012548Y0031791D01*
X0012548Y0030215D02*
X0013816Y0028947D01*
X0013499Y0029264D02*
X0014450Y0030215D01*
X0014450Y0028947D02*
X0012548Y0028947D01*
X0012865Y0028005D02*
X0012548Y0027688D01*
X0012548Y0027054D01*
X0012865Y0026737D01*
X0014133Y0026737D01*
X0014450Y0027054D01*
X0014450Y0027688D01*
X0014133Y0028005D01*
X0014450Y0025898D02*
X0014450Y0025264D01*
X0014450Y0025581D02*
X0012548Y0025581D01*
X0012548Y0025264D02*
X0012548Y0025898D01*
X0012865Y0024322D02*
X0013499Y0024322D01*
X0013816Y0024005D01*
X0013816Y0023054D01*
X0014450Y0023054D02*
X0012548Y0023054D01*
X0012548Y0024005D01*
X0012865Y0024322D01*
X0014133Y0034840D02*
X0014450Y0035157D01*
X0014450Y0035791D01*
X0014133Y0036108D01*
X0059148Y0067367D02*
X0059465Y0067050D01*
X0059782Y0067050D01*
X0060099Y0067367D01*
X0060099Y0068001D01*
X0060416Y0068318D01*
X0060733Y0068318D01*
X0061050Y0068001D01*
X0061050Y0067367D01*
X0060733Y0067050D01*
X0060416Y0067050D01*
X0060099Y0067367D01*
X0060099Y0068001D02*
X0059782Y0068318D01*
X0059465Y0068318D01*
X0059148Y0068001D01*
X0059148Y0067367D01*
X0059148Y0069260D02*
X0059782Y0069894D01*
X0059148Y0070528D01*
X0061050Y0070528D01*
X0061050Y0071470D02*
X0059148Y0071470D01*
X0060099Y0071470D02*
X0060099Y0072738D01*
X0059148Y0072738D02*
X0061050Y0072738D01*
X0061050Y0073680D02*
X0061050Y0074947D01*
X0061050Y0073680D02*
X0060733Y0073680D01*
X0059465Y0074947D01*
X0059148Y0074947D01*
X0059148Y0073680D01*
X0060099Y0075890D02*
X0060099Y0077157D01*
X0059465Y0078099D02*
X0060733Y0078099D01*
X0061050Y0078416D01*
X0061050Y0079050D01*
X0060733Y0079367D01*
X0060416Y0080309D02*
X0060416Y0081260D01*
X0060099Y0081577D01*
X0059465Y0081577D01*
X0059148Y0081260D01*
X0059148Y0080309D01*
X0061050Y0080309D01*
X0060416Y0080943D02*
X0061050Y0081577D01*
X0061050Y0083153D02*
X0060099Y0083153D01*
X0059465Y0083787D01*
X0059148Y0083787D01*
X0059465Y0084729D02*
X0059782Y0084729D01*
X0060099Y0085046D01*
X0060099Y0085680D01*
X0060416Y0085997D01*
X0060733Y0085997D01*
X0061050Y0085680D01*
X0061050Y0085046D01*
X0060733Y0084729D01*
X0059465Y0084729D02*
X0059148Y0085046D01*
X0059148Y0085680D01*
X0059465Y0085997D01*
X0059148Y0086939D02*
X0059148Y0088207D01*
X0059148Y0087573D02*
X0061050Y0087573D01*
X0061050Y0089149D02*
X0059782Y0089149D01*
X0059148Y0089783D01*
X0059782Y0090417D01*
X0061050Y0090417D01*
X0061050Y0091359D02*
X0061050Y0092626D01*
X0061050Y0091359D02*
X0059148Y0091359D01*
X0060099Y0090417D02*
X0060099Y0089149D01*
X0060099Y0083153D02*
X0059465Y0082519D01*
X0059148Y0082519D01*
X0059465Y0079367D02*
X0059148Y0079050D01*
X0059148Y0078416D01*
X0059465Y0078099D01*
X0059148Y0069260D02*
X0061050Y0069260D01*
X0073046Y0057166D02*
X0073046Y0054164D01*
X0077550Y0054164D01*
X0077550Y0052562D02*
X0074547Y0052562D01*
X0075298Y0054164D02*
X0075298Y0055665D01*
X0077550Y0052562D02*
X0077550Y0050310D01*
X0076799Y0049560D01*
X0074547Y0049560D01*
X0077550Y0047958D02*
X0077550Y0044956D01*
X0077550Y0046457D02*
X0073046Y0046457D01*
X0074547Y0044956D01*
X0076799Y0043405D02*
X0077550Y0043405D01*
X0077550Y0042654D01*
X0076799Y0042654D01*
X0076799Y0043405D01*
X0076799Y0041053D02*
X0077550Y0040302D01*
X0077550Y0038801D01*
X0076799Y0038050D01*
X0073797Y0041053D01*
X0076799Y0041053D01*
X0073797Y0041053D02*
X0073046Y0040302D01*
X0073046Y0038801D01*
X0073797Y0038050D01*
X0076799Y0038050D01*
X0131797Y0103050D02*
X0134799Y0103050D01*
X0135550Y0103801D01*
X0135550Y0105302D01*
X0134799Y0106053D01*
X0135550Y0107654D02*
X0132547Y0110656D01*
X0131797Y0110656D01*
X0131046Y0109906D01*
X0131046Y0108405D01*
X0131797Y0107654D01*
X0131797Y0106053D02*
X0131046Y0105302D01*
X0131046Y0103801D01*
X0131797Y0103050D01*
X0135550Y0107654D02*
X0135550Y0110656D01*
X0148046Y0111457D02*
X0152550Y0111457D01*
X0152550Y0109956D02*
X0152550Y0112958D01*
X0151799Y0114560D02*
X0149547Y0114560D01*
X0151799Y0114560D02*
X0152550Y0115310D01*
X0152550Y0117562D01*
X0149547Y0117562D01*
X0150298Y0119164D02*
X0150298Y0120665D01*
X0148046Y0119164D02*
X0148046Y0122166D01*
X0148046Y0119164D02*
X0152550Y0119164D01*
X0151799Y0128050D02*
X0148797Y0128050D01*
X0148046Y0128801D01*
X0148046Y0130302D01*
X0148797Y0131053D01*
X0151799Y0128050D01*
X0152550Y0128801D01*
X0152550Y0130302D01*
X0151799Y0131053D01*
X0148797Y0131053D01*
X0151799Y0132654D02*
X0151799Y0133405D01*
X0152550Y0133405D01*
X0152550Y0132654D01*
X0151799Y0132654D01*
X0152550Y0134956D02*
X0152550Y0137958D01*
X0152550Y0136457D02*
X0148046Y0136457D01*
X0149547Y0134956D01*
X0149547Y0139560D02*
X0151799Y0139560D01*
X0152550Y0140310D01*
X0152550Y0142562D01*
X0149547Y0142562D01*
X0150298Y0144164D02*
X0150298Y0145665D01*
X0148046Y0144164D02*
X0148046Y0147166D01*
X0148046Y0144164D02*
X0152550Y0144164D01*
X0151799Y0153050D02*
X0148797Y0153050D01*
X0148046Y0153801D01*
X0148046Y0155302D01*
X0148797Y0156053D01*
X0151799Y0153050D01*
X0152550Y0153801D01*
X0152550Y0155302D01*
X0151799Y0156053D01*
X0148797Y0156053D01*
X0151799Y0157654D02*
X0151799Y0158405D01*
X0152550Y0158405D01*
X0152550Y0157654D01*
X0151799Y0157654D01*
X0152550Y0159956D02*
X0152550Y0162958D01*
X0152550Y0161457D02*
X0148046Y0161457D01*
X0149547Y0159956D01*
X0149547Y0164560D02*
X0151799Y0164560D01*
X0152550Y0165310D01*
X0152550Y0167562D01*
X0149547Y0167562D01*
X0150298Y0169164D02*
X0150298Y0170665D01*
X0148046Y0169164D02*
X0148046Y0172166D01*
X0148046Y0169164D02*
X0152550Y0169164D01*
X0157050Y0179550D02*
X0160053Y0179550D01*
X0158551Y0179550D02*
X0158551Y0184054D01*
X0157050Y0182553D01*
X0157801Y0187050D02*
X0159302Y0187050D01*
X0160053Y0187801D01*
X0161654Y0187801D02*
X0161654Y0187050D01*
X0161654Y0187801D02*
X0164656Y0190803D01*
X0164656Y0191554D01*
X0161654Y0191554D01*
X0160053Y0190803D02*
X0159302Y0191554D01*
X0157801Y0191554D01*
X0157050Y0190803D01*
X0157050Y0187801D01*
X0157801Y0187050D01*
X0161654Y0183303D02*
X0162405Y0184054D01*
X0163906Y0184054D01*
X0164656Y0183303D01*
X0161654Y0180301D01*
X0162405Y0179550D01*
X0163906Y0179550D01*
X0164656Y0180301D01*
X0164656Y0183303D01*
X0166258Y0182553D02*
X0166258Y0180301D01*
X0167008Y0179550D01*
X0169260Y0179550D01*
X0169260Y0182553D01*
X0170862Y0181802D02*
X0172363Y0181802D01*
X0170862Y0179550D02*
X0170862Y0184054D01*
X0173864Y0184054D01*
X0161654Y0183303D02*
X0161654Y0180301D01*
X0179550Y0168054D02*
X0179550Y0163550D01*
X0179550Y0165051D02*
X0181802Y0165051D01*
X0182553Y0165802D01*
X0182553Y0167303D01*
X0181802Y0168054D01*
X0179550Y0168054D01*
X0181051Y0165051D02*
X0182553Y0163550D01*
X0184154Y0163550D02*
X0187156Y0163550D01*
X0188758Y0163550D02*
X0191010Y0163550D01*
X0191760Y0164301D01*
X0191760Y0167303D01*
X0191010Y0168054D01*
X0188758Y0168054D01*
X0188758Y0163550D01*
X0185655Y0165802D02*
X0184154Y0165802D01*
X0184154Y0168054D02*
X0184154Y0163550D01*
X0184154Y0168054D02*
X0187156Y0168054D01*
X0173299Y0127860D02*
X0170297Y0127860D01*
X0173299Y0124858D01*
X0174050Y0125608D01*
X0174050Y0127110D01*
X0173299Y0127860D01*
X0173299Y0124858D02*
X0170297Y0124858D01*
X0169546Y0125608D01*
X0169546Y0127110D01*
X0170297Y0127860D01*
X0170297Y0123256D02*
X0171047Y0123256D01*
X0171798Y0122506D01*
X0172549Y0123256D01*
X0173299Y0123256D01*
X0174050Y0122506D01*
X0174050Y0121005D01*
X0173299Y0120254D01*
X0173299Y0118653D02*
X0172549Y0118653D01*
X0171798Y0117902D01*
X0171798Y0117151D01*
X0171798Y0117902D02*
X0171047Y0118653D01*
X0170297Y0118653D01*
X0169546Y0117902D01*
X0169546Y0116401D01*
X0170297Y0115650D01*
X0173299Y0115650D02*
X0174050Y0116401D01*
X0174050Y0117902D01*
X0173299Y0118653D01*
X0171798Y0121755D02*
X0171798Y0122506D01*
X0170297Y0123256D02*
X0169546Y0122506D01*
X0169546Y0121005D01*
X0170297Y0120254D01*
X0165550Y0120156D02*
X0165550Y0117154D01*
X0162547Y0120156D01*
X0161797Y0120156D01*
X0161046Y0119406D01*
X0161046Y0117905D01*
X0161797Y0117154D01*
X0161797Y0115553D02*
X0163298Y0115553D01*
X0164049Y0114802D01*
X0164049Y0112550D01*
X0165550Y0112550D02*
X0161046Y0112550D01*
X0161046Y0114802D01*
X0161797Y0115553D01*
X0164049Y0114051D02*
X0165550Y0115553D01*
X0152550Y0108405D02*
X0152550Y0107654D01*
X0151799Y0107654D01*
X0151799Y0108405D01*
X0152550Y0108405D01*
X0151799Y0106053D02*
X0152550Y0105302D01*
X0152550Y0103801D01*
X0151799Y0103050D01*
X0148797Y0106053D01*
X0151799Y0106053D01*
X0148797Y0106053D02*
X0148046Y0105302D01*
X0148046Y0103801D01*
X0148797Y0103050D01*
X0151799Y0103050D01*
X0152801Y0096554D02*
X0152050Y0095803D01*
X0152050Y0092801D01*
X0152801Y0092050D01*
X0154302Y0092050D01*
X0155053Y0092801D01*
X0156654Y0092050D02*
X0159656Y0092050D01*
X0158155Y0092050D02*
X0158155Y0096554D01*
X0156654Y0095053D01*
X0155053Y0095803D02*
X0154302Y0096554D01*
X0152801Y0096554D01*
X0149547Y0109956D02*
X0148046Y0111457D01*
X0134799Y0128050D02*
X0131797Y0128050D01*
X0131046Y0128801D01*
X0131046Y0130302D01*
X0131797Y0131053D01*
X0133298Y0132654D02*
X0131797Y0134155D01*
X0131046Y0135656D01*
X0133298Y0134906D02*
X0133298Y0132654D01*
X0134799Y0132654D01*
X0135550Y0133405D01*
X0135550Y0134906D01*
X0134799Y0135656D01*
X0134049Y0135656D01*
X0133298Y0134906D01*
X0134799Y0131053D02*
X0135550Y0130302D01*
X0135550Y0128801D01*
X0134799Y0128050D01*
X0134799Y0153050D02*
X0131797Y0153050D01*
X0131046Y0153801D01*
X0131046Y0155302D01*
X0131797Y0156053D01*
X0131797Y0157654D02*
X0131046Y0158405D01*
X0131046Y0159906D01*
X0131797Y0160656D01*
X0132547Y0160656D01*
X0133298Y0159906D01*
X0134049Y0160656D01*
X0134799Y0160656D01*
X0135550Y0159906D01*
X0135550Y0158405D01*
X0134799Y0157654D01*
X0134799Y0156053D02*
X0135550Y0155302D01*
X0135550Y0153801D01*
X0134799Y0153050D01*
X0133298Y0159155D02*
X0133298Y0159906D01*
X0130176Y0174550D02*
X0127174Y0174550D01*
X0130176Y0177553D01*
X0130176Y0178303D01*
X0129425Y0179054D01*
X0127924Y0179054D01*
X0127174Y0178303D01*
X0125572Y0178303D02*
X0125572Y0175301D01*
X0124822Y0174550D01*
X0123320Y0174550D01*
X0122570Y0175301D01*
X0125572Y0178303D01*
X0124822Y0179054D01*
X0123320Y0179054D01*
X0122570Y0178303D01*
X0122570Y0175301D01*
X0120968Y0178303D02*
X0117966Y0175301D01*
X0117966Y0174550D01*
X0116364Y0174550D02*
X0113362Y0174550D01*
X0114863Y0174550D02*
X0114863Y0179054D01*
X0113362Y0177553D01*
X0111760Y0178303D02*
X0111760Y0176802D01*
X0111010Y0176051D01*
X0108758Y0176051D01*
X0108758Y0174550D02*
X0108758Y0179054D01*
X0111010Y0179054D01*
X0111760Y0178303D01*
X0107156Y0178303D02*
X0106406Y0179054D01*
X0104905Y0179054D01*
X0104154Y0178303D01*
X0104154Y0175301D01*
X0104905Y0174550D01*
X0106406Y0174550D01*
X0107156Y0175301D01*
X0103554Y0180300D02*
X0120046Y0180300D01*
X0120968Y0179054D02*
X0117966Y0179054D01*
X0120968Y0179054D02*
X0120968Y0178303D01*
X0120673Y0185800D02*
X0122252Y0185800D01*
X0112927Y0185800D02*
X0110673Y0185800D01*
X0103554Y0180300D02*
X0103401Y0180499D01*
X0103253Y0180701D01*
X0103110Y0180906D01*
X0102972Y0181115D01*
X0102839Y0181327D01*
X0102711Y0181542D01*
X0102589Y0181760D01*
X0102471Y0181981D01*
X0102359Y0182205D01*
X0102252Y0182431D01*
X0102151Y0182660D01*
X0102055Y0182891D01*
X0101964Y0183125D01*
X0101879Y0183360D01*
X0101800Y0183598D01*
X0101727Y0183837D01*
X0101659Y0184078D01*
X0101597Y0184320D01*
X0101541Y0184564D01*
X0101490Y0184810D01*
X0101446Y0185056D01*
X0101407Y0185303D01*
X0101375Y0185551D01*
X0101348Y0185800D01*
X0102927Y0185800D01*
X0102553Y0179054D02*
X0102553Y0174550D01*
X0099550Y0174550D02*
X0099550Y0179054D01*
X0101051Y0177553D01*
X0102553Y0179054D01*
X0120046Y0180300D02*
X0120201Y0180502D01*
X0120351Y0180707D01*
X0120497Y0180916D01*
X0120637Y0181129D01*
X0120772Y0181345D01*
X0120901Y0181564D01*
X0121025Y0181786D01*
X0121144Y0182011D01*
X0121257Y0182239D01*
X0121365Y0182469D01*
X0121467Y0182702D01*
X0121564Y0182938D01*
X0121655Y0183176D01*
X0121740Y0183415D01*
X0121819Y0183657D01*
X0121892Y0183901D01*
X0121959Y0184146D01*
X0122021Y0184393D01*
X0122076Y0184642D01*
X0122125Y0184892D01*
X0122168Y0185142D01*
X0122205Y0185394D01*
X0122236Y0185647D01*
X0122261Y0185900D01*
X0122280Y0186154D01*
X0122293Y0186408D01*
X0122299Y0186662D01*
X0122299Y0186917D01*
X0122293Y0187171D01*
X0122281Y0187426D01*
X0122263Y0187679D01*
X0122239Y0187933D01*
X0122208Y0188185D01*
X0122172Y0188437D01*
X0122129Y0188688D01*
X0122080Y0188938D01*
X0122025Y0189186D01*
X0121964Y0189433D01*
X0121898Y0189679D01*
X0121825Y0189923D01*
X0121746Y0190165D01*
X0121662Y0190405D01*
X0121571Y0190643D01*
X0121475Y0190879D01*
X0121374Y0191112D01*
X0121266Y0191343D01*
X0121154Y0191571D01*
X0121035Y0191796D01*
X0120911Y0192018D01*
X0120782Y0192238D01*
X0120648Y0192454D01*
X0120508Y0192667D01*
X0120363Y0192876D01*
X0120214Y0193082D01*
X0120059Y0193284D01*
X0119899Y0193482D01*
X0119735Y0193676D01*
X0119566Y0193867D01*
X0119393Y0194053D01*
X0119215Y0194235D01*
X0119032Y0194412D01*
X0118846Y0194585D01*
X0118655Y0194754D01*
X0118460Y0194918D01*
X0118261Y0195077D01*
X0118059Y0195231D01*
X0117853Y0195380D01*
X0117643Y0195524D01*
X0117430Y0195663D01*
X0117213Y0195797D01*
X0116994Y0195926D01*
X0116771Y0196049D01*
X0116545Y0196166D01*
X0116317Y0196279D01*
X0116086Y0196385D01*
X0115852Y0196486D01*
X0115616Y0196582D01*
X0115378Y0196671D01*
X0115138Y0196755D01*
X0114896Y0196833D01*
X0108704Y0196833D02*
X0108460Y0196755D01*
X0108218Y0196670D01*
X0107979Y0196580D01*
X0107741Y0196484D01*
X0107506Y0196382D01*
X0107273Y0196274D01*
X0107043Y0196161D01*
X0106816Y0196042D01*
X0106592Y0195918D01*
X0106371Y0195788D01*
X0106154Y0195653D01*
X0105939Y0195512D01*
X0105728Y0195366D01*
X0105521Y0195216D01*
X0105318Y0195060D01*
X0105118Y0194899D01*
X0104922Y0194734D01*
X0104731Y0194564D01*
X0104543Y0194389D01*
X0104360Y0194209D01*
X0104182Y0194026D01*
X0104007Y0193837D01*
X0103838Y0193645D01*
X0103673Y0193449D01*
X0103513Y0193248D01*
X0103359Y0193044D01*
X0103209Y0192836D01*
X0103064Y0192625D01*
X0102924Y0192410D01*
X0102790Y0192192D01*
X0102661Y0191970D01*
X0102538Y0191746D01*
X0102420Y0191518D01*
X0102307Y0191288D01*
X0102201Y0191055D01*
X0102100Y0190819D01*
X0102004Y0190581D01*
X0101915Y0190341D01*
X0101832Y0190099D01*
X0101754Y0189854D01*
X0101683Y0189608D01*
X0101617Y0189360D01*
X0101558Y0189111D01*
X0101504Y0188861D01*
X0101457Y0188609D01*
X0101416Y0188356D01*
X0101381Y0188102D01*
X0101352Y0187847D01*
X0101330Y0187592D01*
X0101314Y0187336D01*
X0101304Y0187080D01*
X0101300Y0186824D01*
X0101303Y0186567D01*
X0101311Y0186311D01*
X0101326Y0186055D01*
X0101348Y0185800D01*
X0082166Y0185554D02*
X0079164Y0185554D01*
X0079164Y0181050D01*
X0077562Y0181050D02*
X0077562Y0184053D01*
X0079164Y0183302D02*
X0080665Y0183302D01*
X0077562Y0181050D02*
X0075310Y0181050D01*
X0074560Y0181801D01*
X0074560Y0184053D01*
X0072958Y0181050D02*
X0069956Y0181050D01*
X0071457Y0181050D02*
X0071457Y0185554D01*
X0069956Y0184053D01*
X0068405Y0181801D02*
X0067654Y0181801D01*
X0067654Y0181050D01*
X0068405Y0181050D01*
X0068405Y0181801D01*
X0066053Y0181801D02*
X0065302Y0181050D01*
X0063801Y0181050D01*
X0063050Y0181801D01*
X0066053Y0184803D01*
X0066053Y0181801D01*
X0066053Y0184803D02*
X0065302Y0185554D01*
X0063801Y0185554D01*
X0063050Y0184803D01*
X0063050Y0181801D01*
X0063801Y0188050D02*
X0065302Y0188050D01*
X0066053Y0188801D01*
X0067654Y0188801D02*
X0068405Y0188050D01*
X0069906Y0188050D01*
X0070656Y0188801D01*
X0070656Y0190302D01*
X0069906Y0191053D01*
X0069155Y0191053D01*
X0067654Y0190302D01*
X0067654Y0192554D01*
X0070656Y0192554D01*
X0066053Y0191803D02*
X0065302Y0192554D01*
X0063801Y0192554D01*
X0063050Y0191803D01*
X0063050Y0188801D01*
X0063801Y0188050D01*
X0153551Y0081554D02*
X0153551Y0077050D01*
X0152050Y0077050D02*
X0155053Y0077050D01*
X0156654Y0077801D02*
X0159656Y0080803D01*
X0159656Y0077801D01*
X0158906Y0077050D01*
X0157405Y0077050D01*
X0156654Y0077801D01*
X0156654Y0080803D01*
X0157405Y0081554D01*
X0158906Y0081554D01*
X0159656Y0080803D01*
X0161258Y0080053D02*
X0161258Y0077801D01*
X0162008Y0077050D01*
X0164260Y0077050D01*
X0164260Y0080053D01*
X0165862Y0079302D02*
X0167363Y0079302D01*
X0165862Y0077050D02*
X0165862Y0081554D01*
X0168864Y0081554D01*
X0153551Y0081554D02*
X0152050Y0080053D01*
D274*
X0147300Y0086800D02*
X0144300Y0086800D01*
X0150287Y0081512D02*
X0150156Y0081306D01*
X0150019Y0081104D01*
X0149877Y0080905D01*
X0149731Y0080709D01*
X0149580Y0080517D01*
X0149424Y0080329D01*
X0149264Y0080145D01*
X0149099Y0079965D01*
X0148930Y0079788D01*
X0148757Y0079616D01*
X0148579Y0079449D01*
X0148398Y0079285D01*
X0148212Y0079126D01*
X0148023Y0078972D01*
X0147830Y0078822D01*
X0147633Y0078677D01*
X0147433Y0078537D01*
X0147230Y0078402D01*
X0147023Y0078272D01*
X0146813Y0078147D01*
X0146600Y0078027D01*
X0146385Y0077913D01*
X0146166Y0077804D01*
X0145945Y0077700D01*
X0145722Y0077601D01*
X0145496Y0077508D01*
X0145268Y0077421D01*
X0145038Y0077339D01*
X0144806Y0077262D01*
X0144572Y0077192D01*
X0144336Y0077127D01*
X0144099Y0077068D01*
X0143861Y0077015D01*
X0143622Y0076967D01*
X0143381Y0076926D01*
X0143139Y0076890D01*
X0142897Y0076860D01*
X0142654Y0076837D01*
X0142410Y0076819D01*
X0142166Y0076807D01*
X0141922Y0076801D01*
X0141678Y0076801D01*
X0141434Y0076807D01*
X0141190Y0076819D01*
X0140946Y0076837D01*
X0140703Y0076860D01*
X0140461Y0076890D01*
X0140219Y0076926D01*
X0139978Y0076967D01*
X0139739Y0077015D01*
X0139501Y0077068D01*
X0139264Y0077127D01*
X0139028Y0077192D01*
X0138794Y0077262D01*
X0138562Y0077339D01*
X0138332Y0077421D01*
X0138104Y0077508D01*
X0137878Y0077601D01*
X0137655Y0077700D01*
X0137434Y0077804D01*
X0137215Y0077913D01*
X0137000Y0078027D01*
X0136787Y0078147D01*
X0136577Y0078272D01*
X0136370Y0078402D01*
X0136167Y0078537D01*
X0135967Y0078677D01*
X0135770Y0078822D01*
X0135577Y0078972D01*
X0135388Y0079126D01*
X0135202Y0079285D01*
X0135021Y0079449D01*
X0134843Y0079616D01*
X0134670Y0079788D01*
X0134501Y0079965D01*
X0134336Y0080145D01*
X0134176Y0080329D01*
X0134020Y0080517D01*
X0133869Y0080709D01*
X0133723Y0080905D01*
X0133581Y0081104D01*
X0133444Y0081306D01*
X0133313Y0081512D01*
X0136300Y0086800D02*
X0138800Y0086800D01*
X0138800Y0090800D01*
X0140800Y0090800D01*
X0140800Y0082800D01*
X0138800Y0082800D01*
X0138800Y0086800D01*
X0136800Y0088300D02*
X0136800Y0090300D01*
X0135800Y0089300D02*
X0137800Y0089300D01*
X0133313Y0092088D02*
X0133444Y0092294D01*
X0133581Y0092496D01*
X0133723Y0092695D01*
X0133869Y0092891D01*
X0134020Y0093083D01*
X0134176Y0093271D01*
X0134336Y0093455D01*
X0134501Y0093635D01*
X0134670Y0093812D01*
X0134843Y0093984D01*
X0135021Y0094151D01*
X0135202Y0094315D01*
X0135388Y0094474D01*
X0135577Y0094628D01*
X0135770Y0094778D01*
X0135967Y0094923D01*
X0136167Y0095063D01*
X0136370Y0095198D01*
X0136577Y0095328D01*
X0136787Y0095453D01*
X0137000Y0095573D01*
X0137215Y0095687D01*
X0137434Y0095796D01*
X0137655Y0095900D01*
X0137878Y0095999D01*
X0138104Y0096092D01*
X0138332Y0096179D01*
X0138562Y0096261D01*
X0138794Y0096338D01*
X0139028Y0096408D01*
X0139264Y0096473D01*
X0139501Y0096532D01*
X0139739Y0096585D01*
X0139978Y0096633D01*
X0140219Y0096674D01*
X0140461Y0096710D01*
X0140703Y0096740D01*
X0140946Y0096763D01*
X0141190Y0096781D01*
X0141434Y0096793D01*
X0141678Y0096799D01*
X0141922Y0096799D01*
X0142166Y0096793D01*
X0142410Y0096781D01*
X0142654Y0096763D01*
X0142897Y0096740D01*
X0143139Y0096710D01*
X0143381Y0096674D01*
X0143622Y0096633D01*
X0143861Y0096585D01*
X0144099Y0096532D01*
X0144336Y0096473D01*
X0144572Y0096408D01*
X0144806Y0096338D01*
X0145038Y0096261D01*
X0145268Y0096179D01*
X0145496Y0096092D01*
X0145722Y0095999D01*
X0145945Y0095900D01*
X0146166Y0095796D01*
X0146385Y0095687D01*
X0146600Y0095573D01*
X0146813Y0095453D01*
X0147023Y0095328D01*
X0147230Y0095198D01*
X0147433Y0095063D01*
X0147633Y0094923D01*
X0147830Y0094778D01*
X0148023Y0094628D01*
X0148212Y0094474D01*
X0148398Y0094315D01*
X0148579Y0094151D01*
X0148757Y0093984D01*
X0148930Y0093812D01*
X0149099Y0093635D01*
X0149264Y0093455D01*
X0149424Y0093271D01*
X0149580Y0093083D01*
X0149731Y0092891D01*
X0149877Y0092695D01*
X0150019Y0092496D01*
X0150156Y0092294D01*
X0150287Y0092088D01*
X0145800Y0102300D02*
X0137800Y0102300D01*
X0137740Y0102302D01*
X0137679Y0102307D01*
X0137620Y0102316D01*
X0137561Y0102329D01*
X0137502Y0102345D01*
X0137445Y0102365D01*
X0137390Y0102388D01*
X0137335Y0102415D01*
X0137283Y0102444D01*
X0137232Y0102477D01*
X0137183Y0102513D01*
X0137137Y0102551D01*
X0137093Y0102593D01*
X0137051Y0102637D01*
X0137013Y0102683D01*
X0136977Y0102732D01*
X0136944Y0102783D01*
X0136915Y0102835D01*
X0136888Y0102890D01*
X0136865Y0102945D01*
X0136845Y0103002D01*
X0136829Y0103061D01*
X0136816Y0103120D01*
X0136807Y0103179D01*
X0136802Y0103240D01*
X0136800Y0103300D01*
X0136800Y0120300D01*
X0136802Y0120360D01*
X0136807Y0120421D01*
X0136816Y0120480D01*
X0136829Y0120539D01*
X0136845Y0120598D01*
X0136865Y0120655D01*
X0136888Y0120710D01*
X0136915Y0120765D01*
X0136944Y0120817D01*
X0136977Y0120868D01*
X0137013Y0120917D01*
X0137051Y0120963D01*
X0137093Y0121007D01*
X0137137Y0121049D01*
X0137183Y0121087D01*
X0137232Y0121123D01*
X0137283Y0121156D01*
X0137335Y0121185D01*
X0137390Y0121212D01*
X0137445Y0121235D01*
X0137502Y0121255D01*
X0137561Y0121271D01*
X0137620Y0121284D01*
X0137679Y0121293D01*
X0137740Y0121298D01*
X0137800Y0121300D01*
X0145800Y0121300D01*
X0145860Y0121298D01*
X0145921Y0121293D01*
X0145980Y0121284D01*
X0146039Y0121271D01*
X0146098Y0121255D01*
X0146155Y0121235D01*
X0146210Y0121212D01*
X0146265Y0121185D01*
X0146317Y0121156D01*
X0146368Y0121123D01*
X0146417Y0121087D01*
X0146463Y0121049D01*
X0146507Y0121007D01*
X0146549Y0120963D01*
X0146587Y0120917D01*
X0146623Y0120868D01*
X0146656Y0120817D01*
X0146685Y0120765D01*
X0146712Y0120710D01*
X0146735Y0120655D01*
X0146755Y0120598D01*
X0146771Y0120539D01*
X0146784Y0120480D01*
X0146793Y0120421D01*
X0146798Y0120360D01*
X0146800Y0120300D01*
X0146800Y0103300D01*
X0146798Y0103240D01*
X0146793Y0103179D01*
X0146784Y0103120D01*
X0146771Y0103061D01*
X0146755Y0103002D01*
X0146735Y0102945D01*
X0146712Y0102890D01*
X0146685Y0102835D01*
X0146656Y0102783D01*
X0146623Y0102732D01*
X0146587Y0102683D01*
X0146549Y0102637D01*
X0146507Y0102593D01*
X0146463Y0102551D01*
X0146417Y0102513D01*
X0146368Y0102477D01*
X0146317Y0102444D01*
X0146265Y0102415D01*
X0146210Y0102388D01*
X0146155Y0102365D01*
X0146098Y0102345D01*
X0146039Y0102329D01*
X0145980Y0102316D01*
X0145921Y0102307D01*
X0145860Y0102302D01*
X0145800Y0102300D01*
X0141800Y0110300D02*
X0141800Y0110800D01*
X0141800Y0112800D02*
X0141800Y0113300D01*
X0137800Y0127300D02*
X0145800Y0127300D01*
X0145860Y0127302D01*
X0145921Y0127307D01*
X0145980Y0127316D01*
X0146039Y0127329D01*
X0146098Y0127345D01*
X0146155Y0127365D01*
X0146210Y0127388D01*
X0146265Y0127415D01*
X0146317Y0127444D01*
X0146368Y0127477D01*
X0146417Y0127513D01*
X0146463Y0127551D01*
X0146507Y0127593D01*
X0146549Y0127637D01*
X0146587Y0127683D01*
X0146623Y0127732D01*
X0146656Y0127783D01*
X0146685Y0127835D01*
X0146712Y0127890D01*
X0146735Y0127945D01*
X0146755Y0128002D01*
X0146771Y0128061D01*
X0146784Y0128120D01*
X0146793Y0128179D01*
X0146798Y0128240D01*
X0146800Y0128300D01*
X0146800Y0145300D01*
X0146798Y0145360D01*
X0146793Y0145421D01*
X0146784Y0145480D01*
X0146771Y0145539D01*
X0146755Y0145598D01*
X0146735Y0145655D01*
X0146712Y0145710D01*
X0146685Y0145765D01*
X0146656Y0145817D01*
X0146623Y0145868D01*
X0146587Y0145917D01*
X0146549Y0145963D01*
X0146507Y0146007D01*
X0146463Y0146049D01*
X0146417Y0146087D01*
X0146368Y0146123D01*
X0146317Y0146156D01*
X0146265Y0146185D01*
X0146210Y0146212D01*
X0146155Y0146235D01*
X0146098Y0146255D01*
X0146039Y0146271D01*
X0145980Y0146284D01*
X0145921Y0146293D01*
X0145860Y0146298D01*
X0145800Y0146300D01*
X0137800Y0146300D01*
X0137740Y0146298D01*
X0137679Y0146293D01*
X0137620Y0146284D01*
X0137561Y0146271D01*
X0137502Y0146255D01*
X0137445Y0146235D01*
X0137390Y0146212D01*
X0137335Y0146185D01*
X0137283Y0146156D01*
X0137232Y0146123D01*
X0137183Y0146087D01*
X0137137Y0146049D01*
X0137093Y0146007D01*
X0137051Y0145963D01*
X0137013Y0145917D01*
X0136977Y0145868D01*
X0136944Y0145817D01*
X0136915Y0145765D01*
X0136888Y0145710D01*
X0136865Y0145655D01*
X0136845Y0145598D01*
X0136829Y0145539D01*
X0136816Y0145480D01*
X0136807Y0145421D01*
X0136802Y0145360D01*
X0136800Y0145300D01*
X0136800Y0128300D01*
X0136802Y0128240D01*
X0136807Y0128179D01*
X0136816Y0128120D01*
X0136829Y0128061D01*
X0136845Y0128002D01*
X0136865Y0127945D01*
X0136888Y0127890D01*
X0136915Y0127835D01*
X0136944Y0127783D01*
X0136977Y0127732D01*
X0137013Y0127683D01*
X0137051Y0127637D01*
X0137093Y0127593D01*
X0137137Y0127551D01*
X0137183Y0127513D01*
X0137232Y0127477D01*
X0137283Y0127444D01*
X0137335Y0127415D01*
X0137390Y0127388D01*
X0137445Y0127365D01*
X0137502Y0127345D01*
X0137561Y0127329D01*
X0137620Y0127316D01*
X0137679Y0127307D01*
X0137740Y0127302D01*
X0137800Y0127300D01*
X0141800Y0135300D02*
X0141800Y0135800D01*
X0141800Y0137800D02*
X0141800Y0138300D01*
X0137800Y0152300D02*
X0145800Y0152300D01*
X0145860Y0152302D01*
X0145921Y0152307D01*
X0145980Y0152316D01*
X0146039Y0152329D01*
X0146098Y0152345D01*
X0146155Y0152365D01*
X0146210Y0152388D01*
X0146265Y0152415D01*
X0146317Y0152444D01*
X0146368Y0152477D01*
X0146417Y0152513D01*
X0146463Y0152551D01*
X0146507Y0152593D01*
X0146549Y0152637D01*
X0146587Y0152683D01*
X0146623Y0152732D01*
X0146656Y0152783D01*
X0146685Y0152835D01*
X0146712Y0152890D01*
X0146735Y0152945D01*
X0146755Y0153002D01*
X0146771Y0153061D01*
X0146784Y0153120D01*
X0146793Y0153179D01*
X0146798Y0153240D01*
X0146800Y0153300D01*
X0146800Y0170300D01*
X0146798Y0170360D01*
X0146793Y0170421D01*
X0146784Y0170480D01*
X0146771Y0170539D01*
X0146755Y0170598D01*
X0146735Y0170655D01*
X0146712Y0170710D01*
X0146685Y0170765D01*
X0146656Y0170817D01*
X0146623Y0170868D01*
X0146587Y0170917D01*
X0146549Y0170963D01*
X0146507Y0171007D01*
X0146463Y0171049D01*
X0146417Y0171087D01*
X0146368Y0171123D01*
X0146317Y0171156D01*
X0146265Y0171185D01*
X0146210Y0171212D01*
X0146155Y0171235D01*
X0146098Y0171255D01*
X0146039Y0171271D01*
X0145980Y0171284D01*
X0145921Y0171293D01*
X0145860Y0171298D01*
X0145800Y0171300D01*
X0137800Y0171300D01*
X0137740Y0171298D01*
X0137679Y0171293D01*
X0137620Y0171284D01*
X0137561Y0171271D01*
X0137502Y0171255D01*
X0137445Y0171235D01*
X0137390Y0171212D01*
X0137335Y0171185D01*
X0137283Y0171156D01*
X0137232Y0171123D01*
X0137183Y0171087D01*
X0137137Y0171049D01*
X0137093Y0171007D01*
X0137051Y0170963D01*
X0137013Y0170917D01*
X0136977Y0170868D01*
X0136944Y0170817D01*
X0136915Y0170765D01*
X0136888Y0170710D01*
X0136865Y0170655D01*
X0136845Y0170598D01*
X0136829Y0170539D01*
X0136816Y0170480D01*
X0136807Y0170421D01*
X0136802Y0170360D01*
X0136800Y0170300D01*
X0136800Y0153300D01*
X0136802Y0153240D01*
X0136807Y0153179D01*
X0136816Y0153120D01*
X0136829Y0153061D01*
X0136845Y0153002D01*
X0136865Y0152945D01*
X0136888Y0152890D01*
X0136915Y0152835D01*
X0136944Y0152783D01*
X0136977Y0152732D01*
X0137013Y0152683D01*
X0137051Y0152637D01*
X0137093Y0152593D01*
X0137137Y0152551D01*
X0137183Y0152513D01*
X0137232Y0152477D01*
X0137283Y0152444D01*
X0137335Y0152415D01*
X0137390Y0152388D01*
X0137445Y0152365D01*
X0137502Y0152345D01*
X0137561Y0152329D01*
X0137620Y0152316D01*
X0137679Y0152307D01*
X0137740Y0152302D01*
X0137800Y0152300D01*
X0141800Y0160300D02*
X0141800Y0160800D01*
X0141800Y0162800D02*
X0141800Y0163300D01*
X0140800Y0182800D02*
X0138800Y0182800D01*
X0138800Y0186800D01*
X0138800Y0190800D01*
X0140800Y0190800D01*
X0140800Y0182800D01*
X0133313Y0192088D02*
X0133444Y0192294D01*
X0133581Y0192496D01*
X0133723Y0192695D01*
X0133869Y0192891D01*
X0134020Y0193083D01*
X0134176Y0193271D01*
X0134336Y0193455D01*
X0134501Y0193635D01*
X0134670Y0193812D01*
X0134843Y0193984D01*
X0135021Y0194151D01*
X0135202Y0194315D01*
X0135388Y0194474D01*
X0135577Y0194628D01*
X0135770Y0194778D01*
X0135967Y0194923D01*
X0136167Y0195063D01*
X0136370Y0195198D01*
X0136577Y0195328D01*
X0136787Y0195453D01*
X0137000Y0195573D01*
X0137215Y0195687D01*
X0137434Y0195796D01*
X0137655Y0195900D01*
X0137878Y0195999D01*
X0138104Y0196092D01*
X0138332Y0196179D01*
X0138562Y0196261D01*
X0138794Y0196338D01*
X0139028Y0196408D01*
X0139264Y0196473D01*
X0139501Y0196532D01*
X0139739Y0196585D01*
X0139978Y0196633D01*
X0140219Y0196674D01*
X0140461Y0196710D01*
X0140703Y0196740D01*
X0140946Y0196763D01*
X0141190Y0196781D01*
X0141434Y0196793D01*
X0141678Y0196799D01*
X0141922Y0196799D01*
X0142166Y0196793D01*
X0142410Y0196781D01*
X0142654Y0196763D01*
X0142897Y0196740D01*
X0143139Y0196710D01*
X0143381Y0196674D01*
X0143622Y0196633D01*
X0143861Y0196585D01*
X0144099Y0196532D01*
X0144336Y0196473D01*
X0144572Y0196408D01*
X0144806Y0196338D01*
X0145038Y0196261D01*
X0145268Y0196179D01*
X0145496Y0196092D01*
X0145722Y0195999D01*
X0145945Y0195900D01*
X0146166Y0195796D01*
X0146385Y0195687D01*
X0146600Y0195573D01*
X0146813Y0195453D01*
X0147023Y0195328D01*
X0147230Y0195198D01*
X0147433Y0195063D01*
X0147633Y0194923D01*
X0147830Y0194778D01*
X0148023Y0194628D01*
X0148212Y0194474D01*
X0148398Y0194315D01*
X0148579Y0194151D01*
X0148757Y0193984D01*
X0148930Y0193812D01*
X0149099Y0193635D01*
X0149264Y0193455D01*
X0149424Y0193271D01*
X0149580Y0193083D01*
X0149731Y0192891D01*
X0149877Y0192695D01*
X0150019Y0192496D01*
X0150156Y0192294D01*
X0150287Y0192088D01*
X0147300Y0186800D02*
X0144300Y0186800D01*
X0150287Y0181512D02*
X0150156Y0181306D01*
X0150019Y0181104D01*
X0149877Y0180905D01*
X0149731Y0180709D01*
X0149580Y0180517D01*
X0149424Y0180329D01*
X0149264Y0180145D01*
X0149099Y0179965D01*
X0148930Y0179788D01*
X0148757Y0179616D01*
X0148579Y0179449D01*
X0148398Y0179285D01*
X0148212Y0179126D01*
X0148023Y0178972D01*
X0147830Y0178822D01*
X0147633Y0178677D01*
X0147433Y0178537D01*
X0147230Y0178402D01*
X0147023Y0178272D01*
X0146813Y0178147D01*
X0146600Y0178027D01*
X0146385Y0177913D01*
X0146166Y0177804D01*
X0145945Y0177700D01*
X0145722Y0177601D01*
X0145496Y0177508D01*
X0145268Y0177421D01*
X0145038Y0177339D01*
X0144806Y0177262D01*
X0144572Y0177192D01*
X0144336Y0177127D01*
X0144099Y0177068D01*
X0143861Y0177015D01*
X0143622Y0176967D01*
X0143381Y0176926D01*
X0143139Y0176890D01*
X0142897Y0176860D01*
X0142654Y0176837D01*
X0142410Y0176819D01*
X0142166Y0176807D01*
X0141922Y0176801D01*
X0141678Y0176801D01*
X0141434Y0176807D01*
X0141190Y0176819D01*
X0140946Y0176837D01*
X0140703Y0176860D01*
X0140461Y0176890D01*
X0140219Y0176926D01*
X0139978Y0176967D01*
X0139739Y0177015D01*
X0139501Y0177068D01*
X0139264Y0177127D01*
X0139028Y0177192D01*
X0138794Y0177262D01*
X0138562Y0177339D01*
X0138332Y0177421D01*
X0138104Y0177508D01*
X0137878Y0177601D01*
X0137655Y0177700D01*
X0137434Y0177804D01*
X0137215Y0177913D01*
X0137000Y0178027D01*
X0136787Y0178147D01*
X0136577Y0178272D01*
X0136370Y0178402D01*
X0136167Y0178537D01*
X0135967Y0178677D01*
X0135770Y0178822D01*
X0135577Y0178972D01*
X0135388Y0179126D01*
X0135202Y0179285D01*
X0135021Y0179449D01*
X0134843Y0179616D01*
X0134670Y0179788D01*
X0134501Y0179965D01*
X0134336Y0180145D01*
X0134176Y0180329D01*
X0134020Y0180517D01*
X0133869Y0180709D01*
X0133723Y0180905D01*
X0133581Y0181104D01*
X0133444Y0181306D01*
X0133313Y0181512D01*
X0136300Y0186800D02*
X0138800Y0186800D01*
X0136800Y0188300D02*
X0136800Y0190300D01*
X0135800Y0189300D02*
X0137800Y0189300D01*
X0171800Y0167800D02*
X0171954Y0167798D01*
X0172108Y0167792D01*
X0172262Y0167782D01*
X0172416Y0167768D01*
X0172569Y0167751D01*
X0172721Y0167729D01*
X0172873Y0167703D01*
X0173025Y0167674D01*
X0173175Y0167640D01*
X0173325Y0167603D01*
X0173473Y0167562D01*
X0173621Y0167517D01*
X0173767Y0167468D01*
X0173912Y0167416D01*
X0174055Y0167360D01*
X0174198Y0167300D01*
X0174338Y0167237D01*
X0174477Y0167170D01*
X0174614Y0167099D01*
X0174749Y0167025D01*
X0174882Y0166948D01*
X0175014Y0166867D01*
X0175143Y0166783D01*
X0175270Y0166695D01*
X0175394Y0166604D01*
X0175516Y0166511D01*
X0175636Y0166413D01*
X0175753Y0166313D01*
X0175868Y0166210D01*
X0175980Y0166104D01*
X0176089Y0165996D01*
X0176195Y0165884D01*
X0176299Y0165770D01*
X0176399Y0165653D01*
X0176497Y0165534D01*
X0176591Y0165412D01*
X0176682Y0165287D01*
X0171800Y0155800D02*
X0171648Y0155802D01*
X0171497Y0155808D01*
X0171346Y0155817D01*
X0171194Y0155831D01*
X0171044Y0155848D01*
X0170894Y0155869D01*
X0170744Y0155894D01*
X0170595Y0155922D01*
X0170447Y0155955D01*
X0170300Y0155991D01*
X0170153Y0156030D01*
X0170008Y0156074D01*
X0169864Y0156121D01*
X0169721Y0156172D01*
X0169580Y0156226D01*
X0169439Y0156284D01*
X0169301Y0156345D01*
X0169164Y0156410D01*
X0169028Y0156479D01*
X0168895Y0156550D01*
X0168763Y0156625D01*
X0168633Y0156704D01*
X0168506Y0156785D01*
X0168380Y0156870D01*
X0168256Y0156958D01*
X0168135Y0157049D01*
X0168016Y0157143D01*
X0167900Y0157241D01*
X0167786Y0157341D01*
X0167674Y0157443D01*
X0167566Y0157549D01*
X0167460Y0157657D01*
X0167356Y0157768D01*
X0167256Y0157882D01*
X0167158Y0157998D01*
X0167064Y0158117D01*
X0171800Y0155800D02*
X0171952Y0155802D01*
X0172103Y0155808D01*
X0172254Y0155817D01*
X0172406Y0155831D01*
X0172556Y0155848D01*
X0172706Y0155869D01*
X0172856Y0155894D01*
X0173005Y0155922D01*
X0173153Y0155955D01*
X0173300Y0155991D01*
X0173447Y0156030D01*
X0173592Y0156074D01*
X0173736Y0156121D01*
X0173879Y0156172D01*
X0174020Y0156226D01*
X0174161Y0156284D01*
X0174299Y0156345D01*
X0174436Y0156410D01*
X0174572Y0156479D01*
X0174705Y0156550D01*
X0174837Y0156625D01*
X0174967Y0156704D01*
X0175094Y0156785D01*
X0175220Y0156870D01*
X0175344Y0156958D01*
X0175465Y0157049D01*
X0175584Y0157143D01*
X0175700Y0157241D01*
X0175814Y0157341D01*
X0175926Y0157443D01*
X0176034Y0157549D01*
X0176140Y0157657D01*
X0176244Y0157768D01*
X0176344Y0157882D01*
X0176442Y0157998D01*
X0176536Y0158117D01*
X0171800Y0167800D02*
X0171650Y0167798D01*
X0171499Y0167792D01*
X0171349Y0167783D01*
X0171200Y0167770D01*
X0171050Y0167753D01*
X0170901Y0167732D01*
X0170753Y0167708D01*
X0170605Y0167680D01*
X0170458Y0167648D01*
X0170312Y0167613D01*
X0170167Y0167573D01*
X0170023Y0167531D01*
X0169880Y0167484D01*
X0169738Y0167434D01*
X0169597Y0167381D01*
X0169458Y0167324D01*
X0169320Y0167264D01*
X0169184Y0167200D01*
X0169050Y0167133D01*
X0168917Y0167062D01*
X0168786Y0166988D01*
X0168657Y0166911D01*
X0168530Y0166830D01*
X0168405Y0166747D01*
X0168282Y0166660D01*
X0168161Y0166571D01*
X0168043Y0166478D01*
X0167927Y0166382D01*
X0167813Y0166284D01*
X0167702Y0166183D01*
X0167593Y0166078D01*
X0167488Y0165972D01*
X0167384Y0165862D01*
X0167284Y0165750D01*
X0167186Y0165636D01*
X0167092Y0165519D01*
X0167000Y0165400D01*
X0168300Y0136800D02*
X0175300Y0136800D01*
X0175360Y0136798D01*
X0175421Y0136793D01*
X0175480Y0136784D01*
X0175539Y0136771D01*
X0175598Y0136755D01*
X0175655Y0136735D01*
X0175710Y0136712D01*
X0175765Y0136685D01*
X0175817Y0136656D01*
X0175868Y0136623D01*
X0175917Y0136587D01*
X0175963Y0136549D01*
X0176007Y0136507D01*
X0176049Y0136463D01*
X0176087Y0136417D01*
X0176123Y0136368D01*
X0176156Y0136317D01*
X0176185Y0136265D01*
X0176212Y0136210D01*
X0176235Y0136155D01*
X0176255Y0136098D01*
X0176271Y0136039D01*
X0176284Y0135980D01*
X0176293Y0135921D01*
X0176298Y0135860D01*
X0176300Y0135800D01*
X0176300Y0134300D01*
X0175800Y0133800D01*
X0175800Y0114800D01*
X0176300Y0114300D01*
X0176300Y0112800D01*
X0176298Y0112740D01*
X0176293Y0112679D01*
X0176284Y0112620D01*
X0176271Y0112561D01*
X0176255Y0112502D01*
X0176235Y0112445D01*
X0176212Y0112390D01*
X0176185Y0112335D01*
X0176156Y0112283D01*
X0176123Y0112232D01*
X0176087Y0112183D01*
X0176049Y0112137D01*
X0176007Y0112093D01*
X0175963Y0112051D01*
X0175917Y0112013D01*
X0175868Y0111977D01*
X0175817Y0111944D01*
X0175765Y0111915D01*
X0175710Y0111888D01*
X0175655Y0111865D01*
X0175598Y0111845D01*
X0175539Y0111829D01*
X0175480Y0111816D01*
X0175421Y0111807D01*
X0175360Y0111802D01*
X0175300Y0111800D01*
X0168300Y0111800D01*
X0168240Y0111802D01*
X0168179Y0111807D01*
X0168120Y0111816D01*
X0168061Y0111829D01*
X0168002Y0111845D01*
X0167945Y0111865D01*
X0167890Y0111888D01*
X0167835Y0111915D01*
X0167783Y0111944D01*
X0167732Y0111977D01*
X0167683Y0112013D01*
X0167637Y0112051D01*
X0167593Y0112093D01*
X0167551Y0112137D01*
X0167513Y0112183D01*
X0167477Y0112232D01*
X0167444Y0112283D01*
X0167415Y0112335D01*
X0167388Y0112390D01*
X0167365Y0112445D01*
X0167345Y0112502D01*
X0167329Y0112561D01*
X0167316Y0112620D01*
X0167307Y0112679D01*
X0167302Y0112740D01*
X0167300Y0112800D01*
X0167300Y0114300D01*
X0167800Y0114800D01*
X0167800Y0133800D01*
X0167300Y0134300D01*
X0167300Y0135800D01*
X0167302Y0135860D01*
X0167307Y0135921D01*
X0167316Y0135980D01*
X0167329Y0136039D01*
X0167345Y0136098D01*
X0167365Y0136155D01*
X0167388Y0136210D01*
X0167415Y0136265D01*
X0167444Y0136317D01*
X0167477Y0136368D01*
X0167513Y0136417D01*
X0167551Y0136463D01*
X0167593Y0136507D01*
X0167637Y0136549D01*
X0167683Y0136587D01*
X0167732Y0136623D01*
X0167783Y0136656D01*
X0167835Y0136685D01*
X0167890Y0136712D01*
X0167945Y0136735D01*
X0168002Y0136755D01*
X0168061Y0136771D01*
X0168120Y0136784D01*
X0168179Y0136793D01*
X0168240Y0136798D01*
X0168300Y0136800D01*
X0145300Y0064300D02*
X0138300Y0064300D01*
X0138240Y0064298D01*
X0138179Y0064293D01*
X0138120Y0064284D01*
X0138061Y0064271D01*
X0138002Y0064255D01*
X0137945Y0064235D01*
X0137890Y0064212D01*
X0137835Y0064185D01*
X0137783Y0064156D01*
X0137732Y0064123D01*
X0137683Y0064087D01*
X0137637Y0064049D01*
X0137593Y0064007D01*
X0137551Y0063963D01*
X0137513Y0063917D01*
X0137477Y0063868D01*
X0137444Y0063817D01*
X0137415Y0063765D01*
X0137388Y0063710D01*
X0137365Y0063655D01*
X0137345Y0063598D01*
X0137329Y0063539D01*
X0137316Y0063480D01*
X0137307Y0063421D01*
X0137302Y0063360D01*
X0137300Y0063300D01*
X0137300Y0061800D01*
X0137800Y0061300D01*
X0137800Y0042300D01*
X0137300Y0041800D01*
X0137300Y0040300D01*
X0137302Y0040240D01*
X0137307Y0040179D01*
X0137316Y0040120D01*
X0137329Y0040061D01*
X0137345Y0040002D01*
X0137365Y0039945D01*
X0137388Y0039890D01*
X0137415Y0039835D01*
X0137444Y0039783D01*
X0137477Y0039732D01*
X0137513Y0039683D01*
X0137551Y0039637D01*
X0137593Y0039593D01*
X0137637Y0039551D01*
X0137683Y0039513D01*
X0137732Y0039477D01*
X0137783Y0039444D01*
X0137835Y0039415D01*
X0137890Y0039388D01*
X0137945Y0039365D01*
X0138002Y0039345D01*
X0138061Y0039329D01*
X0138120Y0039316D01*
X0138179Y0039307D01*
X0138240Y0039302D01*
X0138300Y0039300D01*
X0145300Y0039300D01*
X0145360Y0039302D01*
X0145421Y0039307D01*
X0145480Y0039316D01*
X0145539Y0039329D01*
X0145598Y0039345D01*
X0145655Y0039365D01*
X0145710Y0039388D01*
X0145765Y0039415D01*
X0145817Y0039444D01*
X0145868Y0039477D01*
X0145917Y0039513D01*
X0145963Y0039551D01*
X0146007Y0039593D01*
X0146049Y0039637D01*
X0146087Y0039683D01*
X0146123Y0039732D01*
X0146156Y0039783D01*
X0146185Y0039835D01*
X0146212Y0039890D01*
X0146235Y0039945D01*
X0146255Y0040002D01*
X0146271Y0040061D01*
X0146284Y0040120D01*
X0146293Y0040179D01*
X0146298Y0040240D01*
X0146300Y0040300D01*
X0146300Y0041800D01*
X0145800Y0042300D01*
X0145800Y0061300D01*
X0146300Y0061800D01*
X0146300Y0063300D01*
X0146298Y0063360D01*
X0146293Y0063421D01*
X0146284Y0063480D01*
X0146271Y0063539D01*
X0146255Y0063598D01*
X0146235Y0063655D01*
X0146212Y0063710D01*
X0146185Y0063765D01*
X0146156Y0063817D01*
X0146123Y0063868D01*
X0146087Y0063917D01*
X0146049Y0063963D01*
X0146007Y0064007D01*
X0145963Y0064049D01*
X0145917Y0064087D01*
X0145868Y0064123D01*
X0145817Y0064156D01*
X0145765Y0064185D01*
X0145710Y0064212D01*
X0145655Y0064235D01*
X0145598Y0064255D01*
X0145539Y0064271D01*
X0145480Y0064284D01*
X0145421Y0064293D01*
X0145360Y0064298D01*
X0145300Y0064300D01*
X0101800Y0010800D02*
X0101648Y0010802D01*
X0101497Y0010808D01*
X0101346Y0010817D01*
X0101194Y0010831D01*
X0101044Y0010848D01*
X0100894Y0010869D01*
X0100744Y0010894D01*
X0100595Y0010922D01*
X0100447Y0010955D01*
X0100300Y0010991D01*
X0100153Y0011030D01*
X0100008Y0011074D01*
X0099864Y0011121D01*
X0099721Y0011172D01*
X0099580Y0011226D01*
X0099439Y0011284D01*
X0099301Y0011345D01*
X0099164Y0011410D01*
X0099028Y0011479D01*
X0098895Y0011550D01*
X0098763Y0011625D01*
X0098633Y0011704D01*
X0098506Y0011785D01*
X0098380Y0011870D01*
X0098256Y0011958D01*
X0098135Y0012049D01*
X0098016Y0012143D01*
X0097900Y0012241D01*
X0097786Y0012341D01*
X0097674Y0012443D01*
X0097566Y0012549D01*
X0097460Y0012657D01*
X0097356Y0012768D01*
X0097256Y0012882D01*
X0097158Y0012998D01*
X0097064Y0013117D01*
X0101800Y0022800D02*
X0101954Y0022798D01*
X0102108Y0022792D01*
X0102262Y0022782D01*
X0102416Y0022768D01*
X0102569Y0022751D01*
X0102721Y0022729D01*
X0102873Y0022703D01*
X0103025Y0022674D01*
X0103175Y0022640D01*
X0103325Y0022603D01*
X0103473Y0022562D01*
X0103621Y0022517D01*
X0103767Y0022468D01*
X0103912Y0022416D01*
X0104055Y0022360D01*
X0104198Y0022300D01*
X0104338Y0022237D01*
X0104477Y0022170D01*
X0104614Y0022099D01*
X0104749Y0022025D01*
X0104882Y0021948D01*
X0105014Y0021867D01*
X0105143Y0021783D01*
X0105270Y0021695D01*
X0105394Y0021604D01*
X0105516Y0021511D01*
X0105636Y0021413D01*
X0105753Y0021313D01*
X0105868Y0021210D01*
X0105980Y0021104D01*
X0106089Y0020996D01*
X0106195Y0020884D01*
X0106299Y0020770D01*
X0106399Y0020653D01*
X0106497Y0020534D01*
X0106591Y0020412D01*
X0106682Y0020287D01*
X0101800Y0022800D02*
X0101650Y0022798D01*
X0101499Y0022792D01*
X0101349Y0022783D01*
X0101200Y0022770D01*
X0101050Y0022753D01*
X0100901Y0022732D01*
X0100753Y0022708D01*
X0100605Y0022680D01*
X0100458Y0022648D01*
X0100312Y0022613D01*
X0100167Y0022573D01*
X0100023Y0022531D01*
X0099880Y0022484D01*
X0099738Y0022434D01*
X0099597Y0022381D01*
X0099458Y0022324D01*
X0099320Y0022264D01*
X0099184Y0022200D01*
X0099050Y0022133D01*
X0098917Y0022062D01*
X0098786Y0021988D01*
X0098657Y0021911D01*
X0098530Y0021830D01*
X0098405Y0021747D01*
X0098282Y0021660D01*
X0098161Y0021571D01*
X0098043Y0021478D01*
X0097927Y0021382D01*
X0097813Y0021284D01*
X0097702Y0021183D01*
X0097593Y0021078D01*
X0097488Y0020972D01*
X0097384Y0020862D01*
X0097284Y0020750D01*
X0097186Y0020636D01*
X0097092Y0020519D01*
X0097000Y0020400D01*
X0101800Y0010800D02*
X0101952Y0010802D01*
X0102103Y0010808D01*
X0102254Y0010817D01*
X0102406Y0010831D01*
X0102556Y0010848D01*
X0102706Y0010869D01*
X0102856Y0010894D01*
X0103005Y0010922D01*
X0103153Y0010955D01*
X0103300Y0010991D01*
X0103447Y0011030D01*
X0103592Y0011074D01*
X0103736Y0011121D01*
X0103879Y0011172D01*
X0104020Y0011226D01*
X0104161Y0011284D01*
X0104299Y0011345D01*
X0104436Y0011410D01*
X0104572Y0011479D01*
X0104705Y0011550D01*
X0104837Y0011625D01*
X0104967Y0011704D01*
X0105094Y0011785D01*
X0105220Y0011870D01*
X0105344Y0011958D01*
X0105465Y0012049D01*
X0105584Y0012143D01*
X0105700Y0012241D01*
X0105814Y0012341D01*
X0105926Y0012443D01*
X0106034Y0012549D01*
X0106140Y0012657D01*
X0106244Y0012768D01*
X0106344Y0012882D01*
X0106442Y0012998D01*
X0106536Y0013117D01*
X0071800Y0038300D02*
X0071800Y0055300D01*
X0071798Y0055360D01*
X0071793Y0055421D01*
X0071784Y0055480D01*
X0071771Y0055539D01*
X0071755Y0055598D01*
X0071735Y0055655D01*
X0071712Y0055710D01*
X0071685Y0055765D01*
X0071656Y0055817D01*
X0071623Y0055868D01*
X0071587Y0055917D01*
X0071549Y0055963D01*
X0071507Y0056007D01*
X0071463Y0056049D01*
X0071417Y0056087D01*
X0071368Y0056123D01*
X0071317Y0056156D01*
X0071265Y0056185D01*
X0071210Y0056212D01*
X0071155Y0056235D01*
X0071098Y0056255D01*
X0071039Y0056271D01*
X0070980Y0056284D01*
X0070921Y0056293D01*
X0070860Y0056298D01*
X0070800Y0056300D01*
X0062800Y0056300D01*
X0062740Y0056298D01*
X0062679Y0056293D01*
X0062620Y0056284D01*
X0062561Y0056271D01*
X0062502Y0056255D01*
X0062445Y0056235D01*
X0062390Y0056212D01*
X0062335Y0056185D01*
X0062283Y0056156D01*
X0062232Y0056123D01*
X0062183Y0056087D01*
X0062137Y0056049D01*
X0062093Y0056007D01*
X0062051Y0055963D01*
X0062013Y0055917D01*
X0061977Y0055868D01*
X0061944Y0055817D01*
X0061915Y0055765D01*
X0061888Y0055710D01*
X0061865Y0055655D01*
X0061845Y0055598D01*
X0061829Y0055539D01*
X0061816Y0055480D01*
X0061807Y0055421D01*
X0061802Y0055360D01*
X0061800Y0055300D01*
X0061800Y0038300D01*
X0061802Y0038240D01*
X0061807Y0038179D01*
X0061816Y0038120D01*
X0061829Y0038061D01*
X0061845Y0038002D01*
X0061865Y0037945D01*
X0061888Y0037890D01*
X0061915Y0037835D01*
X0061944Y0037783D01*
X0061977Y0037732D01*
X0062013Y0037683D01*
X0062051Y0037637D01*
X0062093Y0037593D01*
X0062137Y0037551D01*
X0062183Y0037513D01*
X0062232Y0037477D01*
X0062283Y0037444D01*
X0062335Y0037415D01*
X0062390Y0037388D01*
X0062445Y0037365D01*
X0062502Y0037345D01*
X0062561Y0037329D01*
X0062620Y0037316D01*
X0062679Y0037307D01*
X0062740Y0037302D01*
X0062800Y0037300D01*
X0070800Y0037300D01*
X0070860Y0037302D01*
X0070921Y0037307D01*
X0070980Y0037316D01*
X0071039Y0037329D01*
X0071098Y0037345D01*
X0071155Y0037365D01*
X0071210Y0037388D01*
X0071265Y0037415D01*
X0071317Y0037444D01*
X0071368Y0037477D01*
X0071417Y0037513D01*
X0071463Y0037551D01*
X0071507Y0037593D01*
X0071549Y0037637D01*
X0071587Y0037683D01*
X0071623Y0037732D01*
X0071656Y0037783D01*
X0071685Y0037835D01*
X0071712Y0037890D01*
X0071735Y0037945D01*
X0071755Y0038002D01*
X0071771Y0038061D01*
X0071784Y0038120D01*
X0071793Y0038179D01*
X0071798Y0038240D01*
X0071800Y0038300D01*
X0066800Y0045300D02*
X0066800Y0045800D01*
X0066800Y0047800D02*
X0066800Y0048300D01*
X0053800Y0047800D02*
X0053800Y0049300D01*
X0053300Y0049800D01*
X0053300Y0068800D01*
X0053800Y0069300D01*
X0053800Y0070800D01*
X0053798Y0070860D01*
X0053793Y0070921D01*
X0053784Y0070980D01*
X0053771Y0071039D01*
X0053755Y0071098D01*
X0053735Y0071155D01*
X0053712Y0071210D01*
X0053685Y0071265D01*
X0053656Y0071317D01*
X0053623Y0071368D01*
X0053587Y0071417D01*
X0053549Y0071463D01*
X0053507Y0071507D01*
X0053463Y0071549D01*
X0053417Y0071587D01*
X0053368Y0071623D01*
X0053317Y0071656D01*
X0053265Y0071685D01*
X0053210Y0071712D01*
X0053155Y0071735D01*
X0053098Y0071755D01*
X0053039Y0071771D01*
X0052980Y0071784D01*
X0052921Y0071793D01*
X0052860Y0071798D01*
X0052800Y0071800D01*
X0045800Y0071800D01*
X0045740Y0071798D01*
X0045679Y0071793D01*
X0045620Y0071784D01*
X0045561Y0071771D01*
X0045502Y0071755D01*
X0045445Y0071735D01*
X0045390Y0071712D01*
X0045335Y0071685D01*
X0045283Y0071656D01*
X0045232Y0071623D01*
X0045183Y0071587D01*
X0045137Y0071549D01*
X0045093Y0071507D01*
X0045051Y0071463D01*
X0045013Y0071417D01*
X0044977Y0071368D01*
X0044944Y0071317D01*
X0044915Y0071265D01*
X0044888Y0071210D01*
X0044865Y0071155D01*
X0044845Y0071098D01*
X0044829Y0071039D01*
X0044816Y0070980D01*
X0044807Y0070921D01*
X0044802Y0070860D01*
X0044800Y0070800D01*
X0044800Y0069300D01*
X0045300Y0068800D01*
X0045300Y0049800D01*
X0044800Y0049300D01*
X0044800Y0047800D01*
X0044802Y0047740D01*
X0044807Y0047679D01*
X0044816Y0047620D01*
X0044829Y0047561D01*
X0044845Y0047502D01*
X0044865Y0047445D01*
X0044888Y0047390D01*
X0044915Y0047335D01*
X0044944Y0047283D01*
X0044977Y0047232D01*
X0045013Y0047183D01*
X0045051Y0047137D01*
X0045093Y0047093D01*
X0045137Y0047051D01*
X0045183Y0047013D01*
X0045232Y0046977D01*
X0045283Y0046944D01*
X0045335Y0046915D01*
X0045390Y0046888D01*
X0045445Y0046865D01*
X0045502Y0046845D01*
X0045561Y0046829D01*
X0045620Y0046816D01*
X0045679Y0046807D01*
X0045740Y0046802D01*
X0045800Y0046800D01*
X0052800Y0046800D01*
X0052860Y0046802D01*
X0052921Y0046807D01*
X0052980Y0046816D01*
X0053039Y0046829D01*
X0053098Y0046845D01*
X0053155Y0046865D01*
X0053210Y0046888D01*
X0053265Y0046915D01*
X0053317Y0046944D01*
X0053368Y0046977D01*
X0053417Y0047013D01*
X0053463Y0047051D01*
X0053507Y0047093D01*
X0053549Y0047137D01*
X0053587Y0047183D01*
X0053623Y0047232D01*
X0053656Y0047283D01*
X0053685Y0047335D01*
X0053712Y0047390D01*
X0053735Y0047445D01*
X0053755Y0047502D01*
X0053771Y0047561D01*
X0053784Y0047620D01*
X0053793Y0047679D01*
X0053798Y0047740D01*
X0053800Y0047800D01*
X0036300Y0047800D02*
X0036300Y0049300D01*
X0035800Y0049800D01*
X0035800Y0068800D01*
X0036300Y0069300D01*
X0036300Y0070800D01*
X0036298Y0070860D01*
X0036293Y0070921D01*
X0036284Y0070980D01*
X0036271Y0071039D01*
X0036255Y0071098D01*
X0036235Y0071155D01*
X0036212Y0071210D01*
X0036185Y0071265D01*
X0036156Y0071317D01*
X0036123Y0071368D01*
X0036087Y0071417D01*
X0036049Y0071463D01*
X0036007Y0071507D01*
X0035963Y0071549D01*
X0035917Y0071587D01*
X0035868Y0071623D01*
X0035817Y0071656D01*
X0035765Y0071685D01*
X0035710Y0071712D01*
X0035655Y0071735D01*
X0035598Y0071755D01*
X0035539Y0071771D01*
X0035480Y0071784D01*
X0035421Y0071793D01*
X0035360Y0071798D01*
X0035300Y0071800D01*
X0028300Y0071800D01*
X0028240Y0071798D01*
X0028179Y0071793D01*
X0028120Y0071784D01*
X0028061Y0071771D01*
X0028002Y0071755D01*
X0027945Y0071735D01*
X0027890Y0071712D01*
X0027835Y0071685D01*
X0027783Y0071656D01*
X0027732Y0071623D01*
X0027683Y0071587D01*
X0027637Y0071549D01*
X0027593Y0071507D01*
X0027551Y0071463D01*
X0027513Y0071417D01*
X0027477Y0071368D01*
X0027444Y0071317D01*
X0027415Y0071265D01*
X0027388Y0071210D01*
X0027365Y0071155D01*
X0027345Y0071098D01*
X0027329Y0071039D01*
X0027316Y0070980D01*
X0027307Y0070921D01*
X0027302Y0070860D01*
X0027300Y0070800D01*
X0027300Y0069300D01*
X0027800Y0068800D01*
X0027800Y0049800D01*
X0027300Y0049300D01*
X0027300Y0047800D01*
X0027302Y0047740D01*
X0027307Y0047679D01*
X0027316Y0047620D01*
X0027329Y0047561D01*
X0027345Y0047502D01*
X0027365Y0047445D01*
X0027388Y0047390D01*
X0027415Y0047335D01*
X0027444Y0047283D01*
X0027477Y0047232D01*
X0027513Y0047183D01*
X0027551Y0047137D01*
X0027593Y0047093D01*
X0027637Y0047051D01*
X0027683Y0047013D01*
X0027732Y0046977D01*
X0027783Y0046944D01*
X0027835Y0046915D01*
X0027890Y0046888D01*
X0027945Y0046865D01*
X0028002Y0046845D01*
X0028061Y0046829D01*
X0028120Y0046816D01*
X0028179Y0046807D01*
X0028240Y0046802D01*
X0028300Y0046800D01*
X0035300Y0046800D01*
X0035360Y0046802D01*
X0035421Y0046807D01*
X0035480Y0046816D01*
X0035539Y0046829D01*
X0035598Y0046845D01*
X0035655Y0046865D01*
X0035710Y0046888D01*
X0035765Y0046915D01*
X0035817Y0046944D01*
X0035868Y0046977D01*
X0035917Y0047013D01*
X0035963Y0047051D01*
X0036007Y0047093D01*
X0036049Y0047137D01*
X0036087Y0047183D01*
X0036123Y0047232D01*
X0036156Y0047283D01*
X0036185Y0047335D01*
X0036212Y0047390D01*
X0036235Y0047445D01*
X0036255Y0047502D01*
X0036271Y0047561D01*
X0036284Y0047620D01*
X0036293Y0047679D01*
X0036298Y0047740D01*
X0036300Y0047800D01*
X0082800Y0177300D02*
X0090800Y0177300D01*
X0090860Y0177302D01*
X0090921Y0177307D01*
X0090980Y0177316D01*
X0091039Y0177329D01*
X0091098Y0177345D01*
X0091155Y0177365D01*
X0091210Y0177388D01*
X0091265Y0177415D01*
X0091317Y0177444D01*
X0091368Y0177477D01*
X0091417Y0177513D01*
X0091463Y0177551D01*
X0091507Y0177593D01*
X0091549Y0177637D01*
X0091587Y0177683D01*
X0091623Y0177732D01*
X0091656Y0177783D01*
X0091685Y0177835D01*
X0091712Y0177890D01*
X0091735Y0177945D01*
X0091755Y0178002D01*
X0091771Y0178061D01*
X0091784Y0178120D01*
X0091793Y0178179D01*
X0091798Y0178240D01*
X0091800Y0178300D01*
X0091800Y0195300D01*
X0091798Y0195360D01*
X0091793Y0195421D01*
X0091784Y0195480D01*
X0091771Y0195539D01*
X0091755Y0195598D01*
X0091735Y0195655D01*
X0091712Y0195710D01*
X0091685Y0195765D01*
X0091656Y0195817D01*
X0091623Y0195868D01*
X0091587Y0195917D01*
X0091549Y0195963D01*
X0091507Y0196007D01*
X0091463Y0196049D01*
X0091417Y0196087D01*
X0091368Y0196123D01*
X0091317Y0196156D01*
X0091265Y0196185D01*
X0091210Y0196212D01*
X0091155Y0196235D01*
X0091098Y0196255D01*
X0091039Y0196271D01*
X0090980Y0196284D01*
X0090921Y0196293D01*
X0090860Y0196298D01*
X0090800Y0196300D01*
X0082800Y0196300D01*
X0082740Y0196298D01*
X0082679Y0196293D01*
X0082620Y0196284D01*
X0082561Y0196271D01*
X0082502Y0196255D01*
X0082445Y0196235D01*
X0082390Y0196212D01*
X0082335Y0196185D01*
X0082283Y0196156D01*
X0082232Y0196123D01*
X0082183Y0196087D01*
X0082137Y0196049D01*
X0082093Y0196007D01*
X0082051Y0195963D01*
X0082013Y0195917D01*
X0081977Y0195868D01*
X0081944Y0195817D01*
X0081915Y0195765D01*
X0081888Y0195710D01*
X0081865Y0195655D01*
X0081845Y0195598D01*
X0081829Y0195539D01*
X0081816Y0195480D01*
X0081807Y0195421D01*
X0081802Y0195360D01*
X0081800Y0195300D01*
X0081800Y0178300D01*
X0081802Y0178240D01*
X0081807Y0178179D01*
X0081816Y0178120D01*
X0081829Y0178061D01*
X0081845Y0178002D01*
X0081865Y0177945D01*
X0081888Y0177890D01*
X0081915Y0177835D01*
X0081944Y0177783D01*
X0081977Y0177732D01*
X0082013Y0177683D01*
X0082051Y0177637D01*
X0082093Y0177593D01*
X0082137Y0177551D01*
X0082183Y0177513D01*
X0082232Y0177477D01*
X0082283Y0177444D01*
X0082335Y0177415D01*
X0082390Y0177388D01*
X0082445Y0177365D01*
X0082502Y0177345D01*
X0082561Y0177329D01*
X0082620Y0177316D01*
X0082679Y0177307D01*
X0082740Y0177302D01*
X0082800Y0177300D01*
X0086800Y0185300D02*
X0086800Y0185800D01*
X0086800Y0187800D02*
X0086800Y0188300D01*
D275*
X0143800Y0186800D03*
X0143800Y0086800D03*
D276*
X0144800Y0110800D02*
X0141800Y0110800D01*
X0138800Y0110800D01*
X0138800Y0112800D02*
X0141800Y0112800D01*
X0144800Y0112800D01*
X0144800Y0135800D02*
X0141800Y0135800D01*
X0138800Y0135800D01*
X0138800Y0137800D02*
X0141800Y0137800D01*
X0144800Y0137800D01*
X0144800Y0160800D02*
X0141800Y0160800D01*
X0138800Y0160800D01*
X0138800Y0162800D02*
X0141800Y0162800D01*
X0144800Y0162800D01*
X0164854Y0157831D02*
X0164953Y0157662D01*
X0165057Y0157496D01*
X0165164Y0157332D01*
X0165275Y0157171D01*
X0165390Y0157013D01*
X0165509Y0156858D01*
X0165632Y0156705D01*
X0165758Y0156556D01*
X0165888Y0156410D01*
X0166022Y0156267D01*
X0166159Y0156127D01*
X0166299Y0155991D01*
X0166443Y0155858D01*
X0166590Y0155729D01*
X0166740Y0155603D01*
X0166893Y0155482D01*
X0167049Y0155363D01*
X0167208Y0155249D01*
X0167369Y0155139D01*
X0167534Y0155033D01*
X0167700Y0154930D01*
X0167870Y0154832D01*
X0168041Y0154738D01*
X0168215Y0154648D01*
X0168391Y0154563D01*
X0168569Y0154481D01*
X0168749Y0154405D01*
X0168931Y0154332D01*
X0169114Y0154264D01*
X0169299Y0154201D01*
X0169486Y0154142D01*
X0169674Y0154088D01*
X0169863Y0154038D01*
X0170053Y0153993D01*
X0170245Y0153953D01*
X0170437Y0153917D01*
X0170630Y0153886D01*
X0170824Y0153860D01*
X0171019Y0153838D01*
X0171214Y0153822D01*
X0171409Y0153810D01*
X0171605Y0153802D01*
X0171800Y0153800D01*
X0164741Y0165565D02*
X0164834Y0165733D01*
X0164930Y0165899D01*
X0165030Y0166063D01*
X0165135Y0166224D01*
X0165243Y0166383D01*
X0165355Y0166539D01*
X0165471Y0166693D01*
X0165590Y0166843D01*
X0165713Y0166991D01*
X0165839Y0167136D01*
X0165969Y0167277D01*
X0166102Y0167416D01*
X0166239Y0167551D01*
X0166379Y0167683D01*
X0166521Y0167811D01*
X0166667Y0167936D01*
X0166816Y0168058D01*
X0166968Y0168176D01*
X0167122Y0168290D01*
X0167280Y0168400D01*
X0167439Y0168507D01*
X0167602Y0168610D01*
X0167767Y0168709D01*
X0167934Y0168804D01*
X0168103Y0168894D01*
X0168274Y0168981D01*
X0168448Y0169064D01*
X0168623Y0169142D01*
X0168801Y0169216D01*
X0168980Y0169286D01*
X0169160Y0169352D01*
X0169342Y0169413D01*
X0169526Y0169470D01*
X0169711Y0169522D01*
X0169897Y0169570D01*
X0170084Y0169614D01*
X0170272Y0169653D01*
X0170461Y0169687D01*
X0170651Y0169717D01*
X0170841Y0169742D01*
X0171032Y0169763D01*
X0171224Y0169779D01*
X0171416Y0169791D01*
X0171608Y0169798D01*
X0171800Y0169800D01*
X0177907Y0156632D02*
X0177780Y0156486D01*
X0177651Y0156344D01*
X0177517Y0156204D01*
X0177381Y0156068D01*
X0177241Y0155935D01*
X0177098Y0155805D01*
X0176951Y0155679D01*
X0176802Y0155557D01*
X0176650Y0155438D01*
X0176495Y0155323D01*
X0176338Y0155211D01*
X0176178Y0155104D01*
X0176015Y0155000D01*
X0175849Y0154901D01*
X0175682Y0154805D01*
X0175512Y0154713D01*
X0175340Y0154626D01*
X0175166Y0154542D01*
X0174990Y0154463D01*
X0174812Y0154389D01*
X0174632Y0154318D01*
X0174451Y0154252D01*
X0174268Y0154190D01*
X0174084Y0154133D01*
X0173898Y0154080D01*
X0173711Y0154032D01*
X0173523Y0153988D01*
X0173334Y0153949D01*
X0173144Y0153914D01*
X0172954Y0153884D01*
X0172763Y0153858D01*
X0172571Y0153837D01*
X0172378Y0153821D01*
X0172186Y0153809D01*
X0171993Y0153802D01*
X0171800Y0153800D01*
X0177946Y0166922D02*
X0177819Y0167070D01*
X0177689Y0167215D01*
X0177556Y0167356D01*
X0177419Y0167495D01*
X0177279Y0167630D01*
X0177135Y0167761D01*
X0176988Y0167889D01*
X0176839Y0168014D01*
X0176686Y0168135D01*
X0176531Y0168252D01*
X0176372Y0168365D01*
X0176211Y0168474D01*
X0176047Y0168579D01*
X0175881Y0168681D01*
X0175712Y0168778D01*
X0175542Y0168871D01*
X0175368Y0168960D01*
X0175193Y0169045D01*
X0175016Y0169125D01*
X0174837Y0169201D01*
X0174656Y0169273D01*
X0174473Y0169340D01*
X0174289Y0169403D01*
X0174103Y0169461D01*
X0173916Y0169515D01*
X0173728Y0169564D01*
X0173538Y0169609D01*
X0173348Y0169649D01*
X0173156Y0169684D01*
X0172964Y0169715D01*
X0172771Y0169741D01*
X0172577Y0169762D01*
X0172383Y0169779D01*
X0172189Y0169791D01*
X0171995Y0169798D01*
X0171800Y0169800D01*
X0087300Y0174300D02*
X0087302Y0174389D01*
X0087308Y0174478D01*
X0087318Y0174567D01*
X0087332Y0174655D01*
X0087349Y0174742D01*
X0087371Y0174828D01*
X0087397Y0174914D01*
X0087426Y0174998D01*
X0087459Y0175081D01*
X0087495Y0175162D01*
X0087536Y0175242D01*
X0087579Y0175319D01*
X0087626Y0175395D01*
X0087677Y0175468D01*
X0087730Y0175539D01*
X0087787Y0175608D01*
X0087847Y0175674D01*
X0087910Y0175738D01*
X0087975Y0175798D01*
X0088043Y0175856D01*
X0088114Y0175910D01*
X0088187Y0175961D01*
X0088262Y0176009D01*
X0088339Y0176054D01*
X0088418Y0176095D01*
X0088499Y0176132D01*
X0088581Y0176166D01*
X0088665Y0176197D01*
X0088750Y0176223D01*
X0088836Y0176246D01*
X0088923Y0176264D01*
X0089011Y0176279D01*
X0089100Y0176290D01*
X0089189Y0176297D01*
X0089278Y0176300D01*
X0089367Y0176299D01*
X0089456Y0176294D01*
X0089544Y0176285D01*
X0089633Y0176272D01*
X0089720Y0176255D01*
X0089807Y0176235D01*
X0089893Y0176210D01*
X0089977Y0176182D01*
X0090060Y0176150D01*
X0090142Y0176114D01*
X0090222Y0176075D01*
X0090300Y0176032D01*
X0090376Y0175986D01*
X0090450Y0175936D01*
X0090522Y0175883D01*
X0090591Y0175827D01*
X0090658Y0175768D01*
X0090722Y0175706D01*
X0090783Y0175642D01*
X0090842Y0175574D01*
X0090897Y0175504D01*
X0090949Y0175432D01*
X0090998Y0175357D01*
X0091043Y0175281D01*
X0091085Y0175202D01*
X0091123Y0175122D01*
X0091158Y0175040D01*
X0091189Y0174956D01*
X0091217Y0174871D01*
X0091240Y0174785D01*
X0091260Y0174698D01*
X0091276Y0174611D01*
X0091288Y0174522D01*
X0091296Y0174434D01*
X0091300Y0174345D01*
X0091300Y0174255D01*
X0091296Y0174166D01*
X0091288Y0174078D01*
X0091276Y0173989D01*
X0091260Y0173902D01*
X0091240Y0173815D01*
X0091217Y0173729D01*
X0091189Y0173644D01*
X0091158Y0173560D01*
X0091123Y0173478D01*
X0091085Y0173398D01*
X0091043Y0173319D01*
X0090998Y0173243D01*
X0090949Y0173168D01*
X0090897Y0173096D01*
X0090842Y0173026D01*
X0090783Y0172958D01*
X0090722Y0172894D01*
X0090658Y0172832D01*
X0090591Y0172773D01*
X0090522Y0172717D01*
X0090450Y0172664D01*
X0090376Y0172614D01*
X0090300Y0172568D01*
X0090222Y0172525D01*
X0090142Y0172486D01*
X0090060Y0172450D01*
X0089977Y0172418D01*
X0089893Y0172390D01*
X0089807Y0172365D01*
X0089720Y0172345D01*
X0089633Y0172328D01*
X0089544Y0172315D01*
X0089456Y0172306D01*
X0089367Y0172301D01*
X0089278Y0172300D01*
X0089189Y0172303D01*
X0089100Y0172310D01*
X0089011Y0172321D01*
X0088923Y0172336D01*
X0088836Y0172354D01*
X0088750Y0172377D01*
X0088665Y0172403D01*
X0088581Y0172434D01*
X0088499Y0172468D01*
X0088418Y0172505D01*
X0088339Y0172546D01*
X0088262Y0172591D01*
X0088187Y0172639D01*
X0088114Y0172690D01*
X0088043Y0172744D01*
X0087975Y0172802D01*
X0087910Y0172862D01*
X0087847Y0172926D01*
X0087787Y0172992D01*
X0087730Y0173061D01*
X0087677Y0173132D01*
X0087626Y0173205D01*
X0087579Y0173281D01*
X0087536Y0173358D01*
X0087495Y0173438D01*
X0087459Y0173519D01*
X0087426Y0173602D01*
X0087397Y0173686D01*
X0087371Y0173772D01*
X0087349Y0173858D01*
X0087332Y0173945D01*
X0087318Y0174033D01*
X0087308Y0174122D01*
X0087302Y0174211D01*
X0087300Y0174300D01*
X0086800Y0185800D02*
X0083800Y0185800D01*
X0083800Y0187800D02*
X0086800Y0187800D01*
X0089800Y0187800D01*
X0089800Y0185800D02*
X0086800Y0185800D01*
X0069800Y0047800D02*
X0066800Y0047800D01*
X0063800Y0047800D01*
X0063800Y0045800D02*
X0066800Y0045800D01*
X0069800Y0045800D01*
X0094854Y0012831D02*
X0094953Y0012662D01*
X0095057Y0012496D01*
X0095164Y0012332D01*
X0095275Y0012171D01*
X0095390Y0012013D01*
X0095509Y0011858D01*
X0095632Y0011705D01*
X0095758Y0011556D01*
X0095888Y0011410D01*
X0096022Y0011267D01*
X0096159Y0011127D01*
X0096299Y0010991D01*
X0096443Y0010858D01*
X0096590Y0010729D01*
X0096740Y0010603D01*
X0096893Y0010482D01*
X0097049Y0010363D01*
X0097208Y0010249D01*
X0097369Y0010139D01*
X0097534Y0010033D01*
X0097700Y0009930D01*
X0097870Y0009832D01*
X0098041Y0009738D01*
X0098215Y0009648D01*
X0098391Y0009563D01*
X0098569Y0009481D01*
X0098749Y0009405D01*
X0098931Y0009332D01*
X0099114Y0009264D01*
X0099299Y0009201D01*
X0099486Y0009142D01*
X0099674Y0009088D01*
X0099863Y0009038D01*
X0100053Y0008993D01*
X0100245Y0008953D01*
X0100437Y0008917D01*
X0100630Y0008886D01*
X0100824Y0008860D01*
X0101019Y0008838D01*
X0101214Y0008822D01*
X0101409Y0008810D01*
X0101605Y0008802D01*
X0101800Y0008800D01*
X0094741Y0020565D02*
X0094834Y0020733D01*
X0094930Y0020899D01*
X0095030Y0021063D01*
X0095135Y0021224D01*
X0095243Y0021383D01*
X0095355Y0021539D01*
X0095471Y0021693D01*
X0095590Y0021843D01*
X0095713Y0021991D01*
X0095839Y0022136D01*
X0095969Y0022277D01*
X0096102Y0022416D01*
X0096239Y0022551D01*
X0096379Y0022683D01*
X0096521Y0022811D01*
X0096667Y0022936D01*
X0096816Y0023058D01*
X0096968Y0023176D01*
X0097122Y0023290D01*
X0097280Y0023400D01*
X0097439Y0023507D01*
X0097602Y0023610D01*
X0097767Y0023709D01*
X0097934Y0023804D01*
X0098103Y0023894D01*
X0098274Y0023981D01*
X0098448Y0024064D01*
X0098623Y0024142D01*
X0098801Y0024216D01*
X0098980Y0024286D01*
X0099160Y0024352D01*
X0099342Y0024413D01*
X0099526Y0024470D01*
X0099711Y0024522D01*
X0099897Y0024570D01*
X0100084Y0024614D01*
X0100272Y0024653D01*
X0100461Y0024687D01*
X0100651Y0024717D01*
X0100841Y0024742D01*
X0101032Y0024763D01*
X0101224Y0024779D01*
X0101416Y0024791D01*
X0101608Y0024798D01*
X0101800Y0024800D01*
X0107907Y0011632D02*
X0107780Y0011486D01*
X0107651Y0011344D01*
X0107517Y0011204D01*
X0107381Y0011068D01*
X0107241Y0010935D01*
X0107098Y0010805D01*
X0106951Y0010679D01*
X0106802Y0010557D01*
X0106650Y0010438D01*
X0106495Y0010323D01*
X0106338Y0010211D01*
X0106178Y0010104D01*
X0106015Y0010000D01*
X0105849Y0009901D01*
X0105682Y0009805D01*
X0105512Y0009713D01*
X0105340Y0009626D01*
X0105166Y0009542D01*
X0104990Y0009463D01*
X0104812Y0009389D01*
X0104632Y0009318D01*
X0104451Y0009252D01*
X0104268Y0009190D01*
X0104084Y0009133D01*
X0103898Y0009080D01*
X0103711Y0009032D01*
X0103523Y0008988D01*
X0103334Y0008949D01*
X0103144Y0008914D01*
X0102954Y0008884D01*
X0102763Y0008858D01*
X0102571Y0008837D01*
X0102378Y0008821D01*
X0102186Y0008809D01*
X0101993Y0008802D01*
X0101800Y0008800D01*
X0107946Y0021922D02*
X0107819Y0022070D01*
X0107689Y0022215D01*
X0107556Y0022356D01*
X0107419Y0022495D01*
X0107279Y0022630D01*
X0107135Y0022761D01*
X0106988Y0022889D01*
X0106839Y0023014D01*
X0106686Y0023135D01*
X0106531Y0023252D01*
X0106372Y0023365D01*
X0106211Y0023474D01*
X0106047Y0023579D01*
X0105881Y0023681D01*
X0105712Y0023778D01*
X0105542Y0023871D01*
X0105368Y0023960D01*
X0105193Y0024045D01*
X0105016Y0024125D01*
X0104837Y0024201D01*
X0104656Y0024273D01*
X0104473Y0024340D01*
X0104289Y0024403D01*
X0104103Y0024461D01*
X0103916Y0024515D01*
X0103728Y0024564D01*
X0103538Y0024609D01*
X0103348Y0024649D01*
X0103156Y0024684D01*
X0102964Y0024715D01*
X0102771Y0024741D01*
X0102577Y0024762D01*
X0102383Y0024779D01*
X0102189Y0024791D01*
X0101995Y0024798D01*
X0101800Y0024800D01*
D277*
X0141800Y0037600D03*
X0141800Y0066000D03*
X0171800Y0110100D03*
X0171800Y0138500D03*
X0049300Y0073500D03*
X0031800Y0073500D03*
X0031800Y0045100D03*
X0049300Y0045100D03*
D278*
X0053729Y0178335D02*
X0019871Y0178335D01*
X0019871Y0195265D01*
X0053729Y0195265D01*
X0053729Y0178335D01*
X0046800Y0196800D02*
X0046800Y0201800D01*
X0044300Y0201800D01*
X0041800Y0199300D01*
X0039300Y0201800D01*
X0036800Y0201800D01*
X0036800Y0196800D01*
M02*
